<?xml version="1.0" encoding="utf-8"?>
<!-- Generator: Adobe Illustrator 23.1.0, SVG Export Plug-In . SVG Version: 6.00 Build 0)  -->
<svg version="1.1" id="Layer_1" xmlns="http://www.w3.org/2000/svg" xmlns:xlink="http://www.w3.org/1999/xlink" x="0px" y="0px"
	 width="56" height="56" viewBox="0 0 56 56" style="enable-background:new 0 0 56 56;" xml:space="preserve">
<style type="text/css">
	.st0{fill:#51658D;}
	.st1{fill:#FFFFFF;}
	.st2{fill:#FCFCFC;}
</style>
<circle class="st0" cx="-144.4" cy="28.8" r="27.4"/>
<g>
	<path class="st1" d="M-138.8,21c0-0.2-0.2-0.4-0.4-0.4c-0.2,0-0.4,0.2-0.4,0.4c0,0.2,0.2,0.4,0.4,0.4
		C-139,21.5-138.8,21.3-138.8,21z"/>
	<path class="st1" d="M-144.6,39.7c-1-0.5-1.9-1-2.9-1.5c-2.5-1.3-5-2.6-7.5-3.9c-0.2-0.1-0.3-0.2-0.3-0.4c0-0.2,0.2-0.3,0.3-0.4
		c1.2-0.6,2.5-1.3,3.7-1.9c0.1,0,0.1-0.1,0.2-0.1c-0.1,0-0.1-0.1-0.2-0.1c-1.2-0.6-2.4-1.3-3.7-1.9c-0.1,0-0.1-0.1-0.2-0.1
		c-0.2-0.1-0.3-0.2-0.3-0.4c0-0.2,0.1-0.3,0.3-0.4c0.7-0.4,1.4-0.7,2.1-1.1c0.6-0.3,1.2-0.6,1.7-0.9c0.1,0,0.1-0.1,0.2-0.1
		c-0.1,0-0.1-0.1-0.2-0.1c-1.2-0.7-2.5-1.3-3.7-1.9c-0.2-0.1-0.3-0.2-0.3-0.4c0-0.2,0.2-0.3,0.3-0.4c3.4-1.8,6.8-3.6,10.2-5.3
		c0.2-0.1,0.4-0.1,0.6,0c1.1,0.6,2.2,1.2,3.4,1.7c0.3,0.2,0.4,0.4,0.3,0.6c-0.1,0.2-0.4,0.3-0.6,0.2c-0.8-0.4-1.5-0.8-2.3-1.2
		c-0.3-0.1-0.6-0.3-0.9-0.4c-0.1,0-0.2,0-0.2,0c-3.1,1.6-6.2,3.2-9.3,4.8c0,0,0,0-0.1,0c0.1,0,0.1,0.1,0.1,0.1
		c3.1,1.6,6.2,3.2,9.2,4.8c0.1,0.1,0.2,0,0.3,0c2.6-1.3,5.2-2.7,7.8-4c0.5-0.3,1-0.5,1.6-0.8c-0.3-0.2-0.6-0.3-0.8-0.4
		c-0.6-0.3-1.3-0.7-1.9-1c-0.1-0.1-0.3-0.2-0.3-0.3c0-0.1,0.1-0.3,0.2-0.4c0.1-0.1,0.3-0.1,0.5,0c0.5,0.3,1.1,0.6,1.6,0.8
		c0.6,0.3,1.1,0.6,1.7,0.9c0.2,0.1,0.3,0.2,0.4,0.3c0,0.1,0,0.2,0,0.3c-0.1,0.1-0.3,0.3-0.4,0.3c-1.2,0.6-2.5,1.3-3.7,1.9
		c-0.1,0-0.1,0.1-0.2,0.1c0.1,0.1,0.1,0.1,0.2,0.1c1.2,0.6,2.5,1.3,3.7,1.9c0.2,0.1,0.3,0.2,0.4,0.3c0,0.1,0,0.2,0,0.3
		c-0.1,0.1-0.3,0.3-0.4,0.3c-1.2,0.7-2.5,1.3-3.7,1.9c-0.1,0-0.1,0.1-0.2,0.1c0.1,0,0.1,0.1,0.2,0.1c1.2,0.6,2.5,1.3,3.7,1.9
		c0.2,0.1,0.3,0.2,0.4,0.3c0,0.1,0,0.2,0,0.3c-0.1,0.1-0.2,0.3-0.4,0.3c-2.4,1.3-4.9,2.5-7.3,3.8c-1,0.5-2.1,1.1-3.1,1.6
		C-144.4,39.7-144.5,39.7-144.6,39.7z M-154,33.8c0.1,0,0.1,0.1,0.1,0.1c3.1,1.6,6.1,3.2,9.2,4.8c0.1,0,0.2,0,0.3,0
		c3.1-1.6,6.2-3.2,9.2-4.8c0,0,0.1-0.1,0.1-0.1c-0.1,0-0.1-0.1-0.2-0.1c-1.2-0.6-2.3-1.2-3.5-1.8c-0.1-0.1-0.2-0.1-0.4,0
		c-1.7,0.9-3.4,1.8-5.1,2.7c-0.2,0.1-0.4,0.1-0.7,0c-1.7-0.9-3.4-1.8-5.1-2.7c-0.1-0.1-0.2-0.1-0.3,0c-1.2,0.6-2.3,1.2-3.5,1.8
		C-153.8,33.7-153.9,33.8-154,33.8z M-134.9,28.8c-0.5-0.3-1-0.5-1.5-0.8c-0.1-0.1-0.2-0.1-0.4,0c-2.5,1.3-5,2.6-7.6,4
		c-0.6,0.3-1.1,0.6-1.7,0.9c0.1,0,0.1,0.1,0.2,0.1c0.4,0.2,0.8,0.4,1.2,0.6c0.2,0.1,0.4,0.1,0.6,0c1.9-1,3.9-2,5.9-3
		C-137.2,30-136.1,29.4-134.9,28.8z M-137.5,27.4c-0.4-0.2-0.7-0.4-1.1-0.6c-0.1-0.1-0.2-0.1-0.3,0c-1.7,0.9-3.4,1.8-5.1,2.7
		c-0.2,0.1-0.4,0.2-0.6,0c-0.1-0.1-0.2,0-0.3,0c-1,0.5-1.9,1-2.9,1.5c-0.3,0.1-0.5,0.3-0.8,0.4c0.5,0.3,1,0.5,1.5,0.8
		c0.1,0.1,0.2,0.1,0.4,0c2.6-1.4,5.3-2.7,7.9-4.1C-138.5,27.9-138.1,27.7-137.5,27.4z M-148.4,27.6c-0.6-0.3-1.1-0.6-1.6-0.8
		c-0.1,0-0.1,0-0.2,0c-1.2,0.6-2.4,1.2-3.6,1.9c0,0-0.1,0.1-0.2,0.1c0.4,0.2,0.8,0.4,1.1,0.6c0.4,0.3,0.7,0.2,1.1,0
		C-150.6,28.8-149.5,28.2-148.4,27.6z M-151.3,30.1c0.1,0,0.1,0.1,0.2,0.1c0.4,0.2,0.9,0.5,1.3,0.7c0.1,0.1,0.2,0.1,0.4,0
		c1.2-0.6,2.4-1.2,3.5-1.8c0.1,0,0.1-0.1,0.2-0.1c-0.5-0.3-1.1-0.6-1.6-0.8c-0.1,0-0.2,0-0.2,0c-0.7,0.4-1.4,0.7-2.1,1.1
		C-150.2,29.6-150.8,29.8-151.3,30.1z"/>
	<path class="st1" d="M-138.8,21c0,0.2-0.2,0.4-0.4,0.4c-0.2,0-0.4-0.2-0.4-0.4c0-0.2,0.2-0.4,0.4-0.4
		C-139,20.6-138.8,20.8-138.8,21z"/>
</g>
<circle class="st0" cx="-59.7" cy="28.6" r="27.4"/>
<g>
	<path class="st1" d="M-59.3,39.5c0-0.1,0-0.2,0-0.3c0-0.4,0-0.9,0-1.3c0-0.2-0.1-0.4-0.3-0.5c-0.3-0.1-0.5,0.1-0.5,0.5
		c0,0.5,0,1.1,0,1.7c-0.4-0.2-0.8-0.4-1.3-0.6c-0.3-0.1-0.5-0.1-0.6,0.2c-0.1,0.2,0,0.5,0.3,0.6c0.6,0.3,1.2,0.6,1.8,0.9
		c0.1,0.1,0.3,0.1,0.4,0c0.7-0.3,1.4-0.6,2-1c0.2-0.1,0.3-0.3,0.2-0.5c-0.1-0.2-0.3-0.3-0.5-0.2c-0.1,0-0.1,0.1-0.2,0.1
		C-58.5,39.2-58.9,39.3-59.3,39.5z"/>
	<path class="st1" d="M-71,34c0-0.6,0-1.1,0-1.6c0-0.3-0.2-0.5-0.4-0.5c-0.3,0-0.4,0.2-0.4,0.5c0,0.7,0,1.4,0,2.1
		c0,0.2,0,0.4,0.3,0.6c0.7,0.3,1.3,0.6,2,0.9c0.3,0.1,0.6-0.1,0.6-0.4c0-0.2-0.1-0.3-0.3-0.4c-0.3-0.2-0.7-0.3-1-0.5
		c0.4-0.2,0.8-0.3,1.1-0.5c0.1-0.1,0.2-0.3,0.2-0.4c0-0.1-0.2-0.3-0.3-0.4c-0.1,0-0.3,0-0.4,0.1C-70.1,33.6-70.5,33.8-71,34z"/>
	<path class="st1" d="M-48.5,34c-0.1-0.1-0.3-0.1-0.4-0.2c-0.3-0.2-0.7-0.3-1-0.5c-0.2-0.1-0.5,0-0.6,0.2c-0.1,0.2,0,0.4,0.2,0.6
		c0.2,0.1,0.4,0.2,0.5,0.3c0.2,0.1,0.4,0.2,0.6,0.3c-0.4,0.2-0.7,0.4-1.1,0.5c-0.3,0.1-0.3,0.3-0.2,0.6c0.1,0.2,0.4,0.3,0.6,0.2
		c0.6-0.3,1.1-0.6,1.7-0.8c0.3-0.1,0.4-0.4,0.4-0.7c0-0.7,0-1.3,0-2c0-0.3-0.2-0.5-0.4-0.5c-0.3,0-0.4,0.2-0.4,0.5
		C-48.5,33-48.5,33.4-48.5,34z"/>
	<path class="st1" d="M-60.2,17.7c0,0.1,0,0.2,0,0.3c0,0.4,0,0.8,0,1.2c0,0.2,0.1,0.4,0.4,0.4c0.2,0,0.4-0.1,0.5-0.3
		c0-0.1,0-0.2,0-0.3c0-0.4,0-0.9,0-1.3c0.4,0.2,0.9,0.4,1.3,0.6c0.3,0.1,0.5,0.1,0.6-0.2c0.1-0.2,0-0.5-0.3-0.6
		c-0.6-0.3-1.2-0.6-1.8-0.9c-0.1-0.1-0.3-0.1-0.4,0c-0.7,0.3-1.3,0.6-2,1c-0.2,0.1-0.3,0.4-0.2,0.6c0.1,0.2,0.3,0.3,0.5,0.2
		c0.1,0,0.2-0.1,0.3-0.1C-60.9,18.1-60.6,17.9-60.2,17.7z"/>
	<path class="st1" d="M-48.5,23.3c0,0.5,0,1,0,1.4c0,0.3,0.2,0.5,0.4,0.5c0.3,0,0.4-0.2,0.4-0.5c0-0.7,0-1.4,0-2
		c0-0.2-0.1-0.4-0.3-0.4c-0.6-0.3-1.2-0.6-1.8-0.9c-0.3-0.1-0.6-0.1-0.7,0.2c-0.1,0.2,0,0.5,0.3,0.6c0.3,0.2,0.7,0.3,1,0.5
		c-0.4,0.2-0.7,0.3-1,0.5c-0.3,0.1-0.4,0.4-0.3,0.6c0.1,0.2,0.4,0.3,0.7,0.2C-49.4,23.7-49,23.5-48.5,23.3z"/>
	<path class="st1" d="M-70.4,22.6c0.4-0.2,0.7-0.3,1-0.5c0.3-0.2,0.4-0.4,0.3-0.6c-0.1-0.3-0.4-0.3-0.7-0.2
		c-0.6,0.3-1.2,0.6-1.8,0.9c-0.2,0.1-0.3,0.2-0.3,0.4c0,0.7,0,1.4,0,2.1c0,0.2,0.1,0.4,0.4,0.4c0.3,0.1,0.5-0.1,0.5-0.4
		c0-0.5,0-0.9,0-1.5c0.5,0.2,0.9,0.4,1.3,0.6c0.3,0.1,0.5,0.1,0.7-0.2c0.1-0.2,0-0.5-0.3-0.6C-69.6,22.9-70,22.8-70.4,22.6z"/>
	<path class="st1" d="M-55.2,18.8c-0.2,0-0.4,0.1-0.4,0.3c-0.1,0.2,0.1,0.4,0.3,0.5c0.8,0.4,1.6,0.8,2.5,1.2c0.1,0,0.2,0.1,0.3,0.1
		c0.1-0.1,0.3-0.2,0.3-0.3c0.1-0.2-0.1-0.4-0.3-0.5c-0.8-0.4-1.7-0.8-2.5-1.2C-55.1,18.8-55.1,18.8-55.2,18.8z"/>
	<path class="st1" d="M-52.2,36.9c0-0.4-0.3-0.6-0.6-0.5c-0.9,0.4-1.7,0.8-2.6,1.2c-0.2,0.1-0.3,0.3-0.2,0.6
		c0.1,0.2,0.3,0.3,0.6,0.2c0.8-0.4,1.7-0.8,2.5-1.2C-52.3,37.2-52.3,37-52.2,36.9z"/>
	<path class="st1" d="M-66.9,20.9c0.1,0,0.2-0.1,0.3-0.1c0.8-0.4,1.7-0.8,2.5-1.2c0,0,0,0,0,0c0.2-0.1,0.3-0.4,0.2-0.6
		c-0.1-0.2-0.3-0.3-0.6-0.2c-0.7,0.3-1.5,0.7-2.2,1c-0.1,0.1-0.3,0.1-0.4,0.2c-0.2,0.1-0.2,0.3-0.2,0.5
		C-67.2,20.7-67,20.8-66.9,20.9z"/>
	<path class="st1" d="M-66.9,36.4c-0.1,0.1-0.3,0.2-0.3,0.4c-0.1,0.2,0,0.4,0.2,0.5c0.9,0.4,1.7,0.8,2.6,1.2c0.2,0.1,0.5,0,0.6-0.2
		c0.1-0.2,0-0.5-0.3-0.6c-0.8-0.4-1.6-0.8-2.5-1.2C-66.7,36.4-66.8,36.4-66.9,36.4z"/>
	<path class="st1" d="M-71,28.6c0-0.4,0-0.8,0-1.2c0-0.3-0.2-0.5-0.4-0.5c-0.2,0-0.4,0.2-0.4,0.5c0,0.8,0,1.6,0,2.4
		c0,0.3,0.2,0.5,0.4,0.5c0.3,0,0.4-0.2,0.4-0.5C-71,29.4-71,29-71,28.6z"/>
	<path class="st1" d="M-48.5,28.6c0,0.4,0,0.8,0,1.2c0,0.3,0.2,0.5,0.4,0.5c0.3,0,0.4-0.2,0.4-0.5c0-0.8,0-1.6,0-2.4
		c0-0.3-0.2-0.5-0.4-0.5c-0.2,0-0.4,0.2-0.4,0.5C-48.5,27.8-48.5,28.2-48.5,28.6z"/>
	<path class="st1" d="M-65.6,28.6c0-0.9,0-1.7,0-2.6c0-0.2-0.1-0.3-0.2-0.3c-0.4-0.2-0.9-0.4-1.3-0.6c-0.3-0.1-0.4-0.4-0.3-0.6
		c0.1-0.2,0.4-0.3,0.6-0.2c0.4,0.2,0.8,0.4,1.2,0.6c0.1,0,0.3,0.1,0.4,0c1.6-0.7,3.2-1.5,4.8-2.3c0.2-0.1,0.2-0.2,0.2-0.4
		c0-0.5,0-1.1,0-1.6c0-0.3,0.2-0.5,0.4-0.5c0.3,0,0.4,0.2,0.4,0.5c0,0.5,0,1.1,0,1.6c0,0.2,0,0.2,0.2,0.3c1.6,0.8,3.2,1.5,4.8,2.3
		c0.1,0,0.2,0,0.3,0c0.5-0.2,0.9-0.4,1.3-0.6c0.3-0.2,0.6-0.1,0.7,0.1c0.1,0.3,0,0.5-0.3,0.6c-0.5,0.2-1,0.5-1.5,0.7
		c-0.1,0.1-0.2,0.1-0.2,0.3c0,1.7,0,3.5,0,5.2c0,0.2,0.1,0.2,0.2,0.3c0.4,0.2,0.9,0.4,1.3,0.6c0.4,0.2,0.5,0.4,0.4,0.7
		c-0.1,0.3-0.4,0.3-0.7,0.1c-0.4-0.2-0.8-0.4-1.2-0.6c-0.1,0-0.3-0.1-0.4,0c-1.6,0.7-3.2,1.5-4.8,2.3c-0.2,0.1-0.2,0.2-0.2,0.3
		c0,0.4,0,0.8,0,1.1c0,0.3-0.2,0.5-0.4,0.5c-0.3,0-0.4-0.2-0.4-0.5c0-0.4,0-0.8,0-1.2c0-0.2,0-0.2-0.2-0.3c-1.6-0.8-3.2-1.5-4.8-2.3
		c-0.1,0-0.2,0-0.3,0c-0.4,0.2-0.8,0.4-1.2,0.6c-0.4,0.2-0.6,0.1-0.7-0.1c-0.1-0.3,0-0.5,0.4-0.6c0.4-0.2,0.8-0.4,1.3-0.6
		c0.1-0.1,0.2-0.1,0.2-0.3C-65.6,30.4-65.6,29.5-65.6,28.6z M-59.3,33.8c0.1-0.1,0.2-0.1,0.3-0.1c1.3-0.6,2.7-1.3,4-1.9
		c0.2-0.1,0.2-0.2,0.2-0.4c0-1.6,0-3.2,0-4.8c0-0.1,0-0.2,0-0.2c-0.1,0-0.1,0-0.1,0c-1.4,0.7-2.9,1.4-4.3,2.1
		c-0.1,0-0.1,0.2-0.1,0.3c0,0.8,0,1.6,0,2.4C-59.3,31.9-59.3,32.8-59.3,33.8z M-64.7,26.2c0,1.7,0,3.4,0,5.1c0,0.2,0.1,0.3,0.3,0.4
		c1.4,0.6,2.7,1.3,4.1,1.9c0.1,0,0.1,0.1,0.2,0.1c0-1.8,0-3.5,0-5.2c0-0.1-0.1-0.2-0.2-0.2c-0.7-0.3-1.4-0.7-2.1-1
		C-63.2,27-63.9,26.6-64.7,26.2z M-55.2,25.5c-0.1,0-0.1-0.1-0.1-0.1c-1.4-0.7-2.9-1.4-4.3-2c-0.1,0-0.2,0-0.3,0
		c-1.4,0.7-2.8,1.3-4.2,2c-0.1,0-0.1,0.1-0.2,0.1c1.5,0.7,3,1.4,4.4,2.1c0.1,0,0.2,0,0.3,0c0.5-0.2,0.9-0.4,1.4-0.7
		C-57.2,26.4-56.2,26-55.2,25.5z"/>
	<path class="st1" d="M-59.3,39.5c0.4-0.2,0.8-0.4,1.1-0.5c0.1,0,0.1-0.1,0.2-0.1c0.2-0.1,0.4,0,0.5,0.2c0.1,0.2,0.1,0.4-0.2,0.5
		c-0.7,0.3-1.3,0.7-2,1c-0.1,0-0.3,0-0.4,0c-0.6-0.3-1.2-0.6-1.8-0.9c-0.3-0.1-0.4-0.4-0.3-0.6c0.1-0.2,0.3-0.3,0.6-0.2
		c0.4,0.2,0.8,0.4,1.3,0.6c0-0.6,0-1.1,0-1.7c0-0.3,0.2-0.5,0.5-0.5c0.2,0.1,0.3,0.2,0.3,0.5c0,0.4,0,0.9,0,1.3
		C-59.3,39.3-59.3,39.4-59.3,39.5z"/>
	<path class="st1" d="M-71,34c0.5-0.2,0.9-0.4,1.3-0.6c0.1-0.1,0.3-0.1,0.4-0.1c0.1,0.1,0.3,0.2,0.3,0.4c0,0.1-0.1,0.3-0.2,0.4
		c-0.3,0.2-0.7,0.4-1.1,0.5c0.4,0.2,0.7,0.3,1,0.5c0.2,0.1,0.3,0.2,0.3,0.4c0,0.3-0.3,0.5-0.6,0.4c-0.7-0.3-1.3-0.6-2-0.9
		c-0.2-0.1-0.3-0.3-0.3-0.6c0-0.7,0-1.4,0-2.1c0-0.3,0.2-0.5,0.4-0.5c0.2,0,0.4,0.2,0.4,0.5C-71,32.9-71,33.4-71,34z"/>
	<path class="st1" d="M-48.5,34c0-0.5,0-1,0-1.5c0-0.3,0.2-0.5,0.4-0.5c0.3,0,0.4,0.2,0.4,0.5c0,0.7,0,1.3,0,2
		c0,0.3-0.1,0.5-0.4,0.7c-0.6,0.3-1.1,0.5-1.7,0.8c-0.3,0.1-0.5,0.1-0.6-0.2c-0.1-0.2,0-0.4,0.2-0.6c0.3-0.2,0.7-0.3,1.1-0.5
		c-0.2-0.1-0.4-0.2-0.6-0.3c-0.2-0.1-0.4-0.2-0.5-0.3c-0.2-0.1-0.3-0.3-0.2-0.6c0.1-0.2,0.3-0.3,0.6-0.2c0.3,0.1,0.7,0.3,1,0.5
		C-48.7,33.9-48.6,33.9-48.5,34z"/>
	<path class="st1" d="M-60.2,17.7c-0.4,0.2-0.7,0.3-1.1,0.5c-0.1,0-0.2,0.1-0.3,0.1c-0.2,0.1-0.4,0-0.5-0.2c-0.1-0.2,0-0.5,0.2-0.6
		c0.7-0.3,1.3-0.7,2-1c0.1,0,0.3,0,0.4,0c0.6,0.3,1.2,0.6,1.8,0.9c0.3,0.1,0.4,0.4,0.3,0.6c-0.1,0.2-0.4,0.3-0.6,0.2
		c-0.4-0.2-0.8-0.4-1.3-0.6c0,0.5,0,0.9,0,1.3c0,0.1,0,0.2,0,0.3c-0.1,0.2-0.2,0.4-0.5,0.3c-0.2,0-0.4-0.2-0.4-0.4
		c0-0.4,0-0.8,0-1.2C-60.2,18-60.2,17.9-60.2,17.7z"/>
	<path class="st1" d="M-48.5,23.3c-0.5,0.2-0.9,0.4-1.3,0.6c-0.3,0.1-0.5,0.1-0.7-0.2c-0.1-0.2,0-0.5,0.3-0.6c0.3-0.2,0.7-0.3,1-0.5
		c-0.4-0.2-0.7-0.3-1-0.5c-0.3-0.1-0.4-0.4-0.3-0.6c0.1-0.2,0.4-0.3,0.7-0.2c0.6,0.3,1.2,0.6,1.8,0.9c0.2,0.1,0.3,0.2,0.3,0.4
		c0,0.7,0,1.4,0,2c0,0.3-0.2,0.5-0.4,0.5c-0.2,0-0.4-0.2-0.4-0.5C-48.5,24.2-48.5,23.8-48.5,23.3z"/>
	<path class="st1" d="M-70.4,22.6c0.4,0.2,0.7,0.3,1,0.5c0.3,0.1,0.4,0.4,0.3,0.6c-0.1,0.2-0.4,0.3-0.7,0.2
		c-0.4-0.2-0.8-0.4-1.3-0.6c0,0.5,0,1,0,1.5c0,0.3-0.2,0.5-0.5,0.4c-0.2-0.1-0.3-0.2-0.4-0.4c0-0.7,0-1.4,0-2.1
		c0-0.2,0.1-0.4,0.3-0.4c0.6-0.3,1.2-0.6,1.8-0.9c0.3-0.2,0.6-0.1,0.7,0.2c0.1,0.2,0,0.5-0.3,0.6C-69.7,22.3-70,22.4-70.4,22.6z"/>
	<path class="st1" d="M-55.2,18.8c0,0,0.1,0,0.2,0.1c0.8,0.4,1.7,0.8,2.5,1.2c0.2,0.1,0.3,0.3,0.3,0.5c0,0.1-0.2,0.3-0.3,0.3
		c-0.1,0-0.2,0-0.3-0.1c-0.8-0.4-1.6-0.8-2.5-1.2c-0.2-0.1-0.3-0.3-0.3-0.5C-55.6,18.9-55.4,18.8-55.2,18.8z"/>
	<path class="st1" d="M-52.2,36.9c-0.1,0.1-0.1,0.2-0.3,0.3c-0.8,0.4-1.7,0.8-2.5,1.2c-0.2,0.1-0.5,0-0.6-0.2
		c-0.1-0.2,0-0.4,0.2-0.6c0.9-0.4,1.7-0.8,2.6-1.2C-52.5,36.3-52.2,36.5-52.2,36.9z"/>
	<path class="st1" d="M-66.9,20.9c-0.1-0.1-0.3-0.2-0.3-0.3c-0.1-0.2,0-0.4,0.2-0.5c0.1-0.1,0.3-0.1,0.4-0.2c0.7-0.4,1.5-0.7,2.2-1
		c0.3-0.1,0.5,0,0.6,0.2c0.1,0.2,0,0.4-0.2,0.6c0,0,0,0,0,0c-0.8,0.4-1.7,0.8-2.5,1.2C-66.7,20.8-66.8,20.9-66.9,20.9z"/>
	<path class="st1" d="M-66.9,36.4c0.2,0.1,0.2,0.1,0.3,0.1c0.8,0.4,1.6,0.8,2.5,1.2c0.3,0.1,0.4,0.4,0.3,0.6
		c-0.1,0.2-0.3,0.3-0.6,0.2c-0.9-0.4-1.7-0.8-2.6-1.2c-0.2-0.1-0.3-0.3-0.2-0.5C-67.2,36.6-67,36.5-66.9,36.4z"/>
	<path class="st1" d="M-71,28.6c0,0.4,0,0.8,0,1.2c0,0.3-0.2,0.5-0.4,0.5c-0.3,0-0.4-0.2-0.4-0.5c0-0.8,0-1.6,0-2.4
		c0-0.3,0.2-0.5,0.4-0.5c0.3,0,0.4,0.2,0.4,0.5C-71,27.8-71,28.2-71,28.6z"/>
	<path class="st1" d="M-48.5,28.6c0-0.4,0-0.8,0-1.2c0-0.3,0.2-0.5,0.4-0.5c0.3,0,0.4,0.2,0.4,0.5c0,0.8,0,1.6,0,2.4
		c0,0.3-0.2,0.5-0.4,0.5c-0.3,0-0.4-0.2-0.4-0.5C-48.5,29.4-48.5,29-48.5,28.6z"/>
</g>
<g>
	<circle class="st0" cx="27.7" cy="28.1" r="27.4"/>
	<g>
		<path class="st1" d="M25.4,13.9c0.3,0,0.7,0,1,0c0.1,0,0.1,0,0.2,0c0.6,0.1,1.1,0.3,1.7,0.6c1.4,0.9,2.2,2.2,2.2,3.9
			c0,6.5,0,13,0,19.5c0,0.8,0.5,1.5,1.3,1.5c0.7,0,1.4,0,2.1,0c0.6,0,1.1-0.5,1.2-0.9c-0.1,0-0.1,0-0.2,0c-0.5,0-0.6-0.2-0.6-0.6
			c0-0.1,0-0.2,0-0.4c0-0.6,0-1.2,0-1.9c-0.3,0-0.6,0-0.8,0c-0.4,0-0.6-0.2-0.6-0.6c0-0.6,0-1.2,0-1.8c0-0.1-0.1-0.3-0.2-0.4
			c-0.3-0.3-0.6-0.7-1-1c-0.2-0.2-0.3-0.4-0.3-0.6c0-2.3,0-4.7,0-7c0-1,0-2.1,0-3.1c0-0.5,0.2-0.6,0.6-0.6c0.1,0,0.2,0,0.3,0
			c0-0.1,0-0.2,0-0.4c0-1.9,0-3.8,0-5.6c0-0.3,0.1-0.5,0.3-0.6c2.6,0,5.2,0,7.9,0c0.3,0.2,0.3,0.4,0.3,0.7c0,1.9,0,3.7,0,5.6
			c0,0.1,0,0.2,0,0.3c0.1,0,0.2,0,0.3,0c0.4,0,0.6,0.2,0.6,0.6c0,3.4,0,6.8,0,10.1c0,0.2-0.1,0.4-0.2,0.6c-0.3,0.4-0.7,0.7-1,1.1
			c-0.1,0.1-0.1,0.2-0.1,0.4c0,0.6,0,1.2,0,1.7c0,0.5-0.1,0.7-0.7,0.7c-0.2,0-0.5,0-0.7,0c0,0.1,0,0.2,0,0.2c0,0.7,0,1.3,0,2
			c0,0.4-0.2,0.6-0.6,0.6c-0.1,0-0.3,0-0.4,0c0,0.1,0,0.2-0.1,0.3c-0.3,1.6-1.6,3-3.2,3.4c-1.1,0.2-2.2,0.1-3.3,0.1
			c-0.3,0-0.5-0.1-0.8-0.2c-1.8-0.6-3-2.2-3-4.1c0-6.4,0-12.8,0-19.3c0-0.1,0-0.2,0-0.3c-0.1-0.7-0.4-1.2-1-1.5
			c-0.6-0.3-1.2-0.2-1.7,0.3c-0.4,0.4-0.6,0.8-0.6,1.4c0,6.5,0,13,0,19.5c0,3.1-3.1,5.2-5.9,3.9c-1.7-0.7-2.6-2.1-2.6-4
			c0-2.2,0-4.5,0-6.7c0-0.1,0-0.2,0-0.3c-0.1,0-0.1,0-0.2,0c-0.6,0-0.7-0.1-0.7-0.7c0-0.4,0-0.7,0-1.1c-0.1,0-0.1,0-0.2,0
			c-0.6,0-0.7-0.1-0.7-0.8c0-1.9,0-3.8,0-5.7c0-0.8,0-1.6,0-2.4c0-0.2,0-0.5,0.3-0.5c0.2-0.1,0.2-0.2,0.2-0.3c0-1.6,0-3.2,0-4.8
			c0-0.3,0.1-0.5,0.3-0.6c1.7,0,3.3,0,5,0c0.3,0.1,0.4,0.3,0.3,0.6c0,0.2,0,0.5,0,0.7c0,1.4,0,2.7,0,4.1c0,0.1,0.1,0.2,0.1,0.3
			c0.3,0.1,0.4,0.3,0.4,0.6c0,2.7,0,5.5,0,8.2c0,0,0,0.1,0,0.1c0,0.3-0.2,0.5-0.5,0.5c-0.1,0-0.3,0-0.4,0c0,0.5,0,0.9,0,1.3
			c0,0.4-0.2,0.5-0.5,0.6c-0.1,0-0.3,0-0.4,0c0,0.1,0,0.3,0,0.4c0,2.2,0,4.3,0,6.5c0,0.1,0,0.2,0,0.3c0,0.7,0.6,1.2,1.3,1.3
			c0.6,0.1,1.3-0.4,1.5-1c0.1-0.2,0.1-0.4,0.1-0.6c0-6.4,0-12.9,0-19.3c0-2.1,1.3-3.8,3.2-4.4C24.8,14,25.1,13.9,25.4,13.9z
			 M39.3,34.7c0-0.6,0-1.2,0-1.7c0-0.2,0.1-0.4,0.2-0.6c0.3-0.4,0.7-0.7,1-1c0.1-0.1,0.2-0.3,0.2-0.5c0-3,0-6.1,0-9.1
			c0-0.1,0-0.2,0-0.3c-2.9,0-5.7,0-8.5,0c0,0.1,0,0.2,0,0.4c0,2.7,0,5.4,0,8.1c0,0.4-0.1,0.9,0,1.3c0.1,0.4,0.5,0.6,0.8,0.9
			c0.4,0.3,0.6,0.8,0.5,1.3c0,0.4,0,0.9,0,1.3C35.6,34.7,37.4,34.7,39.3,34.7z M16.6,30.9c0,0.1,0,0.2,0,0.4c0,1.8,0,3.6,0,5.4
			c0,0.5,0,1.1,0,1.6c0.1,1.6,1.5,3,3.2,3c1.9,0.1,3.4-1.4,3.4-3.4c0-4.7,0-9.5,0-14.2c0-1.8,0-3.7,0-5.5c0-1.6,1.6-2.8,3.2-2.4
			c1.2,0.3,2,1.3,2,2.7c0,4.5,0,9,0,13.4c0,2,0,4.1,0,6.1c0,1.6,1.2,3,2.8,3.2c0.9,0.1,1.8,0.1,2.7,0c0.6,0,1.1-0.2,1.6-0.6
			c0.8-0.5,1.2-1.3,1.4-2.2c-0.3,0-0.5,0-0.7,0c-0.2,0-0.2,0.1-0.3,0.2c-0.3,0.9-0.9,1.5-1.9,1.6c-0.8,0.1-1.7,0-2.5,0
			c-0.1,0-0.2,0-0.3-0.1c-1.1-0.3-1.8-1.2-1.8-2.4c0-6.4,0-12.8,0-19.2c0-0.1,0-0.3,0-0.4c-0.1-2.2-2.1-3.8-4.3-3.4
			c-1.7,0.4-2.8,1.8-2.8,3.5c0,6.4,0,12.9,0,19.3c0,0.1,0,0.3,0,0.4c-0.1,1.6-1.6,2.6-3.1,2.2c-1-0.3-1.7-1.2-1.7-2.4
			c0-2.2,0-4.4,0-6.6c0-0.1,0-0.2,0-0.4C17.2,30.9,16.9,30.9,16.6,30.9z M19.4,28.1c0-2.5,0-5,0-7.5c-1.6,0-3.1,0-4.7,0
			c0,2.5,0,5,0,7.5C16.3,28.1,17.9,28.1,19.4,28.1z M39.8,14.8c-2.2,0-4.4,0-6.6,0c0,1.9,0,3.8,0,5.6c2.2,0,4.4,0,6.6,0
			C39.8,18.6,39.8,16.7,39.8,14.8z M19,14.8c-0.6,0-1.2,0-1.9,0c0,0.3,0,0.6,0,0.9c0.2,0,0.3,0,0.4,0c0.3,0,0.5,0.2,0.5,0.5
			c0,0.6,0,1.2,0,1.9c0,0.3-0.2,0.5-0.5,0.5c-0.2,0-0.3,0-0.5,0c0,0.3,0,0.6,0,0.9c0.6,0,1.2,0,1.9,0C19,18,19,16.4,19,14.8z
			 M16.1,19.5c0-0.5,0-0.9,0-1.3c0-0.3,0.2-0.5,0.5-0.5c0.1,0,0.3,0,0.4,0c0-0.2,0-0.3,0-0.5c0-0.2,0-0.3,0-0.5c-0.1,0-0.1,0-0.2,0
			c-0.6,0.1-0.8-0.2-0.8-0.8c0-0.4,0-0.7,0-1.1c-0.3,0-0.6,0-0.9,0c0,1.6,0,3.1,0,4.7C15.5,19.5,15.8,19.5,16.1,19.5z M35.1,37.5
			c0.9,0,1.9,0,2.8,0c0-0.6,0-1.2,0-1.9c-0.9,0-1.9,0-2.8,0C35.1,36.3,35.1,36.9,35.1,37.5z M15.7,29.9c1,0,1.9,0,2.8,0
			c0-0.3,0-0.6,0-0.9c-0.9,0-1.7,0-2.5,0c-0.1,0-0.2,0-0.3,0C15.7,29.3,15.7,29.6,15.7,29.9z"/>
		<path class="st1" d="M33.2,24.3c0.3,0,0.6,0,0.9,0c0,0.6,0.1,1.2,0,1.7c-0.1,0.6,0.1,0.9,0.7,1.1c0.4,0.1,0.7,0.4,1.1,0.5
			c0,0,0,0,0.1,0c0-1.6,0-3.2,0-4.8c0.3,0,0.6,0,0.9,0c0,1.2,0,2.3,0,3.5c0.5-0.2,0.9-0.4,1.3-0.5c0.1,0,0.1-0.1,0.1-0.2
			c0-0.4,0-0.9,0-1.3c0.3,0,0.6,0,0.9,0c0,0.6,0,1.3,0,1.9c0,0.2-0.2,0.3-0.4,0.4c-0.6,0.2-1.2,0.5-1.7,0.7
			c-0.2,0.1-0.2,0.1-0.2,0.3c0,0.6,0,1.1,0,1.7c0,0.1,0.1,0.2,0.2,0.3c0.6,0.4,0.9,1,0.7,1.7c-0.2,0.6-0.8,1.1-1.5,1
			c-0.7-0.1-1.2-0.6-1.3-1.3c-0.1-0.5,0.2-1.1,0.7-1.4c0.3-0.2,0.1-0.4,0.2-0.6c0-0.2-0.1-0.3-0.2-0.3c-0.7-0.4-1.5-0.7-2.2-1.1
			c-0.3-0.1-0.4-0.3-0.4-0.6C33.2,26.1,33.2,25.2,33.2,24.3z M36.5,30.4c-0.3,0-0.5,0.2-0.5,0.5c0,0.2,0.2,0.5,0.5,0.5
			c0.3,0,0.5-0.2,0.5-0.5C36.9,30.6,36.7,30.4,36.5,30.4z"/>
		<path class="st2" d="M38.8,17.2c0,0.3,0,0.6,0,0.9c-0.6,0-1.2,0-1.9,0c0-0.3,0-0.6,0-0.9C37.6,17.2,38.2,17.2,38.8,17.2z"/>
		<path class="st2" d="M34.1,18.1c0-0.3,0-0.6,0-0.9c0.6,0,1.2,0,1.9,0c0,0.3,0,0.6,0,0.9C35.4,18.1,34.8,18.1,34.1,18.1z"/>
	</g>
</g>
<g>
	<g>
		<circle class="st0" cx="95.2" cy="28.2" r="27.4"/>
	</g>
	<g>
		<path class="st1" d="M96.8,35.6c0.3-0.1,0.5-0.2,0.6-0.3c1.4-0.8,2.9-1.7,4.3-2.5c0.6-0.4,1.3-0.7,2-0.8c0.9-0.1,1.7,0.4,2,1.2
			c0.3,0.9,0,1.8-0.8,2.3c-2.6,1.6-5.3,3.2-7.9,4.9c-1,0.6-2,0.8-3.1,0.5c-1.7-0.5-3.4-0.9-5-1.4c-0.5-0.1-0.9,0-1.2,0.3
			c0.1,0.2,0.2,0.4,0.3,0.6c0.3,0.6,0.1,1.2-0.4,1.5c-0.4,0.3-0.9,0.5-1.3,0.7c-0.6,0.3-1.2,0.1-1.5-0.4c-1.2-2.2-2.5-4.4-3.7-6.6
			c-0.3-0.6-0.1-1.2,0.4-1.5c0.4-0.2,0.8-0.5,1.2-0.7c0.6-0.3,1.2-0.2,1.6,0.5c0.1,0.1,0.2,0.3,0.3,0.4c0.4-0.2,0.7-0.4,1.1-0.6
			c0.8-0.5,1.7-1,2.5-1.4c0.8-0.5,1.7-0.8,2.7-0.5c0.9,0.2,1.7,0.6,2.5,0.9c0.7,0.2,1.4,0.4,2.1,0.6c1.1,0.3,1.7,1.2,1.4,2.3
			C96.8,35.4,96.8,35.5,96.8,35.6z M87.3,38.8c0.2-0.1,0.5-0.2,0.7-0.4c0.2-0.2,0.5-0.2,0.7-0.1c1.8,0.5,3.6,1,5.4,1.5
			c1,0.3,1.8,0.1,2.7-0.4c2.6-1.6,5.1-3.2,7.7-4.8c0.4-0.3,0.6-0.7,0.4-1.2c-0.1-0.4-0.5-0.6-1-0.5c-0.6,0.1-1.1,0.3-1.6,0.6
			c-1.5,0.9-2.9,1.7-4.4,2.6c-0.7,0.4-1.4,0.6-2.2,0.5c-0.6-0.1-1.1-0.2-1.7-0.3c-0.7-0.2-1.4-0.4-2.1-0.5c-0.3-0.1-0.4-0.3-0.4-0.6
			c0.1-0.2,0.3-0.4,0.6-0.3c0.1,0,0.2,0.1,0.3,0.1c0.9,0.2,1.8,0.5,2.7,0.7c0.5,0.1,0.9-0.2,1-0.6c0.1-0.4-0.2-0.8-0.6-1
			c-0.2-0.1-0.4-0.1-0.6-0.1c-1.3-0.4-2.6-0.8-3.8-1.2c-0.5-0.2-1-0.2-1.5,0c-0.3,0.1-0.6,0.3-0.9,0.4c-1.1,0.6-2.1,1.2-3.2,1.9
			c-0.1,0-0.1,0.1-0.2,0.1C85.8,36.3,86.5,37.6,87.3,38.8z M87.3,40.8c0-0.1-0.1-0.1-0.1-0.2c-1.2-2.1-2.4-4.3-3.6-6.4
			c-0.1-0.2-0.2-0.2-0.4-0.1c-0.3,0.2-0.7,0.4-1,0.6c-0.3,0.2-0.3,0.2-0.1,0.5c0.5,0.8,0.9,1.7,1.4,2.5c0.7,1.3,1.4,2.5,2.1,3.8
			c0.1,0.1,0.2,0.3,0.4,0.2c0.4-0.2,0.8-0.4,1.2-0.7C87.2,41,87.3,40.9,87.3,40.8z"/>
		<path class="st1" d="M105.1,27.4c0.1-0.8,0.1-1.6-0.1-2.4c-0.9-4.2-3.3-6.8-7.4-8c-0.4-0.1-0.9-0.2-1.3-0.2
			c-0.5-0.1-0.6-0.2-0.6-0.7c0-0.6,0-1.2,0-1.9c0-0.5,0.2-0.6,0.7-0.6c5.8,0.4,10.7,4.8,11.7,10.5c0.2,0.9,0.2,1.9,0.2,2.8
			c0,0.1,0,0.2,0,0.4c0.2,0,0.3,0,0.4,0c0.3,0,0.5,0.1,0.7,0.4c0.1,0.3,0.1,0.5-0.1,0.8c-0.6,0.8-1.3,1.6-1.9,2.4
			c-0.3,0.4-0.8,0.4-1.2,0c-0.6-0.8-1.3-1.6-1.9-2.4c-0.2-0.2-0.2-0.5-0.1-0.8c0.1-0.3,0.4-0.4,0.6-0.4
			C104.9,27.4,105,27.4,105.1,27.4z M108.2,28.4c-0.2,0-0.2,0-0.3,0c-0.6,0-0.7-0.1-0.7-0.7c0.1-1.1,0.1-2.2-0.2-3.3
			c-1-4.6-3.8-7.7-8.3-9.2c-0.7-0.2-1.5-0.3-2.3-0.5c0,0.4,0,0.7,0,1.1c0,0.2,0.1,0.3,0.3,0.3c0.4,0.1,0.7,0.1,1.1,0.2
			c5.1,1.3,8.5,6.1,8.1,11.4c-0.1,0.7-0.1,0.7-0.7,0.9c0.5,0.6,1,1.2,1.5,1.9C107.2,29.6,107.7,29,108.2,28.4z"/>
		<path class="st1" d="M93.9,25c-1.9-1.5-1.7-3.8-0.4-5.1c1.3-1.3,3.5-1.4,4.8,0c1.3,1.3,1.5,3.6-0.4,5.1c0.1,0,0.2,0.1,0.3,0.1
			c2.2,1,3.5,2.7,3.9,5.1c0,0.3-0.1,0.5-0.5,0.6c-0.1,0-0.2,0-0.2,0c-3.7,0-7.3,0-11,0c-0.2,0-0.3,0-0.5-0.1
			c-0.2-0.1-0.2-0.3-0.2-0.5c0.2-1.5,0.9-2.8,2-3.9C92.4,25.7,93.1,25.3,93.9,25z M101,29.8c-0.3-1.9-2.2-4.2-5.2-4.2
			c-3,0-4.8,2.3-5.1,4.2C94.1,29.8,97.6,29.8,101,29.8z M95.9,24.7c1.4,0,2.5-1.1,2.5-2.4c0-1.4-1.1-2.4-2.4-2.4
			c-1.3,0-2.4,1.1-2.4,2.4C93.4,23.6,94.5,24.7,95.9,24.7z"/>
		<path class="st1" d="M83.9,26.3c-0.3,0-0.7,0-1,0c-0.4,0-0.6-0.2-0.6-0.6c0.1-1.6,0.5-3.2,1.3-4.7c0.2-0.4,0.4-0.5,0.8-0.3
			c0.6,0.3,1.2,0.7,1.7,1c0.3,0.2,0.4,0.4,0.2,0.7c-0.5,1.1-0.8,2.2-0.9,3.3c0,0.3-0.2,0.5-0.5,0.5C84.6,26.3,84.2,26.3,83.9,26.3z
			 M85.3,22.3c-0.3-0.2-0.6-0.4-1-0.6c-0.5,1.2-0.8,2.3-1,3.6c0.4,0,0.7,0,1.1,0c0.1,0,0.2-0.1,0.2-0.2
			C84.8,24.3,85.1,23.3,85.3,22.3z"/>
		<path class="st1" d="M83.9,27c0.3,0,0.7,0,1,0c0.3,0,0.5,0.2,0.5,0.5c0.1,1.2,0.4,2.3,0.9,3.4c0.1,0.3,0,0.5-0.2,0.6
			c-0.6,0.4-1.2,0.7-1.9,1.1c-0.3,0.2-0.5,0.1-0.7-0.2C83,31,82.6,29.5,82.4,28c0-0.2,0-0.3,0-0.5c0-0.4,0.2-0.6,0.5-0.6
			C83.2,27,83.6,27,83.9,27z M84.3,31.5c0.4-0.2,0.7-0.4,1-0.6c-0.3-1-0.5-2-0.8-3c-0.4,0-0.8,0-1.2,0
			C83.5,29.2,83.8,30.3,84.3,31.5z"/>
		<path class="st1" d="M94.9,15.3c0,0.3,0,0.7,0,1c0,0.3-0.1,0.5-0.5,0.5c-1.2,0.1-2.3,0.4-3.4,0.9c-0.3,0.1-0.5,0.1-0.6-0.2
			c-0.4-0.6-0.7-1.2-1.1-1.8c-0.2-0.3-0.1-0.5,0.2-0.7c1.4-0.7,2.8-1.1,4.3-1.2c0.2,0,0.3,0,0.5,0c0.4,0,0.6,0.2,0.6,0.5
			C95,14.6,94.9,14.9,94.9,15.3z M90.4,15.6c0.2,0.4,0.4,0.7,0.6,1c1-0.2,2-0.5,2.9-0.7c0.1,0,0.1-0.1,0.1-0.1c0-0.4,0-0.7,0-1.1
			C92.7,14.8,91.6,15.1,90.4,15.6z"/>
		<path class="st1" d="M86.8,21.3c-0.2-0.1-0.3-0.1-0.4-0.2c-0.6-0.3-1.2-0.7-1.7-1c-0.3-0.2-0.4-0.5-0.2-0.8
			c0.9-1.4,2.1-2.5,3.5-3.5c0.3-0.2,0.6-0.2,0.8,0.2c0.3,0.6,0.7,1.2,1,1.7c0.2,0.3,0.1,0.5-0.2,0.8c-0.9,0.7-1.7,1.5-2.4,2.4
			C87.1,21.1,87,21.2,86.8,21.3z M85.6,19.5c0.4,0.2,0.7,0.4,1,0.6c0.7-0.7,1.5-1.5,2.2-2.2c-0.2-0.3-0.4-0.7-0.6-1
			C87.2,17.7,86.3,18.5,85.6,19.5z"/>
		<path class="st1" d="M83.6,35.4c0,0.2-0.2,0.4-0.5,0.4c-0.3,0-0.5-0.2-0.4-0.5c0-0.2,0.2-0.4,0.5-0.4
			C83.4,34.9,83.6,35.1,83.6,35.4z"/>
	</g>
</g>
</svg>
