<?xml version="1.0" encoding="utf-8"?>
<!-- Generator: Adobe Illustrator 23.1.0, SVG Export Plug-In . SVG Version: 6.00 Build 0)  -->
<svg version="1.1" id="Layer_1" xmlns="http://www.w3.org/2000/svg" xmlns:xlink="http://www.w3.org/1999/xlink" x="0px" y="0px"
	 viewBox="0 0 100 100" style="enable-background:new 0 0 100 100;" xml:space="preserve">
<style type="text/css">
	.st0{fill:#51658D;}
	.st1{fill:#FFFFFF;}
	.st2{fill:#FCFCFC;}
</style>
<circle class="st0" cx="-670.7" cy="50.8" r="27.4"/>
<g>
	<path class="st1" d="M-665.1,43c0-0.2-0.2-0.4-0.4-0.4c-0.2,0-0.4,0.2-0.4,0.4c0,0.2,0.2,0.4,0.4,0.4
		C-665.3,43.5-665.1,43.3-665.1,43z"/>
	<path class="st1" d="M-670.9,61.7c-1-0.5-1.9-1-2.9-1.5c-2.5-1.3-5-2.6-7.5-3.9c-0.2-0.1-0.3-0.2-0.3-0.4c0-0.2,0.2-0.3,0.3-0.4
		c1.2-0.6,2.5-1.3,3.7-1.9c0.1,0,0.1-0.1,0.2-0.1c-0.1,0-0.1-0.1-0.2-0.1c-1.2-0.6-2.4-1.3-3.7-1.9c-0.1,0-0.1-0.1-0.2-0.1
		c-0.2-0.1-0.3-0.2-0.3-0.4c0-0.2,0.1-0.3,0.3-0.4c0.7-0.4,1.4-0.7,2.1-1.1c0.6-0.3,1.2-0.6,1.7-0.9c0.1,0,0.1-0.1,0.2-0.1
		c-0.1,0-0.1-0.1-0.2-0.1c-1.2-0.7-2.5-1.3-3.7-1.9c-0.2-0.1-0.3-0.2-0.3-0.4c0-0.2,0.2-0.3,0.3-0.4c3.4-1.8,6.8-3.6,10.2-5.3
		c0.2-0.1,0.4-0.1,0.6,0c1.1,0.6,2.2,1.2,3.4,1.7c0.3,0.2,0.4,0.4,0.3,0.6c-0.1,0.2-0.4,0.3-0.6,0.2c-0.8-0.4-1.5-0.8-2.3-1.2
		c-0.3-0.1-0.6-0.3-0.9-0.4c-0.1,0-0.2,0-0.2,0c-3.1,1.6-6.2,3.2-9.3,4.8c0,0,0,0-0.1,0c0.1,0,0.1,0.1,0.1,0.1
		c3.1,1.6,6.2,3.2,9.2,4.8c0.1,0.1,0.2,0,0.3,0c2.6-1.3,5.2-2.7,7.8-4c0.5-0.3,1-0.5,1.6-0.8c-0.3-0.2-0.6-0.3-0.8-0.4
		c-0.6-0.3-1.3-0.7-1.9-1c-0.1-0.1-0.3-0.2-0.3-0.3c0-0.1,0.1-0.3,0.2-0.4c0.1-0.1,0.3-0.1,0.5,0c0.5,0.3,1.1,0.6,1.6,0.8
		c0.6,0.3,1.1,0.6,1.7,0.9c0.2,0.1,0.3,0.2,0.4,0.3c0,0.1,0,0.2,0,0.3c-0.1,0.1-0.3,0.3-0.4,0.3c-1.2,0.6-2.5,1.3-3.7,1.9
		c-0.1,0-0.1,0.1-0.2,0.1c0.1,0.1,0.1,0.1,0.2,0.1c1.2,0.6,2.5,1.3,3.7,1.9c0.2,0.1,0.3,0.2,0.4,0.3c0,0.1,0,0.2,0,0.3
		c-0.1,0.1-0.3,0.3-0.4,0.3c-1.2,0.7-2.5,1.3-3.7,1.9c-0.1,0-0.1,0.1-0.2,0.1c0.1,0,0.1,0.1,0.2,0.1c1.2,0.6,2.5,1.3,3.7,1.9
		c0.2,0.1,0.3,0.2,0.4,0.3c0,0.1,0,0.2,0,0.3c-0.1,0.1-0.2,0.3-0.4,0.3c-2.4,1.3-4.9,2.5-7.3,3.8c-1,0.5-2.1,1.1-3.1,1.6
		C-670.7,61.7-670.8,61.7-670.9,61.7z M-680.2,55.8c0.1,0,0.1,0.1,0.1,0.1c3.1,1.6,6.1,3.2,9.2,4.8c0.1,0,0.2,0,0.3,0
		c3.1-1.6,6.2-3.2,9.2-4.8c0,0,0.1-0.1,0.1-0.1c-0.1,0-0.1-0.1-0.2-0.1c-1.2-0.6-2.3-1.2-3.5-1.8c-0.1-0.1-0.2-0.1-0.4,0
		c-1.7,0.9-3.4,1.8-5.1,2.7c-0.2,0.1-0.4,0.1-0.7,0c-1.7-0.9-3.4-1.8-5.1-2.7c-0.1-0.1-0.2-0.1-0.3,0c-1.2,0.6-2.3,1.2-3.5,1.8
		C-680.1,55.7-680.2,55.8-680.2,55.8z M-661.2,50.8c-0.5-0.3-1-0.5-1.5-0.8c-0.1-0.1-0.2-0.1-0.4,0c-2.5,1.3-5,2.6-7.6,4
		c-0.6,0.3-1.1,0.6-1.7,0.9c0.1,0,0.1,0.1,0.2,0.1c0.4,0.2,0.8,0.4,1.2,0.6c0.2,0.1,0.4,0.1,0.6,0c1.9-1,3.9-2,5.9-3
		C-663.5,52-662.4,51.4-661.2,50.8z M-663.8,49.4c-0.4-0.2-0.7-0.4-1.1-0.6c-0.1-0.1-0.2-0.1-0.3,0c-1.7,0.9-3.4,1.8-5.1,2.7
		c-0.2,0.1-0.4,0.2-0.6,0c-0.1-0.1-0.2,0-0.3,0c-1,0.5-1.9,1-2.9,1.5c-0.3,0.1-0.5,0.3-0.8,0.4c0.5,0.3,1,0.5,1.5,0.8
		c0.1,0.1,0.2,0.1,0.4,0c2.6-1.4,5.3-2.7,7.9-4.1C-664.8,49.9-664.3,49.7-663.8,49.4z M-674.7,49.6c-0.6-0.3-1.1-0.6-1.6-0.8
		c-0.1,0-0.1,0-0.2,0c-1.2,0.6-2.4,1.2-3.6,1.9c0,0-0.1,0.1-0.2,0.1c0.4,0.2,0.8,0.4,1.1,0.6c0.4,0.3,0.7,0.2,1.1,0
		C-676.9,50.8-675.8,50.2-674.7,49.6z M-677.6,52.1c0.1,0,0.1,0.1,0.2,0.1c0.4,0.2,0.9,0.5,1.3,0.7c0.1,0.1,0.2,0.1,0.4,0
		c1.2-0.6,2.4-1.2,3.5-1.8c0.1,0,0.1-0.1,0.2-0.1c-0.5-0.3-1.1-0.6-1.6-0.8c-0.1,0-0.2,0-0.2,0c-0.7,0.4-1.4,0.7-2.1,1.1
		C-676.5,51.6-677.1,51.8-677.6,52.1z"/>
	<path class="st1" d="M-665.1,43c0,0.2-0.2,0.4-0.4,0.4c-0.2,0-0.4-0.2-0.4-0.4c0-0.2,0.2-0.4,0.4-0.4
		C-665.3,42.6-665.1,42.8-665.1,43z"/>
</g>
<circle class="st0" cx="-586" cy="50.6" r="27.4"/>
<g>
	<path class="st1" d="M-585.6,61.5c0-0.1,0-0.2,0-0.3c0-0.4,0-0.9,0-1.3c0-0.2-0.1-0.4-0.3-0.5c-0.3-0.1-0.5,0.1-0.5,0.5
		c0,0.5,0,1.1,0,1.7c-0.4-0.2-0.8-0.4-1.3-0.6c-0.3-0.1-0.5-0.1-0.6,0.2c-0.1,0.2,0,0.5,0.3,0.6c0.6,0.3,1.2,0.6,1.8,0.9
		c0.1,0.1,0.3,0.1,0.4,0c0.7-0.3,1.4-0.6,2-1c0.2-0.1,0.3-0.3,0.2-0.5c-0.1-0.2-0.3-0.3-0.5-0.2c-0.1,0-0.1,0.1-0.2,0.1
		C-584.8,61.2-585.2,61.3-585.6,61.5z"/>
	<path class="st1" d="M-597.3,56c0-0.6,0-1.1,0-1.6c0-0.3-0.2-0.5-0.4-0.5c-0.3,0-0.4,0.2-0.4,0.5c0,0.7,0,1.4,0,2.1
		c0,0.2,0,0.4,0.3,0.6c0.7,0.3,1.3,0.6,2,0.9c0.3,0.1,0.6-0.1,0.6-0.4c0-0.2-0.1-0.3-0.3-0.4c-0.3-0.2-0.7-0.3-1-0.5
		c0.4-0.2,0.8-0.3,1.1-0.5c0.1-0.1,0.2-0.3,0.2-0.4c0-0.1-0.2-0.3-0.3-0.4c-0.1,0-0.3,0-0.4,0.1C-596.4,55.6-596.8,55.8-597.3,56z"
		/>
	<path class="st1" d="M-574.8,56c-0.1-0.1-0.3-0.1-0.4-0.2c-0.3-0.2-0.7-0.3-1-0.5c-0.2-0.1-0.5,0-0.6,0.2c-0.1,0.2,0,0.4,0.2,0.6
		c0.2,0.1,0.4,0.2,0.5,0.3c0.2,0.1,0.4,0.2,0.6,0.3c-0.4,0.2-0.7,0.4-1.1,0.5c-0.3,0.1-0.3,0.3-0.2,0.6c0.1,0.2,0.4,0.3,0.6,0.2
		c0.6-0.3,1.1-0.6,1.7-0.8c0.3-0.1,0.4-0.4,0.4-0.7c0-0.7,0-1.3,0-2c0-0.3-0.2-0.5-0.4-0.5c-0.3,0-0.4,0.2-0.4,0.5
		C-574.8,55-574.8,55.4-574.8,56z"/>
	<path class="st1" d="M-586.4,39.7c0,0.1,0,0.2,0,0.3c0,0.4,0,0.8,0,1.2c0,0.2,0.1,0.4,0.4,0.4c0.2,0,0.4-0.1,0.5-0.3
		c0-0.1,0-0.2,0-0.3c0-0.4,0-0.9,0-1.3c0.4,0.2,0.9,0.4,1.3,0.6c0.3,0.1,0.5,0.1,0.6-0.2c0.1-0.2,0-0.5-0.3-0.6
		c-0.6-0.3-1.2-0.6-1.8-0.9c-0.1-0.1-0.3-0.1-0.4,0c-0.7,0.3-1.3,0.6-2,1c-0.2,0.1-0.3,0.4-0.2,0.6c0.1,0.2,0.3,0.3,0.5,0.2
		c0.1,0,0.2-0.1,0.3-0.1C-587.2,40.1-586.8,39.9-586.4,39.7z"/>
	<path class="st1" d="M-574.8,45.3c0,0.5,0,1,0,1.4c0,0.3,0.2,0.5,0.4,0.5c0.3,0,0.4-0.2,0.4-0.5c0-0.7,0-1.4,0-2
		c0-0.2-0.1-0.4-0.3-0.4c-0.6-0.3-1.2-0.6-1.8-0.9c-0.3-0.1-0.6-0.1-0.7,0.2c-0.1,0.2,0,0.5,0.3,0.6c0.3,0.2,0.7,0.3,1,0.5
		c-0.4,0.2-0.7,0.3-1,0.5c-0.3,0.1-0.4,0.4-0.3,0.6c0.1,0.2,0.4,0.3,0.7,0.2C-575.6,45.7-575.2,45.5-574.8,45.3z"/>
	<path class="st1" d="M-596.6,44.6c0.4-0.2,0.7-0.3,1-0.5c0.3-0.2,0.4-0.4,0.3-0.6c-0.1-0.3-0.4-0.3-0.7-0.2
		c-0.6,0.3-1.2,0.6-1.8,0.9c-0.2,0.1-0.3,0.2-0.3,0.4c0,0.7,0,1.4,0,2.1c0,0.2,0.1,0.4,0.4,0.4c0.3,0.1,0.5-0.1,0.5-0.4
		c0-0.5,0-0.9,0-1.5c0.5,0.2,0.9,0.4,1.3,0.6c0.3,0.1,0.5,0.1,0.7-0.2c0.1-0.2,0-0.5-0.3-0.6C-595.9,44.9-596.3,44.8-596.6,44.6z"/>
	<path class="st1" d="M-581.5,40.8c-0.2,0-0.4,0.1-0.4,0.3c-0.1,0.2,0.1,0.4,0.3,0.5c0.8,0.4,1.6,0.8,2.5,1.2c0.1,0,0.2,0.1,0.3,0.1
		c0.1-0.1,0.3-0.2,0.3-0.3c0.1-0.2-0.1-0.4-0.3-0.5c-0.8-0.4-1.7-0.8-2.5-1.2C-581.3,40.8-581.4,40.8-581.5,40.8z"/>
	<path class="st1" d="M-578.5,58.9c0-0.4-0.3-0.6-0.6-0.5c-0.9,0.4-1.7,0.8-2.6,1.2c-0.2,0.1-0.3,0.3-0.2,0.6
		c0.1,0.2,0.3,0.3,0.6,0.2c0.8-0.4,1.7-0.8,2.5-1.2C-578.6,59.2-578.5,59-578.5,58.9z"/>
	<path class="st1" d="M-593.2,42.9c0.1,0,0.2-0.1,0.3-0.1c0.8-0.4,1.7-0.8,2.5-1.2c0,0,0,0,0,0c0.2-0.1,0.3-0.4,0.2-0.6
		c-0.1-0.2-0.3-0.3-0.6-0.2c-0.7,0.3-1.5,0.7-2.2,1c-0.1,0.1-0.3,0.1-0.4,0.2c-0.2,0.1-0.2,0.3-0.2,0.5
		C-593.5,42.7-593.3,42.8-593.2,42.9z"/>
	<path class="st1" d="M-593.2,58.4c-0.1,0.1-0.3,0.2-0.3,0.4c-0.1,0.2,0,0.4,0.2,0.5c0.9,0.4,1.7,0.8,2.6,1.2c0.2,0.1,0.5,0,0.6-0.2
		c0.1-0.2,0-0.5-0.3-0.6c-0.8-0.4-1.6-0.8-2.5-1.2C-593,58.4-593,58.4-593.2,58.4z"/>
	<path class="st1" d="M-597.3,50.6c0-0.4,0-0.8,0-1.2c0-0.3-0.2-0.5-0.4-0.5c-0.2,0-0.4,0.2-0.4,0.5c0,0.8,0,1.6,0,2.4
		c0,0.3,0.2,0.5,0.4,0.5c0.3,0,0.4-0.2,0.4-0.5C-597.2,51.4-597.3,51-597.3,50.6z"/>
	<path class="st1" d="M-574.8,50.6c0,0.4,0,0.8,0,1.2c0,0.3,0.2,0.5,0.4,0.5c0.3,0,0.4-0.2,0.4-0.5c0-0.8,0-1.6,0-2.4
		c0-0.3-0.2-0.5-0.4-0.5c-0.2,0-0.4,0.2-0.4,0.5C-574.8,49.8-574.8,50.2-574.8,50.6z"/>
	<path class="st1" d="M-591.9,50.6c0-0.9,0-1.7,0-2.6c0-0.2-0.1-0.3-0.2-0.3c-0.4-0.2-0.9-0.4-1.3-0.6c-0.3-0.1-0.4-0.4-0.3-0.6
		c0.1-0.2,0.4-0.3,0.6-0.2c0.4,0.2,0.8,0.4,1.2,0.6c0.1,0,0.3,0.1,0.4,0c1.6-0.7,3.2-1.5,4.8-2.3c0.2-0.1,0.2-0.2,0.2-0.4
		c0-0.5,0-1.1,0-1.6c0-0.3,0.2-0.5,0.4-0.5c0.3,0,0.4,0.2,0.4,0.5c0,0.5,0,1.1,0,1.6c0,0.2,0,0.2,0.2,0.3c1.6,0.8,3.2,1.5,4.8,2.3
		c0.1,0,0.2,0,0.3,0c0.5-0.2,0.9-0.4,1.3-0.6c0.3-0.2,0.6-0.1,0.7,0.1c0.1,0.3,0,0.5-0.3,0.6c-0.5,0.2-1,0.5-1.5,0.7
		c-0.1,0.1-0.2,0.1-0.2,0.3c0,1.7,0,3.5,0,5.2c0,0.2,0.1,0.2,0.2,0.3c0.4,0.2,0.9,0.4,1.3,0.6c0.4,0.2,0.5,0.4,0.4,0.7
		c-0.1,0.3-0.4,0.3-0.7,0.1c-0.4-0.2-0.8-0.4-1.2-0.6c-0.1,0-0.3-0.1-0.4,0c-1.6,0.7-3.2,1.5-4.8,2.3c-0.2,0.1-0.2,0.2-0.2,0.3
		c0,0.4,0,0.8,0,1.1c0,0.3-0.2,0.5-0.4,0.5c-0.3,0-0.4-0.2-0.4-0.5c0-0.4,0-0.8,0-1.2c0-0.2,0-0.2-0.2-0.3c-1.6-0.8-3.2-1.5-4.8-2.3
		c-0.1,0-0.2,0-0.3,0c-0.4,0.2-0.8,0.4-1.2,0.6c-0.4,0.2-0.6,0.1-0.7-0.1c-0.1-0.3,0-0.5,0.4-0.6c0.4-0.2,0.8-0.4,1.3-0.6
		c0.1-0.1,0.2-0.1,0.2-0.3C-591.9,52.4-591.9,51.5-591.9,50.6z M-585.6,55.8c0.1-0.1,0.2-0.1,0.3-0.1c1.3-0.6,2.7-1.3,4-1.9
		c0.2-0.1,0.2-0.2,0.2-0.4c0-1.6,0-3.2,0-4.8c0-0.1,0-0.2,0-0.2c-0.1,0-0.1,0-0.1,0c-1.4,0.7-2.9,1.4-4.3,2.1
		c-0.1,0-0.1,0.2-0.1,0.3c0,0.8,0,1.6,0,2.4C-585.6,53.9-585.6,54.8-585.6,55.8z M-591,48.2c0,1.7,0,3.4,0,5.1
		c0,0.2,0.1,0.3,0.3,0.4c1.4,0.6,2.7,1.3,4.1,1.9c0.1,0,0.1,0.1,0.2,0.1c0-1.8,0-3.5,0-5.2c0-0.1-0.1-0.2-0.2-0.2
		c-0.7-0.3-1.4-0.7-2.1-1C-589.5,49-590.2,48.6-591,48.2z M-581.4,47.5c-0.1,0-0.1-0.1-0.1-0.1c-1.4-0.7-2.9-1.4-4.3-2
		c-0.1,0-0.2,0-0.3,0c-1.4,0.7-2.8,1.3-4.2,2c-0.1,0-0.1,0.1-0.2,0.1c1.5,0.7,3,1.4,4.4,2.1c0.1,0,0.2,0,0.3,0
		c0.5-0.2,0.9-0.4,1.4-0.7C-583.4,48.4-582.5,48-581.4,47.5z"/>
	<path class="st1" d="M-585.6,61.5c0.4-0.2,0.8-0.4,1.1-0.5c0.1,0,0.1-0.1,0.2-0.1c0.2-0.1,0.4,0,0.5,0.2c0.1,0.2,0.1,0.4-0.2,0.5
		c-0.7,0.3-1.3,0.7-2,1c-0.1,0-0.3,0-0.4,0c-0.6-0.3-1.2-0.6-1.8-0.9c-0.3-0.1-0.4-0.4-0.3-0.6c0.1-0.2,0.3-0.3,0.6-0.2
		c0.4,0.2,0.8,0.4,1.3,0.6c0-0.6,0-1.1,0-1.7c0-0.3,0.2-0.5,0.5-0.5c0.2,0.1,0.3,0.2,0.3,0.5c0,0.4,0,0.9,0,1.3
		C-585.6,61.3-585.6,61.4-585.6,61.5z"/>
	<path class="st1" d="M-597.3,56c0.5-0.2,0.9-0.4,1.3-0.6c0.1-0.1,0.3-0.1,0.4-0.1c0.1,0.1,0.3,0.2,0.3,0.4c0,0.1-0.1,0.3-0.2,0.4
		c-0.3,0.2-0.7,0.4-1.1,0.5c0.4,0.2,0.7,0.3,1,0.5c0.2,0.1,0.3,0.2,0.3,0.4c0,0.3-0.3,0.5-0.6,0.4c-0.7-0.3-1.3-0.6-2-0.9
		c-0.2-0.1-0.3-0.3-0.3-0.6c0-0.7,0-1.4,0-2.1c0-0.3,0.2-0.5,0.4-0.5c0.2,0,0.4,0.2,0.4,0.5C-597.2,54.9-597.3,55.4-597.3,56z"/>
	<path class="st1" d="M-574.8,56c0-0.5,0-1,0-1.5c0-0.3,0.2-0.5,0.4-0.5c0.3,0,0.4,0.2,0.4,0.5c0,0.7,0,1.3,0,2
		c0,0.3-0.1,0.5-0.4,0.7c-0.6,0.3-1.1,0.5-1.7,0.8c-0.3,0.1-0.5,0.1-0.6-0.2c-0.1-0.2,0-0.4,0.2-0.6c0.3-0.2,0.7-0.3,1.1-0.5
		c-0.2-0.1-0.4-0.2-0.6-0.3c-0.2-0.1-0.4-0.2-0.5-0.3c-0.2-0.1-0.3-0.3-0.2-0.6c0.1-0.2,0.3-0.3,0.6-0.2c0.3,0.1,0.7,0.3,1,0.5
		C-575,55.9-574.9,55.9-574.8,56z"/>
	<path class="st1" d="M-586.4,39.7c-0.4,0.2-0.7,0.3-1.1,0.5c-0.1,0-0.2,0.1-0.3,0.1c-0.2,0.1-0.4,0-0.5-0.2c-0.1-0.2,0-0.5,0.2-0.6
		c0.7-0.3,1.3-0.7,2-1c0.1,0,0.3,0,0.4,0c0.6,0.3,1.2,0.6,1.8,0.9c0.3,0.1,0.4,0.4,0.3,0.6c-0.1,0.2-0.4,0.3-0.6,0.2
		c-0.4-0.2-0.8-0.4-1.3-0.6c0,0.5,0,0.9,0,1.3c0,0.1,0,0.2,0,0.3c-0.1,0.2-0.2,0.4-0.5,0.3c-0.2,0-0.4-0.2-0.4-0.4
		c0-0.4,0-0.8,0-1.2C-586.5,40-586.4,39.9-586.4,39.7z"/>
	<path class="st1" d="M-574.8,45.3c-0.5,0.2-0.9,0.4-1.3,0.6c-0.3,0.1-0.5,0.1-0.7-0.2c-0.1-0.2,0-0.5,0.3-0.6
		c0.3-0.2,0.7-0.3,1-0.5c-0.4-0.2-0.7-0.3-1-0.5c-0.3-0.1-0.4-0.4-0.3-0.6c0.1-0.2,0.4-0.3,0.7-0.2c0.6,0.3,1.2,0.6,1.8,0.9
		c0.2,0.1,0.3,0.2,0.3,0.4c0,0.7,0,1.4,0,2c0,0.3-0.2,0.5-0.4,0.5c-0.2,0-0.4-0.2-0.4-0.5C-574.8,46.2-574.8,45.8-574.8,45.3z"/>
	<path class="st1" d="M-596.6,44.6c0.4,0.2,0.7,0.3,1,0.5c0.3,0.1,0.4,0.4,0.3,0.6c-0.1,0.2-0.4,0.3-0.7,0.2
		c-0.4-0.2-0.8-0.4-1.3-0.6c0,0.5,0,1,0,1.5c0,0.3-0.2,0.5-0.5,0.4c-0.2-0.1-0.3-0.2-0.4-0.4c0-0.7,0-1.4,0-2.1
		c0-0.2,0.1-0.4,0.3-0.4c0.6-0.3,1.2-0.6,1.8-0.9c0.3-0.2,0.6-0.1,0.7,0.2c0.1,0.2,0,0.5-0.3,0.6C-595.9,44.3-596.3,44.4-596.6,44.6
		z"/>
	<path class="st1" d="M-581.5,40.8c0,0,0.1,0,0.2,0.1c0.8,0.4,1.7,0.8,2.5,1.2c0.2,0.1,0.3,0.3,0.3,0.5c0,0.1-0.2,0.3-0.3,0.3
		c-0.1,0-0.2,0-0.3-0.1c-0.8-0.4-1.6-0.8-2.5-1.2c-0.2-0.1-0.3-0.3-0.3-0.5C-581.8,40.9-581.7,40.8-581.5,40.8z"/>
	<path class="st1" d="M-578.5,58.9c-0.1,0.1-0.1,0.2-0.3,0.3c-0.8,0.4-1.7,0.8-2.5,1.2c-0.2,0.1-0.5,0-0.6-0.2
		c-0.1-0.2,0-0.4,0.2-0.6c0.9-0.4,1.7-0.8,2.6-1.2C-578.8,58.3-578.5,58.5-578.5,58.9z"/>
	<path class="st1" d="M-593.2,42.9c-0.1-0.1-0.3-0.2-0.3-0.3c-0.1-0.2,0-0.4,0.2-0.5c0.1-0.1,0.3-0.1,0.4-0.2c0.7-0.4,1.5-0.7,2.2-1
		c0.3-0.1,0.5,0,0.6,0.2c0.1,0.2,0,0.4-0.2,0.6c0,0,0,0,0,0c-0.8,0.4-1.7,0.8-2.5,1.2C-593,42.8-593.1,42.9-593.2,42.9z"/>
	<path class="st1" d="M-593.2,58.4c0.2,0.1,0.2,0.1,0.3,0.1c0.8,0.4,1.6,0.8,2.5,1.2c0.3,0.1,0.4,0.4,0.3,0.6
		c-0.1,0.2-0.3,0.3-0.6,0.2c-0.9-0.4-1.7-0.8-2.6-1.2c-0.2-0.1-0.3-0.3-0.2-0.5C-593.5,58.6-593.3,58.5-593.2,58.4z"/>
	<path class="st1" d="M-597.3,50.6c0,0.4,0,0.8,0,1.2c0,0.3-0.2,0.5-0.4,0.5c-0.3,0-0.4-0.2-0.4-0.5c0-0.8,0-1.6,0-2.4
		c0-0.3,0.2-0.5,0.4-0.5c0.3,0,0.4,0.2,0.4,0.5C-597.2,49.8-597.3,50.2-597.3,50.6z"/>
	<path class="st1" d="M-574.8,50.6c0-0.4,0-0.8,0-1.2c0-0.3,0.2-0.5,0.4-0.5c0.3,0,0.4,0.2,0.4,0.5c0,0.8,0,1.6,0,2.4
		c0,0.3-0.2,0.5-0.4,0.5c-0.3,0-0.4-0.2-0.4-0.5C-574.8,51.4-574.8,51-574.8,50.6z"/>
</g>
<g>
	<circle class="st0" cx="-498.5" cy="50.1" r="27.4"/>
	<g>
		<path class="st1" d="M-500.9,35.9c0.3,0,0.7,0,1,0c0.1,0,0.1,0,0.2,0c0.6,0.1,1.1,0.3,1.7,0.6c1.4,0.9,2.2,2.2,2.2,3.9
			c0,6.5,0,13,0,19.5c0,0.8,0.5,1.5,1.3,1.5c0.7,0,1.4,0,2.1,0c0.6,0,1.1-0.5,1.2-0.9c-0.1,0-0.1,0-0.2,0c-0.5,0-0.6-0.2-0.6-0.6
			c0-0.1,0-0.2,0-0.4c0-0.6,0-1.2,0-1.9c-0.3,0-0.6,0-0.8,0c-0.4,0-0.6-0.2-0.6-0.6c0-0.6,0-1.2,0-1.8c0-0.1-0.1-0.3-0.2-0.4
			c-0.3-0.3-0.6-0.7-1-1c-0.2-0.2-0.3-0.4-0.3-0.6c0-2.3,0-4.7,0-7c0-1,0-2.1,0-3.1c0-0.5,0.2-0.6,0.6-0.6c0.1,0,0.2,0,0.3,0
			c0-0.1,0-0.2,0-0.4c0-1.9,0-3.8,0-5.6c0-0.3,0.1-0.5,0.3-0.6c2.6,0,5.2,0,7.9,0c0.3,0.2,0.3,0.4,0.3,0.7c0,1.9,0,3.7,0,5.6
			c0,0.1,0,0.2,0,0.3c0.1,0,0.2,0,0.3,0c0.4,0,0.6,0.2,0.6,0.6c0,3.4,0,6.8,0,10.1c0,0.2-0.1,0.4-0.2,0.6c-0.3,0.4-0.7,0.7-1,1.1
			c-0.1,0.1-0.1,0.2-0.1,0.4c0,0.6,0,1.2,0,1.7c0,0.5-0.1,0.7-0.7,0.7c-0.2,0-0.5,0-0.7,0c0,0.1,0,0.2,0,0.2c0,0.7,0,1.3,0,2
			c0,0.4-0.2,0.6-0.6,0.6c-0.1,0-0.3,0-0.4,0c0,0.1,0,0.2-0.1,0.3c-0.3,1.6-1.6,3-3.2,3.4c-1.1,0.2-2.2,0.1-3.3,0.1
			c-0.3,0-0.5-0.1-0.8-0.2c-1.8-0.6-3-2.2-3-4.1c0-6.4,0-12.8,0-19.3c0-0.1,0-0.2,0-0.3c-0.1-0.7-0.4-1.2-1-1.5
			c-0.6-0.3-1.2-0.2-1.7,0.3c-0.4,0.4-0.6,0.8-0.6,1.4c0,6.5,0,13,0,19.5c0,3.1-3.1,5.2-5.9,3.9c-1.7-0.7-2.6-2.1-2.6-4
			c0-2.2,0-4.5,0-6.7c0-0.1,0-0.2,0-0.3c-0.1,0-0.1,0-0.2,0c-0.6,0-0.7-0.1-0.7-0.7c0-0.4,0-0.7,0-1.1c-0.1,0-0.1,0-0.2,0
			c-0.6,0-0.7-0.1-0.7-0.8c0-1.9,0-3.8,0-5.7c0-0.8,0-1.6,0-2.4c0-0.2,0-0.5,0.3-0.5c0.2-0.1,0.2-0.2,0.2-0.3c0-1.6,0-3.2,0-4.8
			c0-0.3,0.1-0.5,0.3-0.6c1.7,0,3.3,0,5,0c0.3,0.1,0.4,0.3,0.3,0.6c0,0.2,0,0.5,0,0.7c0,1.4,0,2.7,0,4.1c0,0.1,0.1,0.2,0.1,0.3
			c0.3,0.1,0.4,0.3,0.4,0.6c0,2.7,0,5.5,0,8.2c0,0,0,0.1,0,0.1c0,0.3-0.2,0.5-0.5,0.5c-0.1,0-0.3,0-0.4,0c0,0.5,0,0.9,0,1.3
			c0,0.4-0.2,0.5-0.5,0.6c-0.1,0-0.3,0-0.4,0c0,0.1,0,0.3,0,0.4c0,2.2,0,4.3,0,6.5c0,0.1,0,0.2,0,0.3c0,0.7,0.6,1.2,1.3,1.3
			c0.6,0.1,1.3-0.4,1.5-1c0.1-0.2,0.1-0.4,0.1-0.6c0-6.4,0-12.9,0-19.3c0-2.1,1.3-3.8,3.2-4.4C-501.5,36-501.2,35.9-500.9,35.9z
			 M-487,56.7c0-0.6,0-1.2,0-1.7c0-0.2,0.1-0.4,0.2-0.6c0.3-0.4,0.7-0.7,1-1c0.1-0.1,0.2-0.3,0.2-0.5c0-3,0-6.1,0-9.1
			c0-0.1,0-0.2,0-0.3c-2.9,0-5.7,0-8.5,0c0,0.1,0,0.2,0,0.4c0,2.7,0,5.4,0,8.1c0,0.4-0.1,0.9,0,1.3c0.1,0.4,0.5,0.6,0.8,0.9
			c0.4,0.3,0.6,0.8,0.5,1.3c0,0.4,0,0.9,0,1.3C-490.7,56.7-488.9,56.7-487,56.7z M-509.7,52.9c0,0.1,0,0.2,0,0.4c0,1.8,0,3.6,0,5.4
			c0,0.5,0,1.1,0,1.6c0.1,1.6,1.5,3,3.2,3c1.9,0.1,3.4-1.4,3.4-3.4c0-4.7,0-9.5,0-14.2c0-1.8,0-3.7,0-5.5c0-1.6,1.6-2.8,3.2-2.4
			c1.2,0.3,2,1.3,2,2.7c0,4.5,0,9,0,13.4c0,2,0,4.1,0,6.1c0,1.6,1.2,3,2.8,3.2c0.9,0.1,1.8,0.1,2.7,0c0.6,0,1.1-0.2,1.6-0.6
			c0.8-0.5,1.2-1.3,1.4-2.2c-0.3,0-0.5,0-0.7,0c-0.2,0-0.2,0.1-0.3,0.2c-0.3,0.9-0.9,1.5-1.9,1.6c-0.8,0.1-1.7,0-2.5,0
			c-0.1,0-0.2,0-0.3-0.1c-1.1-0.3-1.8-1.2-1.8-2.4c0-6.4,0-12.8,0-19.2c0-0.1,0-0.3,0-0.4c-0.1-2.2-2.1-3.8-4.3-3.4
			c-1.7,0.4-2.8,1.8-2.8,3.5c0,6.4,0,12.9,0,19.3c0,0.1,0,0.3,0,0.4c-0.1,1.6-1.6,2.6-3.1,2.2c-1-0.3-1.7-1.2-1.7-2.4
			c0-2.2,0-4.4,0-6.6c0-0.1,0-0.2,0-0.4C-509,52.9-509.3,52.9-509.7,52.9z M-506.8,50.1c0-2.5,0-5,0-7.5c-1.6,0-3.1,0-4.7,0
			c0,2.5,0,5,0,7.5C-510,50.1-508.4,50.1-506.8,50.1z M-486.5,36.8c-2.2,0-4.4,0-6.6,0c0,1.9,0,3.8,0,5.6c2.2,0,4.4,0,6.6,0
			C-486.5,40.6-486.5,38.7-486.5,36.8z M-507.3,36.8c-0.6,0-1.2,0-1.9,0c0,0.3,0,0.6,0,0.9c0.2,0,0.3,0,0.4,0c0.3,0,0.5,0.2,0.5,0.5
			c0,0.6,0,1.2,0,1.9c0,0.3-0.2,0.5-0.5,0.5c-0.2,0-0.3,0-0.5,0c0,0.3,0,0.6,0,0.9c0.6,0,1.2,0,1.9,0
			C-507.3,40-507.3,38.4-507.3,36.8z M-510.1,41.5c0-0.5,0-0.9,0-1.3c0-0.3,0.2-0.5,0.5-0.5c0.1,0,0.3,0,0.4,0c0-0.2,0-0.3,0-0.5
			c0-0.2,0-0.3,0-0.5c-0.1,0-0.1,0-0.2,0c-0.6,0.1-0.8-0.2-0.8-0.8c0-0.4,0-0.7,0-1.1c-0.3,0-0.6,0-0.9,0c0,1.6,0,3.1,0,4.7
			C-510.8,41.5-510.5,41.5-510.1,41.5z M-491.2,59.5c0.9,0,1.9,0,2.8,0c0-0.6,0-1.2,0-1.9c-0.9,0-1.9,0-2.8,0
			C-491.2,58.3-491.2,58.9-491.2,59.5z M-510.6,51.9c1,0,1.9,0,2.8,0c0-0.3,0-0.6,0-0.9c-0.9,0-1.7,0-2.5,0c-0.1,0-0.2,0-0.3,0
			C-510.6,51.3-510.6,51.6-510.6,51.9z"/>
		<path class="st1" d="M-493.1,46.3c0.3,0,0.6,0,0.9,0c0,0.6,0.1,1.2,0,1.7c-0.1,0.6,0.1,0.9,0.7,1.1c0.4,0.1,0.7,0.4,1.1,0.5
			c0,0,0,0,0.1,0c0-1.6,0-3.2,0-4.8c0.3,0,0.6,0,0.9,0c0,1.2,0,2.3,0,3.5c0.5-0.2,0.9-0.4,1.3-0.5c0.1,0,0.1-0.1,0.1-0.2
			c0-0.4,0-0.9,0-1.3c0.3,0,0.6,0,0.9,0c0,0.6,0,1.3,0,1.9c0,0.2-0.2,0.3-0.4,0.4c-0.6,0.2-1.2,0.5-1.7,0.7
			c-0.2,0.1-0.2,0.1-0.2,0.3c0,0.6,0,1.1,0,1.7c0,0.1,0.1,0.2,0.2,0.3c0.6,0.4,0.9,1,0.7,1.7c-0.2,0.6-0.8,1.1-1.5,1
			c-0.7-0.1-1.2-0.6-1.3-1.3c-0.1-0.5,0.2-1.1,0.7-1.4c0.3-0.2,0.1-0.4,0.2-0.6c0-0.2-0.1-0.3-0.2-0.3c-0.7-0.4-1.5-0.7-2.2-1.1
			c-0.3-0.1-0.4-0.3-0.4-0.6C-493.1,48.1-493.1,47.2-493.1,46.3z M-489.8,52.4c-0.3,0-0.5,0.2-0.5,0.5c0,0.2,0.2,0.5,0.5,0.5
			c0.3,0,0.5-0.2,0.5-0.5C-489.3,52.6-489.5,52.4-489.8,52.4z"/>
		<path class="st2" d="M-487.4,39.2c0,0.3,0,0.6,0,0.9c-0.6,0-1.2,0-1.9,0c0-0.3,0-0.6,0-0.9C-488.7,39.2-488.1,39.2-487.4,39.2z"/>
		<path class="st2" d="M-492.2,40.1c0-0.3,0-0.6,0-0.9c0.6,0,1.2,0,1.9,0c0,0.3,0,0.6,0,0.9C-490.9,40.1-491.5,40.1-492.2,40.1z"/>
	</g>
</g>
<g>
	<g>
		<circle class="st0" cx="-431.1" cy="50.2" r="27.4"/>
	</g>
	<g>
		<path class="st1" d="M-429.5,57.6c0.3-0.1,0.5-0.2,0.6-0.3c1.4-0.8,2.9-1.7,4.3-2.5c0.6-0.4,1.3-0.7,2-0.8c0.9-0.1,1.7,0.4,2,1.2
			c0.3,0.9,0,1.8-0.8,2.3c-2.6,1.6-5.3,3.2-7.9,4.9c-1,0.6-2,0.8-3.1,0.5c-1.7-0.5-3.4-0.9-5-1.4c-0.5-0.1-0.9,0-1.2,0.3
			c0.1,0.2,0.2,0.4,0.3,0.6c0.3,0.6,0.1,1.2-0.4,1.5c-0.4,0.3-0.9,0.5-1.3,0.7c-0.6,0.3-1.2,0.1-1.5-0.4c-1.2-2.2-2.5-4.4-3.7-6.6
			c-0.3-0.6-0.1-1.2,0.4-1.5c0.4-0.2,0.8-0.5,1.2-0.7c0.6-0.3,1.2-0.2,1.6,0.5c0.1,0.1,0.2,0.3,0.3,0.4c0.4-0.2,0.7-0.4,1.1-0.6
			c0.8-0.5,1.7-1,2.5-1.4c0.8-0.5,1.7-0.8,2.7-0.5c0.9,0.2,1.7,0.6,2.5,0.9c0.7,0.2,1.4,0.4,2.1,0.6c1.1,0.3,1.7,1.2,1.4,2.3
			C-429.4,57.4-429.5,57.5-429.5,57.6z M-439,60.8c0.2-0.1,0.5-0.2,0.7-0.4c0.2-0.2,0.5-0.2,0.7-0.1c1.8,0.5,3.6,1,5.4,1.5
			c1,0.3,1.8,0.1,2.7-0.4c2.6-1.6,5.1-3.2,7.7-4.8c0.4-0.3,0.6-0.7,0.4-1.2c-0.1-0.4-0.5-0.6-1-0.5c-0.6,0.1-1.1,0.3-1.6,0.6
			c-1.5,0.9-2.9,1.7-4.4,2.6c-0.7,0.4-1.4,0.6-2.2,0.5c-0.6-0.1-1.1-0.2-1.7-0.3c-0.7-0.2-1.4-0.4-2.1-0.5c-0.3-0.1-0.4-0.3-0.4-0.6
			c0.1-0.2,0.3-0.4,0.6-0.3c0.1,0,0.2,0.1,0.3,0.1c0.9,0.2,1.8,0.5,2.7,0.7c0.5,0.1,0.9-0.2,1-0.6c0.1-0.4-0.2-0.8-0.6-1
			c-0.2-0.1-0.4-0.1-0.6-0.1c-1.3-0.4-2.6-0.8-3.8-1.2c-0.5-0.2-1-0.2-1.5,0c-0.3,0.1-0.6,0.3-0.9,0.4c-1.1,0.6-2.1,1.2-3.2,1.9
			c-0.1,0-0.1,0.1-0.2,0.1C-440.4,58.3-439.7,59.6-439,60.8z M-439,62.8c0-0.1-0.1-0.1-0.1-0.2c-1.2-2.1-2.4-4.3-3.6-6.4
			c-0.1-0.2-0.2-0.2-0.4-0.1c-0.3,0.2-0.7,0.4-1,0.6c-0.3,0.2-0.3,0.2-0.1,0.5c0.5,0.8,0.9,1.7,1.4,2.5c0.7,1.3,1.4,2.5,2.1,3.8
			c0.1,0.1,0.2,0.3,0.4,0.2c0.4-0.2,0.8-0.4,1.2-0.7C-439.1,63-439,62.9-439,62.8z"/>
		<path class="st1" d="M-421.2,49.4c0.1-0.8,0.1-1.6-0.1-2.4c-0.9-4.2-3.3-6.8-7.4-8c-0.4-0.1-0.9-0.2-1.3-0.2
			c-0.5-0.1-0.6-0.2-0.6-0.7c0-0.6,0-1.2,0-1.9c0-0.5,0.2-0.6,0.7-0.6c5.8,0.4,10.7,4.8,11.7,10.5c0.2,0.9,0.2,1.9,0.2,2.8
			c0,0.1,0,0.2,0,0.4c0.2,0,0.3,0,0.4,0c0.3,0,0.5,0.1,0.7,0.4c0.1,0.3,0.1,0.5-0.1,0.8c-0.6,0.8-1.3,1.6-1.9,2.4
			c-0.3,0.4-0.8,0.4-1.2,0c-0.6-0.8-1.3-1.6-1.9-2.4c-0.2-0.2-0.2-0.5-0.1-0.8c0.1-0.3,0.4-0.4,0.6-0.4
			C-421.4,49.4-421.3,49.4-421.2,49.4z M-418,50.4c-0.2,0-0.2,0-0.3,0c-0.6,0-0.7-0.1-0.7-0.7c0.1-1.1,0.1-2.2-0.2-3.3
			c-1-4.6-3.8-7.7-8.3-9.2c-0.7-0.2-1.5-0.3-2.3-0.5c0,0.4,0,0.7,0,1.1c0,0.2,0.1,0.3,0.3,0.3c0.4,0.1,0.7,0.1,1.1,0.2
			c5.1,1.3,8.5,6.1,8.1,11.4c-0.1,0.7-0.1,0.7-0.7,0.9c0.5,0.6,1,1.2,1.5,1.9C-419,51.6-418.6,51-418,50.4z"/>
		<path class="st1" d="M-432.4,47c-1.9-1.5-1.7-3.8-0.4-5.1c1.3-1.3,3.5-1.4,4.8,0c1.3,1.3,1.5,3.6-0.4,5.1c0.1,0,0.2,0.1,0.3,0.1
			c2.2,1,3.5,2.7,3.9,5.1c0,0.3-0.1,0.5-0.5,0.6c-0.1,0-0.2,0-0.2,0c-3.7,0-7.3,0-11,0c-0.2,0-0.3,0-0.5-0.1
			c-0.2-0.1-0.2-0.3-0.2-0.5c0.2-1.5,0.9-2.8,2-3.9C-433.9,47.7-433.2,47.3-432.4,47z M-425.3,51.8c-0.3-1.9-2.2-4.2-5.2-4.2
			c-3,0-4.8,2.3-5.1,4.2C-432.1,51.8-428.7,51.8-425.3,51.8z M-430.4,46.7c1.4,0,2.5-1.1,2.5-2.4c0-1.4-1.1-2.4-2.4-2.4
			c-1.3,0-2.4,1.1-2.4,2.4C-432.9,45.6-431.8,46.7-430.4,46.7z"/>
		<path class="st1" d="M-442.4,48.3c-0.3,0-0.7,0-1,0c-0.4,0-0.6-0.2-0.6-0.6c0.1-1.6,0.5-3.2,1.3-4.7c0.2-0.4,0.4-0.5,0.8-0.3
			c0.6,0.3,1.2,0.7,1.7,1c0.3,0.2,0.4,0.4,0.2,0.7c-0.5,1.1-0.8,2.2-0.9,3.3c0,0.3-0.2,0.5-0.5,0.5C-441.7,48.3-442,48.3-442.4,48.3
			z M-441,44.3c-0.3-0.2-0.6-0.4-1-0.6c-0.5,1.2-0.8,2.3-1,3.6c0.4,0,0.7,0,1.1,0c0.1,0,0.2-0.1,0.2-0.2
			C-441.4,46.3-441.2,45.3-441,44.3z"/>
		<path class="st1" d="M-442.4,49c0.3,0,0.7,0,1,0c0.3,0,0.5,0.2,0.5,0.5c0.1,1.2,0.4,2.3,0.9,3.4c0.1,0.3,0,0.5-0.2,0.6
			c-0.6,0.4-1.2,0.7-1.9,1.1c-0.3,0.2-0.5,0.1-0.7-0.2c-0.7-1.4-1.1-2.8-1.2-4.3c0-0.2,0-0.3,0-0.5c0-0.4,0.2-0.6,0.5-0.6
			C-443.1,49-442.7,49-442.4,49z M-442,53.5c0.4-0.2,0.7-0.4,1-0.6c-0.3-1-0.5-2-0.8-3c-0.4,0-0.8,0-1.2,0
			C-442.8,51.2-442.5,52.3-442,53.5z"/>
		<path class="st1" d="M-431.3,37.3c0,0.3,0,0.7,0,1c0,0.3-0.1,0.5-0.5,0.5c-1.2,0.1-2.3,0.4-3.4,0.9c-0.3,0.1-0.5,0.1-0.6-0.2
			c-0.4-0.6-0.7-1.2-1.1-1.8c-0.2-0.3-0.1-0.5,0.2-0.7c1.4-0.7,2.8-1.1,4.3-1.2c0.2,0,0.3,0,0.5,0c0.4,0,0.6,0.2,0.6,0.5
			C-431.3,36.6-431.3,36.9-431.3,37.3z M-435.9,37.6c0.2,0.4,0.4,0.7,0.6,1c1-0.2,2-0.5,2.9-0.7c0.1,0,0.1-0.1,0.1-0.1
			c0-0.4,0-0.7,0-1.1C-433.5,36.8-434.7,37.1-435.9,37.6z"/>
		<path class="st1" d="M-439.4,43.3c-0.2-0.1-0.3-0.1-0.4-0.2c-0.6-0.3-1.2-0.7-1.7-1c-0.3-0.2-0.4-0.5-0.2-0.8
			c0.9-1.4,2.1-2.5,3.5-3.5c0.3-0.2,0.6-0.2,0.8,0.2c0.3,0.6,0.7,1.2,1,1.7c0.2,0.3,0.1,0.5-0.2,0.8c-0.9,0.7-1.7,1.5-2.4,2.4
			C-439.1,43.1-439.3,43.2-439.4,43.3z M-440.7,41.5c0.4,0.2,0.7,0.4,1,0.6c0.7-0.7,1.5-1.5,2.2-2.2c-0.2-0.3-0.4-0.7-0.6-1
			C-439.1,39.7-440,40.5-440.7,41.5z"/>
		<path class="st1" d="M-442.7,57.4c0,0.2-0.2,0.4-0.5,0.4c-0.3,0-0.5-0.2-0.4-0.5c0-0.2,0.2-0.4,0.5-0.4
			C-442.9,56.9-442.7,57.1-442.7,57.4z"/>
	</g>
</g>
<g>
	<g>
		<circle class="st0" cx="-234" cy="50.1" r="48.5"/>
	</g>
	<g>
		<path class="st1" d="M-248.2,67.1c0.4,0,0.8,0,1.2,0c0.9,0,1.7,0.2,2.5,0.7c2.7,1.6,5.4,3.1,8.1,4.7c1,0.6,2,0.7,3.1,0.3
			c5.7-2.1,11.4-4.2,17.1-6.3c0.2-0.1,0.3-0.1,0.5-0.2c0.4-0.1,0.6,0,0.7,0.3c0.1,0.4-0.1,0.6-0.4,0.7c-0.6,0.2-1.1,0.4-1.7,0.6
			c-5.3,1.9-10.6,3.9-15.9,5.8c-1.4,0.5-2.7,0.4-3.9-0.4c-2.6-1.6-5.3-3.1-8-4.6c-1.1-0.6-2.2-0.7-3.4-0.6c0,0.3,0,0.7,0,1
			c0,1.6-1.2,2.8-2.8,2.8c-1.4,0-2.8,0-4.2,0c-1.6,0-2.8-1.2-2.8-2.8c0-0.4,0-0.7,0-1.1c0-0.4,0.2-0.6,0.6-0.6
			c0.3,0,0.5,0.2,0.5,0.6c0,0.3,0,0.7,0,1c0,1.1,0.7,1.7,1.7,1.7c1.4,0,2.8,0,4.2,0c1,0,1.7-0.7,1.7-1.7c0-5.3,0-10.6,0-15.9
			c0-1-0.7-1.7-1.7-1.7c-1.3,0-2.7,0-4,0c-1.2,0-1.9,0.6-1.9,1.9c0,3.9,0,7.8,0,11.7c0,0.2,0.1,0.4,0,0.5c-0.1,0.2-0.4,0.5-0.5,0.5
			c-0.2,0-0.4-0.3-0.5-0.5c-0.1-0.1,0-0.3,0-0.4c0-4,0-7.9,0-11.9c0-1.9,1.1-3,3-3c1.3,0,2.6,0,3.8,0c1.9,0,2.9,1,3,2.9
			c0,0.1,0,0.2,0,0.3c0.8,0,1.5,0,2.3,0c1.2,0,2.3,0.3,3.3,1.1c2.2,1.6,4.5,3.2,6.8,4.9c0.7,0.5,1.6,0.8,2.5,0.8c2.1,0,4.3,0,6.4,0
			c2,0,3,1.1,3,3.1c0,0,0,0.1,0,0.2c1-0.3,1.9-0.6,2.8-0.9c2.5-0.8,4.9-1.7,7.4-2.4c1.5-0.5,3,0.2,3.7,1.6c0.7,1.4,0.3,3.1-1,3.9
			c-0.7,0.4-1.5,0.7-2.2,1c-0.3,0.1-0.6-0.1-0.6-0.4c0-0.2,0.1-0.6,0.3-0.7c0.4-0.2,0.9-0.4,1.4-0.5c1.1-0.4,1.6-1.5,1.2-2.5
			c-0.4-1-1.4-1.6-2.6-1.2c-3.7,1.2-7.5,2.4-11.1,3.8c-1.2,0.4-2.3,0.5-3.4,0.5c-2.4,0-4.8,0-7.2,0c-0.1,0-0.3,0.1-0.4,0
			c-0.2-0.2-0.4-0.4-0.5-0.6c0-0.2,0.3-0.4,0.5-0.5c0.2-0.1,0.4,0,0.7,0c2.7,0,5.4,0,8.1,0c0.4,0,0.9-0.2,1.3-0.3
			c0.4-0.2,0.6-1.2,0.4-1.7c-0.3-0.7-0.8-1-1.6-1c-2.2,0-4.4,0-6.5,0c-1.2,0-2.2-0.3-3.2-1c-2.2-1.6-4.5-3.2-6.7-4.9
			c-0.8-0.6-1.6-0.9-2.6-0.8c-0.8,0-1.5,0-2.3,0C-248.2,58.9-248.2,63-248.2,67.1z"/>
		<path class="st1" d="M-225.4,51.8c0.1-2.2,0.8-4,2.2-5.6c0.1-0.1,0.2-0.3,0.3-0.3c0.2,0,0.5-0.1,0.7,0c0.1,0.1,0.2,0.4,0.1,0.7
			c0,0.1-0.2,0.3-0.3,0.4c-1.2,1.4-1.9,3.1-1.9,4.9c1.2,0.7,1.7,1.4,1.5,2.5c-0.2,1-0.8,1.5-2.3,1.7c0,0.5,0.1,0.9,0,1.4
			c-0.2,1-1,1.6-2.1,1.7c-1,0-1.9,0-2.9,0c-1.6,0-2.5-1.3-2.1-2.8c0-0.1,0-0.1,0-0.2c-0.2,0-0.4,0-0.6-0.1c-1-0.1-1.7-0.8-1.8-1.8
			c-0.1-0.8,0.3-1.7,1.2-2.1c0.3-0.1,0.3-0.3,0.3-0.6c-0.2-2-1-3.7-2.4-5.1c-5.1-5.1-3.2-13.6,3.6-16.1c5.7-2.1,12,1.8,12.8,7.8
			c0.3,2.4-0.2,4.5-1.4,6.6c-0.3,0.5-0.9,0.5-1,0.1c-0.1-0.2,0-0.5,0.1-0.8c0.8-1.3,1.2-2.7,1.3-4.2c0.2-4.2-2.9-8.1-7-8.8
			c-5.4-0.9-10.3,3.3-10.1,8.7c0.1,2.2,0.9,4.1,2.5,5.7c1.5,1.5,2.5,3.3,2.8,5.4c0,0.3,0.1,0.6,0.1,0.9c0.9,0,1.7,0,2.7,0
			c0-1.2,0-2.4,0-3.6c0-1.2,0-2.4,0-3.6c-0.3-0.1-0.7-0.1-1-0.2c-2.4-0.5-4.2-1.9-5.6-3.8c-0.1-0.2-0.1-0.6,0-0.8
			c1.9-2.5,4.3-4.1,7.5-4c2.6,0.1,4.7,1.3,6.3,3.2c1.1,1.2,1.1,1.2,0,2.4c-1.6,1.8-3.6,2.9-6,3.1c0,2.4,0,4.8,0,7.2
			C-227.2,51.8-226.3,51.8-225.4,51.8z M-222.6,40.2c-3.2-4.3-9.1-4.3-12.2,0C-231.5,44.5-225.9,44.6-222.6,40.2z M-228.6,53
			c-1.3,0-2.5,0-3.8,0c-0.6,0-1,0.4-1,0.9c0,0.5,0.4,0.9,1,0.9c2.5,0,5,0,7.5,0c0.4,0,0.7-0.2,0.9-0.5c0.3-0.6-0.1-1.3-0.9-1.4
			C-226.1,53-227.4,53-228.6,53z M-228.6,57.9c0.5,0,1,0,1.5,0c0.6,0,1-0.4,1-0.9c0-0.5-0.4-0.9-1-0.9c-1,0-2,0-3,0
			c-0.6,0-1,0.4-1,0.9c0,0.5,0.4,0.9,1,0.9C-229.7,58-229.2,57.9-228.6,57.9z"/>
		<path class="st1" d="M-228.1,27.3c0,0.3,0.1,0.5,0,0.8c-0.1,0.2-0.3,0.4-0.5,0.5c-0.3,0.1-0.5-0.1-0.6-0.5c0-0.6-0.1-1.1,0-1.7
			c0-0.2,0.3-0.5,0.5-0.5c0.3-0.1,0.5,0.2,0.6,0.5C-228.1,26.8-228.1,27.1-228.1,27.3z"/>
		<path class="st1" d="M-219.7,29.5c-0.1,0.2-0.1,0.3-0.2,0.5c-0.3,0.4-0.6,0.8-0.9,1.1c-0.2,0.3-0.5,0.3-0.8,0.1
			c-0.3-0.2-0.3-0.5,0-0.8c0.3-0.4,0.6-0.8,1-1.2c0.1-0.1,0.4-0.2,0.6-0.2C-220,29.1-219.9,29.3-219.7,29.5z"/>
		<path class="st1" d="M-238,33.7c0,0.5-0.4,0.8-0.8,0.6c-0.5-0.2-1-0.5-1.4-0.8c-0.3-0.2-0.3-0.5-0.1-0.7c0.1-0.2,0.5-0.3,0.7-0.2
			c0.5,0.2,1,0.5,1.5,0.8C-238.1,33.4-238.1,33.6-238,33.7z"/>
		<path class="st1" d="M-217.5,40.9c0.7,0.1,1.3,0.2,1.8,0.4c0.2,0.1,0.4,0.4,0.3,0.6c0,0.2-0.3,0.5-0.5,0.4c-0.6,0-1.1-0.1-1.7-0.3
			c-0.2-0.1-0.4-0.4-0.4-0.6C-217.9,41.2-217.7,41-217.5,40.9z"/>
		<path class="st1" d="M-235.4,30.8c-0.1,0.1-0.2,0.3-0.3,0.4c-0.2,0.1-0.5,0-0.6-0.1c-0.4-0.4-0.8-0.8-1.1-1.3
			c-0.1-0.2,0-0.5,0.1-0.7c0.1-0.1,0.5-0.2,0.6-0.1c0.5,0.4,0.8,0.9,1.2,1.4C-235.5,30.6-235.5,30.7-235.4,30.8z"/>
		<path class="st1" d="M-238,45.3c-0.1,0.1-0.2,0.3-0.3,0.4c-0.4,0.3-0.8,0.5-1.2,0.7c-0.3,0.2-0.6,0.1-0.8-0.2
			c-0.2-0.3,0-0.6,0.3-0.8c0.4-0.2,0.8-0.5,1.3-0.7C-238.4,44.5-238,44.8-238,45.3z"/>
		<path class="st1" d="M-231.9,28.8c-0.2,0.2-0.3,0.4-0.5,0.5c-0.2,0-0.6-0.1-0.6-0.3c-0.2-0.5-0.4-1.1-0.6-1.6
			c0-0.2,0.2-0.5,0.3-0.6c0.1-0.1,0.5,0,0.6,0.2C-232.4,27.5-232.2,28.1-231.9,28.8z"/>
		<path class="st1" d="M-239.8,38.1c-0.7-0.1-1.2-0.2-1.7-0.3c-0.4-0.1-0.5-0.3-0.4-0.7c0.1-0.3,0.3-0.5,0.7-0.4
			c0.5,0.1,1,0.2,1.4,0.3c0.4,0.1,0.6,0.3,0.5,0.7C-239.5,37.8-239.7,38-239.8,38.1z"/>
		<path class="st1" d="M-217.5,38.1c-0.1-0.1-0.4-0.3-0.4-0.5c0-0.2,0.2-0.5,0.4-0.6c0.5-0.2,1-0.2,1.5-0.3c0.3,0,0.6,0.1,0.6,0.5
			c0,0.2-0.2,0.6-0.4,0.6C-216.3,37.9-216.8,38-217.5,38.1z"/>
		<path class="st1" d="M-239.4,41.6c-0.1,0.1-0.3,0.3-0.5,0.4c-0.5,0.1-1,0.2-1.5,0.3c-0.3,0-0.6-0.1-0.7-0.4
			c-0.1-0.4,0.1-0.6,0.5-0.7c0.5-0.1,1-0.2,1.5-0.3C-239.6,40.9-239.4,41.1-239.4,41.6z"/>
		<path class="st1" d="M-216.9,45.8c0,0.5-0.3,0.8-0.7,0.6c-0.5-0.2-1.1-0.6-1.6-0.9c-0.1-0.1-0.2-0.5-0.1-0.6
			c0.1-0.2,0.5-0.3,0.6-0.3c0.5,0.2,1,0.5,1.5,0.8C-217,45.6-217,45.8-216.9,45.8z"/>
		<path class="st1" d="M-224.6,29.3c-0.5,0-0.8-0.3-0.7-0.7c0.2-0.5,0.3-1,0.5-1.5c0.1-0.2,0.4-0.3,0.6-0.3c0.3,0,0.5,0.3,0.4,0.7
			c-0.2,0.5-0.4,1-0.6,1.5C-224.3,29.2-224.6,29.2-224.6,29.3z"/>
		<path class="st1" d="M-218.8,34.5c-0.2-0.2-0.5-0.3-0.5-0.5c-0.1-0.2,0-0.5,0.2-0.6c0.5-0.3,1-0.6,1.5-0.9c0.2-0.1,0.5,0,0.6,0.2
			c0.1,0.1,0.2,0.5,0.1,0.6C-217.5,33.7-218.1,34-218.8,34.5z"/>
		<path class="st1" d="M-228.1,38.1c-0.3,0.5-0.3,1,0.1,1.4c0.4,0.5,0.9,0.4,1.5,0.2c0.3,1-0.1,2-1,2.5c-0.9,0.5-2,0.4-2.8-0.3
			c-0.7-0.7-0.9-1.8-0.4-2.7C-230.2,38.3-229.2,37.8-228.1,38.1z"/>
	</g>
</g>
<g>
	<g>
		<circle class="st0" cx="-91.8" cy="50" r="48.5"/>
	</g>
</g>
<g>
	<path class="st1" d="M-90,21.5c1,0.1,2.1,0.2,3.1,0.4c1.1,0.2,2.3,0.5,3.4,0.8c0.9,0.3,1.4,1,1.1,1.9c-0.2,0.8-1,1.1-1.9,0.9
		c-2.8-0.9-5.8-1.2-8.7-1.1c-6.8,0.4-12.6,3-17.3,7.9c-4.1,4.3-6.6,9.5-7,15.4c-0.7,10.8,3.6,19.1,12.9,24.6c5.1,3,10.7,4,16.6,3
		c9.6-1.7,16.3-7.1,19.9-16.1c2.2-5.4,2.3-11,0.6-16.7c-0.4-1.3,0.5-2.2,1.4-2.1c0.6,0.1,1.1,0.4,1.3,1.2c0.4,1.9,0.9,3.8,1.1,5.7
		c0.7,8.1-1.6,15.3-6.9,21.4c-4.8,5.5-10.8,8.7-18.1,9.5c-9.7,1-17.9-2.1-24.5-9.3c-4.3-4.7-6.6-10.3-7.2-16.7
		c0-0.2-0.1-0.4-0.1-0.5c0-1.2,0-2.4,0-3.6c0-0.2,0.1-0.3,0.1-0.5c0.2-1.4,0.4-2.9,0.7-4.3c2.6-11,11.7-19.6,22.8-21.5
		c1-0.2,2.1-0.3,3.1-0.4C-92.3,21.5-91.1,21.5-90,21.5z"/>
	<path class="st1" d="M-91.6,69.9c-9.7-0.1-18-7.1-19.6-16.7c-1.9-11,5.7-21.4,16.8-23c1.3-0.2,2.5-0.1,3.8-0.1
		c0.7,0,1.3,0.3,1.5,1.1c0.3,1-0.4,1.9-1.5,1.8c-3.3-0.3-6.3,0.4-9.2,1.9c-6.1,3.2-9.7,10-8.9,16.9c0.9,7.8,6.7,13.9,14.5,15
		c9.2,1.4,17.9-5.2,19.2-14.4c0.2-1.2,0.1-2.4,0.1-3.5c0-0.9,0.4-1.6,1.3-1.7c0.8-0.1,1.6,0.5,1.6,1.4c0,1.6,0.1,3.3-0.3,4.8
		c-1.8,8.4-6.9,13.7-15.2,15.9C-88.7,69.6-90.2,69.7-91.6,69.9z"/>
	<path class="st1" d="M-78.5,41.4c-0.7,0-1.4,0-2.1,0c-0.5,0-0.8,0.1-1.1,0.5c-2.9,2.9-5.8,5.9-8.8,8.8c-0.2,0.2-0.4,0.4-0.6,0.5
		c-0.6,0.4-1.3,0.3-1.7-0.2c-0.5-0.5-0.6-1.2-0.2-1.8c0.1-0.2,0.3-0.4,0.5-0.5c2.9-2.9,5.9-5.9,8.8-8.8c0.3-0.3,0.4-0.6,0.4-1
		c0-1.4,0-2.8,0-4.2c0-0.6,0.2-1.1,0.6-1.6c2.7-2.7,5.4-5.4,8.1-8.1c0.5-0.5,1.1-0.8,1.7-0.5c0.7,0.3,0.9,0.8,0.9,1.5
		c0,1.2,0,2.4,0,3.6c0,0.4,0.1,0.5,0.5,0.5c1.2,0,2.4,0,3.6,0c0.7,0,1.3,0.2,1.5,0.9c0.3,0.7,0,1.2-0.4,1.7
		c-2.7,2.7-5.5,5.5-8.2,8.2c-0.4,0.4-0.8,0.6-1.3,0.6C-77,41.4-77.7,41.4-78.5,41.4z M-80.3,38.5c1.1,0,2.2,0,3.2,0
		c0.3,0,0.6-0.1,0.8-0.3c1.7-1.6,3.3-3.3,4.9-4.9c0.1-0.1,0.2-0.2,0.4-0.4c-0.8,0-1.4,0-2.1,0c-1,0-1.5-0.6-1.5-1.5c0-0.7,0-1.3,0-2
		c-0.1,0.1-0.2,0.1-0.2,0.1c-1.8,1.8-3.5,3.5-5.3,5.3c-0.1,0.1-0.2,0.3-0.2,0.5C-80.3,36.2-80.3,37.3-80.3,38.5z"/>
	<path class="st1" d="M-91.7,61.2c-5.9,0-10.7-4.5-11.3-10.3c-0.5-5.8,3.5-11.1,9.3-12.2c0.6-0.1,1.2-0.2,1.9-0.2
		c0.9,0,1.5,0.6,1.5,1.3c0,0.8-0.5,1.4-1.4,1.5c-1.2,0-2.3,0.2-3.4,0.7c-3.6,1.5-5.7,5.3-5.1,9.1c0.6,3.8,3.7,6.8,7.6,7.2
		c4.8,0.5,9.1-3.2,9.3-8.1c0.1-1.2,0.6-1.8,1.5-1.8c0.9,0,1.4,0.7,1.3,1.9C-80.6,56.5-85.6,61.2-91.7,61.2z"/>
</g>
<g>
	<g>
		<g>
			<circle class="st0" cx="50" cy="50.4" r="48.5"/>
		</g>
	</g>
	<g>
		<path class="st1" d="M27.5,79.5c-1.5-0.5-2.1-1.6-2.1-3.2c0.1-4.1,0-8.1,0-12.2c0-0.2,0-0.4,0-0.6c0.1-0.5,0.4-0.7,0.9-0.7
			c0.5,0,0.7,0.3,0.8,0.7c0,0.2,0,0.3,0,0.5c0,4.1,0,8.3,0,12.4c0,1,0.2,1.2,1.2,1.2c13.7,0,27.4,0,41.2,0c1,0,1.3-0.2,1.3-1.3
			c0-6.6,0-13.2,0-19.8c0-0.2,0-0.4,0-0.7c-1.6,1.6-3.5,2.5-5.3,3.6c-0.9,0.6-1.8,0.6-2.8,0c-1-0.7-2.1-1.2-3.1-1.8
			c-1.3-0.8-2.4-1.9-3.4-3.1c-0.4-0.5-0.4-1,0-1.4c0.4-0.3,0.9-0.2,1.3,0.3c1,1.3,2.2,2.3,3.6,3.1c0.9,0.5,1.7,1,2.6,1.5
			c0.3,0.2,0.5,0.2,0.8,0c1-0.6,2.1-1.2,3.1-1.8c3.4-2.2,5.1-5.3,5.3-9.3c0-1.1,0-2.2,0-3.3c0-0.2-0.2-0.5-0.4-0.7
			c-2.6-1.5-5.3-3.1-7.9-4.6c-0.3-0.2-0.5-0.2-0.8,0c-2.6,1.5-5.3,3-7.9,4.6c-0.2,0.1-0.4,0.4-0.4,0.7c0,2.2-0.2,4.3,0.4,6.4
			c0.1,0.5-0.2,0.9-0.6,1c-0.4,0.1-1-0.1-1-0.6c-0.2-1.2-0.4-2.4-0.5-3.6c-0.1-1.1,0-2.2,0-3.4c0-0.9,0.4-1.5,1.2-2
			c2.7-1.5,5.4-3.1,8.1-4.7c0.8-0.5,1.6-0.5,2.4,0c1.6,1,3.2,1.9,4.9,2.8c0.2,0.1,0.4,0.2,0.6,0.3c0-0.3,0-0.4,0-0.6
			c0-5.1,0-10.1,0-15.2c0-1-0.2-1.3-1.3-1.3c-13.7,0-27.4,0-41.2,0c-1,0-1.3,0.2-1.3,1.3c0,11.7,0,23.3,0,35c0,0.9-0.3,1.3-0.9,1.3
			c-0.6,0-0.8-0.4-0.8-1.3c0-11.7,0-23.3,0-35c0-2,1-3,3-3c13.7,0,27.4,0,41.2,0c2,0,2.9,1,2.9,2.9c0,5.4,0,10.8,0,16.3
			c0,0.4,0.1,0.7,0.5,0.9c1.2,0.5,1.6,1.4,1.5,2.6c-0.1,1.7-0.1,3.5-0.3,5.2c-0.1,1.5-0.8,2.8-1.5,4.1c-0.2,0.3-0.3,0.7-0.3,1.1
			c0,7.3,0,14.6,0,21.9c0,1.6-0.5,2.7-2.1,3.2C56.2,79.5,41.8,79.5,27.5,79.5z"/>
		<path class="st1" d="M33.5,28.5c0,1.4,0,2.7,0,4c10.3,0,20.6,0,31,0c0-0.7,0-1.3,0-2c0-0.7,0-1.3,0-2.1c-0.3,0-0.5,0-0.7,0
			c-1.7,0-3.4,0-5.1,0c-0.2,0-0.4,0-0.6,0c-0.5-0.1-0.7-0.4-0.7-0.9c0-0.5,0.3-0.8,0.8-0.8c2.2,0,4.4,0,6.6,0c0.7,0,1.2,0.5,1.2,1.2
			c0,1.7,0,3.4,0,5.1c0,0.7-0.5,1.1-1.2,1.2c-0.2,0-0.5,0-0.7,0c-10.2,0-20.4,0-30.6,0c-0.2,0-0.5,0-0.7,0c-0.7-0.1-1.2-0.6-1.2-1.3
			c0-1.6,0-3.3,0-4.9c0-0.7,0.5-1.2,1.3-1.3c0.2,0,0.4,0,0.6,0c6.7,0,13.5,0,20.2,0c0.1,0,0.1,0,0.2,0c0.8,0,1.2,0.3,1.2,0.9
			c0,0.5-0.4,0.8-1.2,0.8c-6.6,0-13.1,0-19.7,0C34.1,28.5,33.8,28.5,33.5,28.5z"/>
		<path class="st1" d="M57.1,46.7c0-2.6-0.1-2.4,1.9-3.5c1.4-0.8,2.8-1.6,4.2-2.4c0.6-0.4,1.2-0.4,1.8,0c1.7,1,3.5,2,5.2,3
			c0.6,0.4,0.9,0.9,0.9,1.6c0,1.9,0,3.7-0.9,5.5c-0.8,1.7-2,3-3.5,4c-0.6,0.4-1.2,0.8-1.9,1.1c-0.4,0.2-0.9,0.3-1.3,0.1
			c-1.7-0.9-3.4-1.8-4.6-3.5C57.7,50.7,57,48.7,57.1,46.7z M69.5,46.6c0-0.2,0-0.4,0-0.6c0.1-0.5-0.1-0.8-0.6-1.1
			c-1.4-0.8-2.9-1.6-4.3-2.5c-0.3-0.2-0.5-0.2-0.9,0c-1.3,0.8-2.5,1.5-3.8,2.2c-0.8,0.4-1.1,0.9-1.1,1.8c0,3.3,1.4,5.7,4.3,7.4
			c0.8,0.5,1.4,0.4,2.2,0C68.1,52.2,69.5,49.8,69.5,46.6z"/>
		<path class="st1" d="M64.8,68.8c-0.4,1.5-0.8,3-1.3,4.5c-0.1,0.3-0.4,0.7-0.7,0.9c-0.6,0.3-1.2-0.1-1.4-0.8
			c-0.4-1.3-0.8-2.7-1.2-4c-0.1-0.2-0.1-0.4-0.3-0.5c-0.1,0.7-0.3,1.4-0.4,2.1c-0.2,0.8-0.3,1.7-0.5,2.5c-0.1,0.6-0.5,0.9-1,0.8
			c-0.5-0.1-0.8-0.5-0.7-1.1c0.4-2.5,0.9-5,1.3-7.4c0.1-0.6,0.5-1,1-1c0.6,0,0.9,0.3,1.1,0.9c0.5,1.6,0.9,3.1,1.4,4.7
			c0,0.1,0.1,0.3,0.2,0.6c0.5-1.6,0.9-3.1,1.3-4.6c0.1-0.3,0.1-0.5,0.2-0.8c0.2-0.6,0.6-0.9,1.1-0.8c0.6,0,0.9,0.4,1,0.9
			c0.3,1.4,0.5,2.8,0.8,4.2c0.2,1.1,0.4,2.2,0.6,3.3c0.1,0.6-0.1,1-0.6,1.1c-0.5,0.1-0.9-0.2-1-0.8c-0.3-1.5-0.6-3.1-0.9-4.6
			C64.9,68.8,64.8,68.8,64.8,68.8z"/>
		<path class="st1" d="M53.5,73.6c-0.2,0.2-0.4,0.5-0.7,0.6c-0.4,0.2-0.8,0-1-0.4c-0.2-0.4-0.3-0.7-0.4-1.1
			c-0.1-0.3-0.2-0.4-0.5-0.4c-0.9,0-1.9,0-2.8,0c-0.3,0-0.5,0.1-0.5,0.4c-0.1,0.3-0.2,0.6-0.3,0.9c-0.2,0.6-0.7,0.8-1.2,0.6
			c-0.5-0.2-0.7-0.7-0.4-1.2c0.7-2,1.5-3.9,2.2-5.9c0.2-0.6,0.4-1.1,0.6-1.7c0.2-0.5,0.5-0.8,1-0.8c0.5,0,0.8,0.3,1,0.8
			c1,2.5,1.9,5.1,2.9,7.6C53.4,73.2,53.4,73.3,53.5,73.6z M49.4,67.6c-0.4,1.1-0.8,2-1.2,3c0.8,0,1.5,0,2.3,0
			C50.2,69.6,49.9,68.7,49.4,67.6z"/>
		<path class="st1" d="M35.8,64.6c0.4,0.2,1.3,0.4,2,0.8c0.6,0.3,0.7,0.8,0.4,1.2c-0.3,0.4-0.7,0.5-1.3,0.2c-2.1-1.1-4.4,0-4.8,2.3
			c-0.3,2.2,1.9,4.1,4,3.3c0.4-0.1,0.7-0.4,1-0.6c0.4-0.4,0.9-0.4,1.3-0.1c0.3,0.3,0.3,0.8-0.1,1.3c-1.6,1.8-4.8,1.7-6.6-0.3
			c-1.4-1.5-1.7-3.3-0.9-5.2C31.8,65.7,33.3,64.7,35.8,64.6z"/>
		<path class="st1" d="M41.3,47.7c-2.8,0-5.5,0-8.3,0c-0.2,0-0.5,0-0.7-0.1c-0.4-0.1-0.6-0.4-0.6-0.8c0-0.4,0.2-0.7,0.6-0.8
			c0.2,0,0.4,0,0.6,0c5.6,0,11.1,0,16.7,0c0.2,0,0.3,0,0.5,0c0.4,0.1,0.7,0.4,0.7,0.8c0,0.4-0.2,0.8-0.7,0.9c-0.2,0-0.4,0-0.6,0
			C46.8,47.7,44.1,47.7,41.3,47.7z"/>
		<path class="st1" d="M41.4,40.6c2.7,0,5.5,0,8.2,0c0.2,0,0.4,0,0.6,0c0.4,0.1,0.7,0.4,0.7,0.8c0,0.4-0.2,0.7-0.6,0.8
			c-0.2,0.1-0.5,0.1-0.7,0.1c-5.5,0-11,0-16.5,0c-0.1,0-0.3,0-0.4,0c-0.6,0-0.9-0.4-0.9-0.9c0-0.5,0.3-0.8,1-0.8
			C35.6,40.6,38.5,40.6,41.4,40.6z"/>
		<path class="st1" d="M41.3,51.5c2.7,0,5.5,0,8.2,0c0.2,0,0.4,0,0.6,0c0.4,0.1,0.6,0.3,0.7,0.7c0,0.4-0.2,0.7-0.6,0.9
			c-0.2,0.1-0.4,0.1-0.7,0.1c-5.5,0-11.1,0-16.6,0c-0.2,0-0.4,0-0.6,0c-0.4-0.1-0.7-0.4-0.7-0.9c0-0.5,0.3-0.7,0.7-0.8
			c0.2,0,0.4,0,0.6,0C35.8,51.5,38.6,51.5,41.3,51.5z"/>
		<path class="st1" d="M41.3,57c2.7,0,5.5,0,8.2,0c0.2,0,0.4,0,0.6,0c0.4,0.1,0.7,0.3,0.7,0.8c0,0.4-0.2,0.7-0.6,0.9
			c-0.2,0.1-0.4,0.1-0.6,0.1c-5.6,0-11.1,0-16.7,0c-0.1,0-0.2,0-0.3,0c-0.6,0-0.9-0.4-0.9-0.9c0-0.5,0.3-0.8,0.9-0.8
			c1.5,0,3,0,4.4,0C38.5,57,39.9,57,41.3,57z"/>
		<path class="st1" d="M41.5,72.6c0.6,0,1.2,0,1.7,0c0.7,0,1.1,0.3,1.1,0.8c0,0.5-0.4,0.9-1,0.9c-0.8,0-1.6,0-2.4,0
			c-0.7,0-1-0.3-1-1c0-2.5,0-5.1,0-7.6c0-0.7,0.4-1,0.9-1c0.5,0,0.8,0.4,0.8,1c0,2.1,0,4.1,0,6.2C41.5,72.1,41.5,72.3,41.5,72.6z"/>
		<path class="st1" d="M56.3,69.5c0,1.3,0,2.5,0,3.8c0,0.6-0.3,1-0.8,1c-0.5,0-0.9-0.4-0.9-1c0-2.5,0-5.1,0-7.6c0-0.7,0.3-1,0.9-1
			c0.5,0,0.8,0.4,0.8,1C56.3,67,56.3,68.2,56.3,69.5z"/>
		<path class="st1" d="M63.9,48.9c0.6-0.7,1.3-1.5,2-2.3c0.1-0.1,0.2-0.3,0.4-0.4c0.4-0.4,0.9-0.4,1.2-0.1c0.4,0.3,0.4,0.8,0.1,1.3
			c-0.6,0.7-1.3,1.5-2,2.2c-0.4,0.4-0.7,0.8-1.1,1.2c-0.5,0.5-0.9,0.5-1.4,0c-0.7-0.7-1.4-1.5-2.1-2.2c-0.4-0.4-0.4-0.9-0.1-1.3
			c0.4-0.4,0.8-0.3,1.3,0.1C62.7,47.9,63.3,48.3,63.9,48.9z"/>
	</g>
</g>
</svg>
