<?xml version="1.0" encoding="utf-8"?>
<!-- Generator: Adobe Illustrator 23.1.0, SVG Export Plug-In . SVG Version: 6.00 Build 0)  -->
<svg version="1.1" id="Layer_1" xmlns="http://www.w3.org/2000/svg" xmlns:xlink="http://www.w3.org/1999/xlink" x="0px" y="0px"
	 viewBox="0 0 202 170" style="enable-background:new 0 0 202 170;" xml:space="preserve">
<style type="text/css">
	.st0{fill:#51658D;}
	.st1{fill:#FFFFFF;}
</style>
<circle class="st0" cx="101" cy="85" r="70"/>
<g>
	<path class="st1" d="M89.9,57c2.2-5.1,6-7.9,11.6-7.7c5.1,0.2,8.6,3,10.6,7.7c2.9-1.6,5.7-1.1,8.4,0.4c2.7,1.5,4.7,3.6,5.4,6.8
		c3.1-0.4,5.8,0.5,7.9,3c1.4,1.6,2,3.6,1.9,5.7c-0.1,2.5-1.2,4.6-3.1,6.2c-1.9,1.6-4.2,2.2-6.7,1.9c-0.7,4.1-2.9,6.9-6.7,8.3
		c-4,1.4-7.2-0.2-9.9-3.2c-4.6,4.5-12.3,4.8-17.3-0.5c-2.6,3.7-6.2,5-10.5,3.6c-3.8-1.2-5.9-4-6.3-8.2c-3.1-0.1-5.9-1-7.6-3.8
		c-1.2-1.9-1.5-3.9-1.2-6.1c0.6-4.5,3.8-6.8,9.6-7c0.6-3.2,2.7-5.3,5.4-6.8C84.1,55.9,87,55.3,89.9,57z M75.2,66.8
		c-2.8-0.2-5,1-6,3.4c-1.7,4.2,1,8.3,5.7,8.3c1.8,0,2.7,0.8,2.8,2.6C78,86,83.8,89,87.8,86.3c0.9-0.6,1.6-1.5,2.3-2.3
		c1.1-1.2,2.6-1.3,3.7-0.1c3.6,4.2,9.9,4.4,13.8,0.4c1.1-1.2,2.7-1,3.7,0.3c1.8,2.3,4.3,3.2,6.9,2.4c2.4-0.7,5.1-3.9,5.1-6.1
		c0-1.8,1.2-2.7,3.1-2.4c2.4,0.4,5-0.9,6.1-3.1c1.1-2.1,1-4.2-0.3-6.1c-1.3-2-3.2-2.8-5.6-2.6c-2,0.2-2.9-0.4-3.3-2.4
		c-0.2-0.8-0.5-1.6-1-2.2c-0.8-0.9-1.7-1.7-2.6-2.4c-2-1.5-4.1-1.6-6.3-0.5c-1.6,0.8-2.9,0.3-3.6-1.3c-1.6-3.8-4.8-6.1-8.7-6.1
		c-3.9,0-7.1,2.3-8.7,6.1c-0.7,1.7-2.1,2.2-3.7,1.3c-1.3-0.7-2.6-0.9-4-0.6c-2,0.5-3.6,1.9-4.9,3.4c-0.6,0.7-0.9,1.6-1.1,2.5
		c-0.3,1-0.6,1.8-1.6,2.1C76.4,66.8,75.8,66.8,75.2,66.8z"/>
	<path class="st1" d="M113.7,120.7c-2-0.1-4-1.2-5.2-3.5c-1.2-2.2-0.9-4.4,0.5-6.3c1.4-2,2.8-3.9,3.5-6.2c0.2-0.7,0.9-1,1.6-1
		c0.8,0,1.4,0.4,1.6,1.1c0.8,2.3,2.1,4.3,3.5,6.2c1.4,1.9,1.5,4.1,0.5,6.2C118.6,119.5,116.5,120.7,113.7,120.7z M114.1,107.9
		c-0.4,0.7-0.8,1.5-1.3,2.2s-1,1.4-1.6,2.1c-0.2,0.2-0.3,0.4-0.4,0.7c-0.8,1.5-0.4,3.2,0.9,4.3c1.3,1.2,3.1,1.3,4.5,0.4
		c1.5-1,2-2.7,1.4-4.3c-0.3-0.7-0.7-1.3-1.2-2C115.7,110.1,114.9,109,114.1,107.9z"/>
	<path class="st1" d="M107.2,104.4c0,3.3-2.7,6.2-6,6.3c-3.4,0.1-6.5-2.7-6.6-6c-0.1-1.7,0.6-3.1,1.6-4.4c1.3-1.6,2.3-3.3,3-5.2
		c0.3-0.9,0.9-1.4,1.8-1.3c0.9,0,1.4,0.5,1.7,1.3c0.7,2,1.8,3.8,3.1,5.4C106.8,101.6,107.2,102.9,107.2,104.4z M100.9,97.9
		c-0.4,0.7-0.8,1.5-1.3,2.2s-1,1.4-1.6,2.1c-1.2,1.6-1,3.5,0.3,4.8c1.4,1.3,3.4,1.6,4.8,0.5c1.6-1.2,2-3.1,1.1-4.9
		c-0.2-0.4-0.5-0.8-0.8-1.2C102.6,100.2,101.7,99.1,100.9,97.9z"/>
	<path class="st1" d="M94.1,114.5c0,3.2-2.7,6.2-5.8,6.3c-3.5,0.1-6.6-2.6-6.8-5.9c-0.1-1.5,0.4-2.9,1.3-4.1
		c1.4-1.8,2.6-3.7,3.3-5.9c0.3-0.8,0.9-1.1,1.7-1.1c0.8,0,1.4,0.4,1.6,1.1c0.8,2.2,2,4.1,3.5,5.9C93.8,111.8,94.2,113.1,94.1,114.5z
		 M87.8,107.9c-1,1.4-2,2.9-3,4.3c-1.1,1.6-1,3.4,0.4,4.7c1.3,1.3,3.3,1.5,4.7,0.5c1.6-1.1,2.1-3,1.2-4.7c-0.3-0.6-0.7-1.2-1.1-1.7
		C89.2,110,88.5,108.9,87.8,107.9z"/>
	<path class="st1" d="M133.5,101.5c0,3.3-2.7,6.2-5.9,6.3c-3.4,0.1-6.5-2.6-6.7-5.9c-0.1-1.7,0.6-3.2,1.6-4.5
		c1.3-1.6,2.3-3.3,2.9-5.2c0.3-0.9,1-1.4,1.7-1.4c0.8,0,1.4,0.5,1.7,1.4c0.7,2,1.7,3.7,3,5.3C133,98.6,133.5,99.9,133.5,101.5z
		 M127.2,95c-1,1.4-2,2.9-3,4.3c-0.2,0.2-0.3,0.5-0.4,0.8c-0.7,1.7-0.1,3.5,1.6,4.5c1.6,1,3.5,0.7,4.7-0.7c1.2-1.4,1.3-3,0.2-4.6
		C129.3,97.8,128.2,96.3,127.2,95z"/>
	<path class="st1" d="M80.9,101.5c0,2.5-1.8,5.1-4.1,5.9c-2.4,0.9-5.3,0-7.1-2c-1.7-2-1.9-4.6-0.5-7c0.2-0.4,0.5-0.9,0.9-1.2
		c1.2-1.5,2.1-3.1,2.8-4.9c0.4-1,1-1.5,1.8-1.5c0.9,0.1,1.5,0.6,1.8,1.5c0.6,1.8,1.6,3.5,2.9,5C80.4,98.5,80.9,99.9,80.9,101.5z
		 M74.5,94.9c-0.4,0.7-0.8,1.4-1.2,2.1c-0.6,0.9-1.4,1.8-1.9,2.7c-0.9,1.5-0.6,3.2,0.7,4.4c1.3,1.2,3.2,1.4,4.5,0.5
		c1.5-1,2.1-2.8,1.5-4.4c-0.3-0.7-0.7-1.3-1.1-1.8C76.2,97.2,75.4,96.1,74.5,94.9z"/>
</g>
</svg>
