<?xml version="1.0" encoding="utf-8"?>
<!-- Generator: Adobe Illustrator 23.1.0, SVG Export Plug-In . SVG Version: 6.00 Build 0)  -->
<svg version="1.1" id="Layer_1" xmlns="http://www.w3.org/2000/svg" xmlns:xlink="http://www.w3.org/1999/xlink" x="0px" y="0px"
	 viewBox="0 0 202 170" style="enable-background:new 0 0 202 170;" xml:space="preserve">
<style type="text/css">
	.st0{fill:#51658D;}
	.st1{fill:#FFFFFF;}
</style>
<circle class="st0" cx="101" cy="85" r="70"/>
<g>
	<path class="st1" d="M94.7,118.8c-0.7,0-1.3,0-1.9,0c-2.9-0.1-5.3-2.3-5.5-5.1c-0.2-1.9-0.1-3.9-0.1-5.8c0.1-3.4-0.9-6.3-2.8-9
		c-1.8-2.5-3.7-5-5.2-7.7c-4.5-8.1-5-20.9,2.2-29.6c6.6-8,15.2-11.2,25.3-9c10.3,2.3,16.9,8.9,19.3,19.2c1.8,8,0.4,15.7-4.5,22.5
		c-1,1.5-2.1,2.9-3.3,4.6c1.3-0.5,2.4-0.8,3.4-1.2c0.2-0.1,0.5-0.2,0.7-0.2c0.7-0.2,1.4,0.1,1.7,0.8c0.2,0.6,0,1.4-0.7,1.6
		c-2.5,0.9-5,1.9-7.6,2.7c-0.9,0.3-1.7-0.2-1.7-1.2c0-2.6,0-5.2,0-7.8c0-0.8,0.6-1.2,1.3-1.2c0.7,0,1.3,0.5,1.3,1.3
		c0,0.9,0,1.8,0,2.7c0.1,0,0.2,0,0.2,0c3.4-4.2,6-8.6,6.9-14.1c2.1-13-5-22.6-14.2-26.1C95.9,50.8,81,59.3,78.8,73.7
		c-1,6.8,0.2,13.2,4.3,18.9c0.8,1.1,1.6,2.3,2.5,3.4c2.8,3.8,3.4,5.2,4.3,9.8c3.1,0,6.1,0,9.2,0c0-3.1,0-6.2,0-9.3
		c-0.7-0.3-1.5-0.5-2.2-0.8c-4.4-1.9-7.7-5.2-10.2-9.3c-2.5-4.1-3.8-8.5-3.4-13.3c0.1-1.6,0.7-3.2,1.1-4.8c0.2-0.8,0.8-1.1,1.7-1
		c4.9,0.7,8.7,3.4,11.8,7.1c1.1,1.3,2.1,2.8,3,4.2c0.9-1.3,1.8-2.6,2.9-3.9c2.8-3.3,6.2-5.8,10.6-6.7c2.2-0.5,2.5-0.3,3.2,1.8
		c1.3,4,1,8-0.3,12c-2.1,6.1-5.8,11-11.6,14c-0.6,0.3-1.3,0.6-1.9,0.8c-0.6,0.2-1.3,0.4-2,0.6c0,2.8,0,5.7,0,8.7c0.3,0,0.6,0,0.9,0
		c3.6,0,7.2,0,10.8,0c1.3,0,1.8,0.4,1.8,1.8c0,1.7,0,3.4,0,5.1c0,3.6-2.5,6.1-6.1,6.2c-0.4,0-0.9,0-1.5,0c0,0.7,0,1.3,0,2
		c0,2.1-1.3,3.4-3.4,3.4c-2,0-4.1,0-6.1,0c-2.2,0-3.5-1.3-3.5-3.5C94.7,120.2,94.7,119.6,94.7,118.8z M101,93.3
		c0.2-0.3,0.4-0.6,0.5-0.8c1.3-2.2,2.6-4.5,3.9-6.7c0.6-1.1,1.3-1.4,2.1-1c0.8,0.4,0.8,1.2,0.2,2.3c-0.4,0.7-0.8,1.3-1.2,2
		c-0.8,1.4-1.7,2.9-2.6,4.5c0.5-0.2,0.8-0.4,1.1-0.5c6.7-3.5,11.5-12.2,10.8-19.7c-0.1-1-0.4-2-0.6-3C105.8,72.4,98.7,84.9,101,93.3
		z M112.7,108.5c-7.7,0-15.2,0-22.8,0c0,1.4,0,2.7,0,4c0,0.3,0,0.6,0.1,0.9c0.2,1.6,1.4,2.8,3.1,2.8c5.5,0,11.1,0,16.6,0
		c1.7,0,3-1.3,3.1-2.9C112.7,111.7,112.7,110.1,112.7,108.5z M86.7,70c-3,8.1,3.3,20.3,11.6,23.3c-0.2-0.5-0.3-0.9-0.5-1.3
		c-1-1.7-2-3.5-3-5.2c-0.5-0.8-0.3-1.5,0.4-1.9c0.7-0.4,1.4-0.2,1.9,0.6c0.3,0.5,0.6,1.1,1,1.6c0.5-1.6,0.9-3.1,1.3-4.6
		c0.1-0.4,0.1-0.9-0.1-1.2c-1-2.3-2.4-4.3-4.1-6.1C92.9,72.6,90.1,70.8,86.7,70z M97.4,118.9c0,0.7,0,1.4,0,2c0,0.5,0.2,0.8,0.8,0.7
		c2.1,0,4.2,0,6.3,0c0.2,0,0.6-0.3,0.6-0.5c0.1-0.7,0-1.5,0-2.3C102.5,118.9,100,118.9,97.4,118.9z"/>
	<path class="st1" d="M68.2,68c0.3,0.1,0.8,0.2,1.2,0.3c1,0.3,2.1,0.5,3.1,0.8c0.7,0.2,1.1,0.9,0.9,1.6s-0.9,1.1-1.6,0.9
		c-1.4-0.3-2.7-0.7-4.1-1.1c-0.7-0.2-1.1-0.7-1-1.4C66.8,68.6,67.4,68.1,68.2,68z"/>
	<path class="st1" d="M85.1,53.1c-0.2-0.2-0.6-0.4-0.9-0.7c-0.7-1.2-1.4-2.4-2.1-3.6c-0.4-0.7-0.2-1.5,0.4-1.9s1.4-0.1,1.8,0.6
		c0.7,1.2,1.4,2.3,2,3.5C87,52.1,86.4,53.2,85.1,53.1z"/>
	<path class="st1" d="M130.2,69.7c-1,0-1.4-0.4-1.6-1c-0.2-0.7,0.1-1.3,0.8-1.5c1.5-0.5,2.9-0.8,4.4-1.2c0.7-0.2,1.2,0.2,1.4,0.9
		c0.2,0.6-0.1,1.2-0.6,1.4C133,68.9,131.5,69.3,130.2,69.7z"/>
	<path class="st1" d="M115.5,52.1c-1.2,0-1.8-1-1.4-1.8c0.7-1.3,1.5-2.6,2.3-3.9c0.4-0.6,1-0.7,1.7-0.4c0.6,0.3,0.9,1.1,0.6,1.7
		c-0.7,1.3-1.5,2.6-2.3,3.9C116.1,51.8,115.7,52,115.5,52.1z"/>
	<path class="st1" d="M77.2,93.3c-0.1,0.2-0.4,0.6-0.7,0.9c-1.2,0.7-2.4,1.4-3.6,2.1c-0.7,0.4-1.5,0.2-1.9-0.4s-0.2-1.4,0.6-1.8
		c1.2-0.7,2.4-1.4,3.6-2C76.2,91.4,77.3,92,77.2,93.3z"/>
	<path class="st1" d="M127.6,89.6c1.7,1.1,3.3,2,4.8,3.1c0.2,0.2,0.1,1-0.1,1.4c-0.3,0.6-1,0.7-1.5,0.4c-1.3-0.7-2.6-1.5-3.9-2.3
		c-0.5-0.3-0.7-0.9-0.5-1.4C126.7,90.4,127.1,90.1,127.6,89.6z"/>
</g>
</svg>
