<?xml version="1.0" encoding="utf-8"?>
<!-- Generator: Adobe Illustrator 23.1.0, SVG Export Plug-In . SVG Version: 6.00 Build 0)  -->
<svg version="1.1" id="Layer_1" xmlns="http://www.w3.org/2000/svg" xmlns:xlink="http://www.w3.org/1999/xlink" x="0px" y="0px"
	 viewBox="0 0 202 170" style="enable-background:new 0 0 202 170;" xml:space="preserve">
<style type="text/css">
	.st0{fill:#51658D;}
	.st1{fill:#FFFFFF;}
</style>
<g>
	<circle class="st0" cx="101" cy="85" r="70"/>
	<g>
		<path class="st1" d="M74,113c-0.6,3-2.1,4.3-5.1,4.3c-1.3,0-2.7,0-4,0c-2.6,0-4.5-1.9-4.5-4.5c0-7.9,0-15.9,0-23.8
			c0-2.5,1.7-4.4,4.2-4.5c1.7-0.1,3.4-0.1,5.2,0c2.1,0.1,3.4,1.2,4.2,3.6c0.9-0.3,1.8-0.6,2.7-0.8c2.8-0.8,5.5-1.4,8.5-1.1
			c1.9,0.2,3.5,1,5,2.1c1.3,1,2.7,2,4.1,2.8c3.8,2.3,7.7,4.5,11.5,6.7c3.3,1.9,4.2,3.9,3.5,7.7c1.4-0.3,2.7-0.6,4-0.8
			c6.9-1.5,13.8-3,20.7-4.4c3.4-0.7,6.8,1.6,7.5,4.8c0.8,3.4-1.1,6.8-4.6,7.7c-8.3,2.3-16.6,4.5-25,6.7c-3.3,0.9-6.7,1.7-9.9,2.7
			c-2.6,0.8-5,0.6-7.4-0.5c-2.7-1.3-5.4-2.8-8-4.2c-2.7-1.5-5.4-3.1-8.4-4C76.8,113,75.4,112.7,74,113z M74,110.3
			c3.9-0.2,7.2,1.3,10.5,3c1.3,0.7,2.5,1.4,3.8,2.1c2.6,1.3,5.1,2.7,7.7,4c1.7,0.8,3.4,1,5.2,0.3c0.8-0.3,1.7-0.5,2.5-0.7
			c10.8-2.9,21.5-5.8,32.3-8.7c2.2-0.6,3.4-2.6,2.9-4.6c-0.5-2.1-2.5-3.3-4.7-2.8c-7.4,1.5-14.8,3.1-22.3,4.7
			c-2,0.4-4.1,0.7-6.1,1.4c-2.1,0.7-3.9,0.6-5.8-0.5c-3.6-2.1-7.3-4.2-10.9-6.3c-0.2-0.1-0.5-0.3-0.7-0.4c-0.5-0.4-0.7-1-0.3-1.6
			c0.4-0.6,0.9-0.9,1.6-0.6c0.3,0.1,0.6,0.3,0.9,0.5c3.6,2.1,7.3,4.2,10.9,6.3c2.2,1.3,4.7,0.2,5.1-2.2c0.3-1.4-0.4-2.8-1.8-3.6
			c-4.3-2.5-8.7-5-13-7.5c-1.1-0.7-2.2-1.4-3.2-2.3c-1.9-1.7-4.1-2.3-6.5-1.9c-2.6,0.5-5.1,1.2-7.7,1.8c-0.6,0.1-0.8,0.5-0.8,1.1
			c0,5.9,0,11.9,0,17.8C74,109.7,74,110,74,110.3z M63,100.8c0,3.9,0,7.9,0,11.8c0,1.4,0.7,2,2,2c1.4,0,2.8,0,4.3,0
			c1.4,0,2.1-0.7,2.1-2.1c0-7.8,0-15.6,0-23.4c0-1.4-0.6-2.1-2-2.1s-2.8,0-4.2,0c-1.5,0-2.1,0.6-2.1,2.2C63,93,63,96.9,63,100.8z"/>
		<path class="st1" d="M122.6,52c1.6,0.6,3,1.3,4.7,2c0.3-0.4,0.7-0.9,1.2-1.4c1.1-1.1,2.3-1.3,3.5-0.2c1.6,1.4,3.1,2.9,4.5,4.5
			c1,1.1,0.9,2.3-0.2,3.4c-0.5,0.5-1,0.9-1.4,1.3c0.6,1.5,1.1,3,1.7,4.4c0.1,0.2,0.4,0.3,0.6,0.3c0.5,0,1.1,0,1.6,0
			c1.4,0.1,2.4,0.8,2.5,2.1c0.1,2.3,0.1,4.5,0,6.8c-0.1,1.3-1.1,2.2-2.4,2c-1.7-0.2-2.5,0.4-2.9,2c-0.1,0.7-0.6,1.4-0.9,2.1
			c-0.1,0.2,0,0.6,0.1,0.8c0.4,0.5,0.8,0.9,1.2,1.3c0.8,0.9,0.9,2,0.2,3c-1.4,1.9-3,3.5-4.9,4.9c-1,0.7-2.3,0.7-3-0.2
			c-1.1-1.5-2.3-1.6-3.7-0.6c-0.3,0.2-0.8,0.3-1.2,0.5c-1.2,0.4-1.2,0.4-1.2,1.8c0,0.9,0.1,1.8-0.6,2.4c-0.4,0.4-1,0.8-1.5,0.8
			c-2.2,0.1-4.5,0.1-6.7,0c-1.3-0.1-2.3-1.1-2.1-2.4c0.2-1.8-0.4-2.6-2.1-2.9c-0.7-0.1-1.3-0.5-1.9-0.9c-0.4-0.2-0.7-0.2-1,0.2
			c-0.4,0.4-0.8,0.8-1.2,1.2c-0.9,0.8-2,0.9-2.9,0.2c-1.9-1.4-3.6-3.1-5-5c-0.7-1-0.7-2.2,0.3-3c1.4-1.1,1.6-2.2,0.6-3.7
			c-0.4-0.5-0.5-1.3-0.7-1.9c-0.1-0.4-0.3-0.6-0.8-0.6s-1.1,0-1.6,0c-1.3-0.1-2.3-0.8-2.3-2.1c-0.1-2.3-0.1-4.5,0-6.8
			c0.1-1.3,1.1-2.2,2.4-2.1c1.7,0.2,2.6-0.4,2.9-2.1c0.1-0.7,0.6-1.3,0.9-2c0.1-0.2,0-0.6-0.1-0.8c-0.3-0.5-0.8-0.8-1.2-1.2
			c-0.8-0.9-0.9-2.1-0.2-3.1c1.4-1.9,3-3.5,4.9-4.9c1-0.7,2.1-0.6,3.1,0.2c0.6,0.5,1.1,1.3,1.7,1.4c0.6,0.1,1.3-0.6,2-0.9
			c0.5-0.2,1.1-0.5,1.7-0.6c0.7-0.1,0.9-0.5,0.8-1.1c-0.3-3.3,1.1-3.8,3.6-3.9c1.8,0,3.5,0,5.3,0.2c1.3,0.1,2.1,1.1,2.1,2.4
			C122.7,50.7,122.6,51.4,122.6,52z M139,68.9c-1.2,0-2.1,0-3,0c-0.8,0-1.3-0.4-1.5-1.2c-0.7-1.8-1.4-3.5-2.2-5.3
			c-0.4-0.8-0.4-1.4,0.3-2s1.4-1.3,2.2-2c-1.5-1.5-2.8-2.8-4.2-4.2c-0.8,0.8-1.4,1.4-2,2c-0.7,0.7-1.2,0.7-2.1,0.3
			c-1.7-0.8-3.3-1.5-5-2.1c-1.1-0.4-1.3-0.6-1.3-1.7c0-0.9,0-1.8,0-2.7c-2,0-3.8,0-5.8,0c0,1.1,0,2,0,2.9s-0.4,1.3-1.2,1.6
			c-1.8,0.7-3.5,1.4-5.2,2.1c-0.9,0.4-1.4,0.5-2-0.3c-0.6-0.7-1.2-1.3-2-2.1c-1.5,1.5-2.8,2.8-4.2,4.2c0.8,0.8,1.4,1.4,2.1,2
			c0.7,0.7,0.7,1.1,0.3,2c-0.8,1.7-1.5,3.5-2.2,5.3c-0.3,0.9-0.6,1.2-1.6,1.2c-0.9,0-1.8,0-2.8,0c0,2,0,3.8,0,5.8c1,0,1.9,0,2.7,0
			c1.1,0,1.3,0.3,1.7,1.3c0.6,1.7,1.4,3.4,2.1,5.1c0.4,1,0.5,1.4-0.3,2.1c-0.6,0.6-1.3,1.2-2,2c1.4,1.4,2.8,2.7,4.2,4.2
			c0.7-0.8,1.3-1.4,1.9-2c0.8-0.8,1.2-0.8,2.2-0.3c1.6,0.8,3.3,1.4,5,2.1c1.1,0.4,1.4,0.7,1.4,1.8c0,0.9,0,1.7,0,2.7
			c2,0,3.8,0,5.8,0c0-1,0-1.9,0-2.8c0-1.1,0.3-1.3,1.3-1.7c1.7-0.6,3.4-1.4,5.1-2.1c0.9-0.4,1.4-0.4,2.1,0.3c0.6,0.6,1.2,1.3,1.9,2
			c1.4-1.4,2.8-2.8,4.2-4.2c-0.8-0.7-1.4-1.3-2-1.9c-0.8-0.8-0.7-1.2-0.3-2.2c0.8-1.7,1.5-3.3,2.1-5c0.4-1,0.6-1.3,1.8-1.3
			c0.9,0,1.7,0,2.6,0c0.1-0.7,0.2-1.3,0.2-2C139,71.5,139,70.3,139,68.9z"/>
		<path class="st1" d="M67.1,89.6c1.2,0,2.2,1,2.2,2.2s-1,2.2-2.2,2.2C66,94,65,93,65,91.8C64.9,90.6,65.9,89.6,67.1,89.6z"/>
		<path class="st1" d="M130.2,71.9c0,7.2-5.9,13.1-13.2,13.1c-7.2,0-13.1-6-13.1-13.1c0-7.3,5.9-13.2,13.1-13.1
			C124.4,58.7,130.3,64.6,130.2,71.9z M127.6,71.9c0.1-5.8-4.6-10.5-10.5-10.6c-5.7,0-10.4,4.7-10.5,10.4
			c-0.1,5.8,4.6,10.6,10.3,10.6C122.8,82.4,127.6,77.8,127.6,71.9z"/>
		<path class="st1" d="M115.6,73.3c1.6-1.8,3.1-3.5,4.6-5.3c0.1-0.1,0.2-0.3,0.4-0.4c0.6-0.5,1.3-0.6,1.8-0.1s0.6,1.3,0.1,1.8
			c-1.9,2.3-3.9,4.5-5.9,6.7c-0.6,0.7-1.3,0.7-2,0.1c-1-1-2-2-3-3c-0.6-0.6-0.6-1.4,0-1.9c0.5-0.5,1.3-0.5,1.9,0.1
			C114.3,71.9,114.9,72.6,115.6,73.3z"/>
	</g>
</g>
</svg>
