<?xml version="1.0" encoding="utf-8"?>
<!-- Generator: Adobe Illustrator 23.1.0, SVG Export Plug-In . SVG Version: 6.00 Build 0)  -->
<svg version="1.1" id="Layer_1" xmlns="http://www.w3.org/2000/svg" xmlns:xlink="http://www.w3.org/1999/xlink" x="0px" y="0px"
	 width="56" height="56" viewBox="0 0 56 56" style="enable-background:new 0 0 100 100;" xml:space="preserve">
<style type="text/css">
	.st0{fill:#51658D;}
	.st1{fill:#FFFFFF;}
</style>
<circle class="st0" cx="28" cy="28.8" r="27.4"/>
<g>
	<path class="st1" d="M33.6,21c0-0.2-0.2-0.4-0.4-0.4c-0.2,0-0.4,0.2-0.4,0.4c0,0.2,0.2,0.4,0.4,0.4C33.5,21.5,33.7,21.3,33.6,21z"
		/>
	<path class="st1" d="M27.9,39.7c-1-0.5-1.9-1-2.9-1.5c-2.5-1.3-5-2.6-7.5-3.9c-0.2-0.1-0.3-0.2-0.3-0.4c0-0.2,0.2-0.3,0.3-0.4
		c1.2-0.6,2.5-1.3,3.7-1.9c0.1,0,0.1-0.1,0.2-0.1c-0.1,0-0.1-0.1-0.2-0.1c-1.2-0.6-2.4-1.3-3.7-1.9c-0.1,0-0.1-0.1-0.2-0.1
		c-0.2-0.1-0.3-0.2-0.3-0.4c0-0.2,0.1-0.3,0.3-0.4c0.7-0.4,1.4-0.7,2.1-1.1c0.6-0.3,1.2-0.6,1.7-0.9c0.1,0,0.1-0.1,0.2-0.1
		c-0.1,0-0.1-0.1-0.2-0.1c-1.2-0.7-2.5-1.3-3.7-1.9c-0.2-0.1-0.3-0.2-0.3-0.4c0-0.2,0.2-0.3,0.3-0.4c3.4-1.8,6.8-3.6,10.2-5.3
		c0.2-0.1,0.4-0.1,0.6,0c1.1,0.6,2.2,1.2,3.4,1.7c0.3,0.2,0.4,0.4,0.3,0.6c-0.1,0.2-0.4,0.3-0.6,0.2c-0.8-0.4-1.5-0.8-2.3-1.2
		c-0.3-0.1-0.6-0.3-0.9-0.4c-0.1,0-0.2,0-0.2,0c-3.1,1.6-6.2,3.2-9.3,4.8c0,0,0,0-0.1,0c0.1,0,0.1,0.1,0.1,0.1
		c3.1,1.6,6.2,3.2,9.2,4.8c0.1,0.1,0.2,0,0.3,0c2.6-1.3,5.2-2.7,7.8-4c0.5-0.3,1-0.5,1.6-0.8c-0.3-0.2-0.6-0.3-0.8-0.4
		c-0.6-0.3-1.3-0.7-1.9-1c-0.1-0.1-0.3-0.2-0.3-0.3c0-0.1,0.1-0.3,0.2-0.4c0.1-0.1,0.3-0.1,0.5,0c0.5,0.3,1.1,0.6,1.6,0.8
		c0.6,0.3,1.1,0.6,1.7,0.9c0.2,0.1,0.3,0.2,0.4,0.3c0,0.1,0,0.2,0,0.3c-0.1,0.1-0.3,0.3-0.4,0.3c-1.2,0.6-2.5,1.3-3.7,1.9
		c-0.1,0-0.1,0.1-0.2,0.1c0.1,0.1,0.1,0.1,0.2,0.1c1.2,0.6,2.5,1.3,3.7,1.9c0.2,0.1,0.3,0.2,0.4,0.3c0,0.1,0,0.2,0,0.3
		c-0.1,0.1-0.3,0.3-0.4,0.3c-1.2,0.7-2.5,1.3-3.7,1.9c-0.1,0-0.1,0.1-0.2,0.1c0.1,0,0.1,0.1,0.2,0.1c1.2,0.6,2.5,1.3,3.7,1.9
		c0.2,0.1,0.3,0.2,0.4,0.3c0,0.1,0,0.2,0,0.3c-0.1,0.1-0.2,0.3-0.4,0.3c-2.4,1.3-4.9,2.5-7.3,3.8c-1,0.5-2.1,1.1-3.1,1.6
		C28,39.7,28,39.7,27.9,39.7z M18.5,33.8c0.1,0,0.1,0.1,0.1,0.1c3.1,1.6,6.1,3.2,9.2,4.8c0.1,0,0.2,0,0.3,0c3.1-1.6,6.2-3.2,9.2-4.8
		c0,0,0.1-0.1,0.1-0.1c-0.1,0-0.1-0.1-0.2-0.1c-1.2-0.6-2.3-1.2-3.5-1.8c-0.1-0.1-0.2-0.1-0.4,0c-1.7,0.9-3.4,1.8-5.1,2.7
		c-0.2,0.1-0.4,0.1-0.7,0c-1.7-0.9-3.4-1.8-5.1-2.7c-0.1-0.1-0.2-0.1-0.3,0c-1.2,0.6-2.3,1.2-3.5,1.8C18.6,33.7,18.6,33.8,18.5,33.8
		z M37.5,28.8c-0.5-0.3-1-0.5-1.5-0.8c-0.1-0.1-0.2-0.1-0.4,0c-2.5,1.3-5,2.6-7.6,4c-0.6,0.3-1.1,0.6-1.7,0.9c0.1,0,0.1,0.1,0.2,0.1
		c0.4,0.2,0.8,0.4,1.2,0.6c0.2,0.1,0.4,0.1,0.6,0c1.9-1,3.9-2,5.9-3C35.2,30,36.4,29.4,37.5,28.8z M34.9,27.4
		c-0.4-0.2-0.7-0.4-1.1-0.6c-0.1-0.1-0.2-0.1-0.3,0c-1.7,0.9-3.4,1.8-5.1,2.7c-0.2,0.1-0.4,0.2-0.6,0c-0.1-0.1-0.2,0-0.3,0
		c-1,0.5-1.9,1-2.9,1.5c-0.3,0.1-0.5,0.3-0.8,0.4c0.5,0.3,1,0.5,1.5,0.8c0.1,0.1,0.2,0.1,0.4,0c2.6-1.4,5.3-2.7,7.9-4.1
		C33.9,27.9,34.4,27.7,34.9,27.4z M24.1,27.6c-0.6-0.3-1.1-0.6-1.6-0.8c-0.1,0-0.1,0-0.2,0c-1.2,0.6-2.4,1.2-3.6,1.9
		c0,0-0.1,0.1-0.2,0.1c0.4,0.2,0.8,0.4,1.1,0.6c0.4,0.3,0.7,0.2,1.1,0C21.8,28.8,22.9,28.2,24.1,27.6z M21.1,30.1
		c0.1,0,0.1,0.1,0.2,0.1c0.4,0.2,0.9,0.5,1.3,0.7c0.1,0.1,0.2,0.1,0.4,0c1.2-0.6,2.4-1.2,3.5-1.8c0.1,0,0.1-0.1,0.2-0.1
		c-0.5-0.3-1.1-0.6-1.6-0.8c-0.1,0-0.2,0-0.2,0c-0.7,0.4-1.4,0.7-2.1,1.1C22.2,29.6,21.7,29.8,21.1,30.1z"/>
	<path class="st1" d="M33.6,21c0,0.2-0.2,0.4-0.4,0.4c-0.2,0-0.4-0.2-0.4-0.4c0-0.2,0.2-0.4,0.4-0.4C33.4,20.6,33.6,20.8,33.6,21z"
		/>
</g>
</svg>
