<?xml version="1.0" encoding="utf-8"?>
<!-- Generator: Adobe Illustrator 23.1.0, SVG Export Plug-In . SVG Version: 6.00 Build 0)  -->
<svg version="1.1" id="Layer_1" xmlns="http://www.w3.org/2000/svg" xmlns:xlink="http://www.w3.org/1999/xlink" x="0px" y="0px"
	 viewBox="0 0 100 100" style="enable-background:new 0 0 100 100;" xml:space="preserve">
<style type="text/css">
	.st0{fill:#51658D;}
	.st1{fill:#FFFFFF;}
	.st2{fill:#FCFCFC;}
</style>
<circle class="st0" cx="-529.1" cy="50.8" r="27.4"/>
<g>
	<path class="st1" d="M-523.5,43c0-0.2-0.2-0.4-0.4-0.4c-0.2,0-0.4,0.2-0.4,0.4c0,0.2,0.2,0.4,0.4,0.4
		C-523.7,43.5-523.5,43.3-523.5,43z"/>
	<path class="st1" d="M-529.3,61.7c-1-0.5-1.9-1-2.9-1.5c-2.5-1.3-5-2.6-7.5-3.9c-0.2-0.1-0.3-0.2-0.3-0.4c0-0.2,0.2-0.3,0.3-0.4
		c1.2-0.6,2.5-1.3,3.7-1.9c0.1,0,0.1-0.1,0.2-0.1c-0.1,0-0.1-0.1-0.2-0.1c-1.2-0.6-2.4-1.3-3.7-1.9c-0.1,0-0.1-0.1-0.2-0.1
		c-0.2-0.1-0.3-0.2-0.3-0.4c0-0.2,0.1-0.3,0.3-0.4c0.7-0.4,1.4-0.7,2.1-1.1c0.6-0.3,1.2-0.6,1.7-0.9c0.1,0,0.1-0.1,0.2-0.1
		c-0.1,0-0.1-0.1-0.2-0.1c-1.2-0.7-2.5-1.3-3.7-1.9c-0.2-0.1-0.3-0.2-0.3-0.4c0-0.2,0.2-0.3,0.3-0.4c3.4-1.8,6.8-3.6,10.2-5.3
		c0.2-0.1,0.4-0.1,0.6,0c1.1,0.6,2.2,1.2,3.4,1.7c0.3,0.2,0.4,0.4,0.3,0.6c-0.1,0.2-0.4,0.3-0.6,0.2c-0.8-0.4-1.5-0.8-2.3-1.2
		c-0.3-0.1-0.6-0.3-0.9-0.4c-0.1,0-0.2,0-0.2,0c-3.1,1.6-6.2,3.2-9.3,4.8c0,0,0,0-0.1,0c0.1,0,0.1,0.1,0.1,0.1
		c3.1,1.6,6.2,3.2,9.2,4.8c0.1,0.1,0.2,0,0.3,0c2.6-1.3,5.2-2.7,7.8-4c0.5-0.3,1-0.5,1.6-0.8c-0.3-0.2-0.6-0.3-0.8-0.4
		c-0.6-0.3-1.3-0.7-1.9-1c-0.1-0.1-0.3-0.2-0.3-0.3c0-0.1,0.1-0.3,0.2-0.4c0.1-0.1,0.3-0.1,0.5,0c0.5,0.3,1.1,0.6,1.6,0.8
		c0.6,0.3,1.1,0.6,1.7,0.9c0.2,0.1,0.3,0.2,0.4,0.3c0,0.1,0,0.2,0,0.3c-0.1,0.1-0.3,0.3-0.4,0.3c-1.2,0.6-2.5,1.3-3.7,1.9
		c-0.1,0-0.1,0.1-0.2,0.1c0.1,0.1,0.1,0.1,0.2,0.1c1.2,0.6,2.5,1.3,3.7,1.9c0.2,0.1,0.3,0.2,0.4,0.3c0,0.1,0,0.2,0,0.3
		c-0.1,0.1-0.3,0.3-0.4,0.3c-1.2,0.7-2.5,1.3-3.7,1.9c-0.1,0-0.1,0.1-0.2,0.1c0.1,0,0.1,0.1,0.2,0.1c1.2,0.6,2.5,1.3,3.7,1.9
		c0.2,0.1,0.3,0.2,0.4,0.3c0,0.1,0,0.2,0,0.3c-0.1,0.1-0.2,0.3-0.4,0.3c-2.4,1.3-4.9,2.5-7.3,3.8c-1,0.5-2.1,1.1-3.1,1.6
		C-529.1,61.7-529.2,61.7-529.3,61.7z M-538.6,55.8c0.1,0,0.1,0.1,0.1,0.1c3.1,1.6,6.1,3.2,9.2,4.8c0.1,0,0.2,0,0.3,0
		c3.1-1.6,6.2-3.2,9.2-4.8c0,0,0.1-0.1,0.1-0.1c-0.1,0-0.1-0.1-0.2-0.1c-1.2-0.6-2.3-1.2-3.5-1.8c-0.1-0.1-0.2-0.1-0.4,0
		c-1.7,0.9-3.4,1.8-5.1,2.7c-0.2,0.1-0.4,0.1-0.7,0c-1.7-0.9-3.4-1.8-5.1-2.7c-0.1-0.1-0.2-0.1-0.3,0c-1.2,0.6-2.3,1.2-3.5,1.8
		C-538.5,55.7-538.6,55.8-538.6,55.8z M-519.6,50.8c-0.5-0.3-1-0.5-1.5-0.8c-0.1-0.1-0.2-0.1-0.4,0c-2.5,1.3-5,2.6-7.6,4
		c-0.6,0.3-1.1,0.6-1.7,0.9c0.1,0,0.1,0.1,0.2,0.1c0.4,0.2,0.8,0.4,1.2,0.6c0.2,0.1,0.4,0.1,0.6,0c1.9-1,3.9-2,5.9-3
		C-521.9,52-520.8,51.4-519.6,50.8z M-522.2,49.4c-0.4-0.2-0.7-0.4-1.1-0.6c-0.1-0.1-0.2-0.1-0.3,0c-1.7,0.9-3.4,1.8-5.1,2.7
		c-0.2,0.1-0.4,0.2-0.6,0c-0.1-0.1-0.2,0-0.3,0c-1,0.5-1.9,1-2.9,1.5c-0.3,0.1-0.5,0.3-0.8,0.4c0.5,0.3,1,0.5,1.5,0.8
		c0.1,0.1,0.2,0.1,0.4,0c2.6-1.4,5.3-2.7,7.9-4.1C-523.2,49.9-522.7,49.7-522.2,49.4z M-533.1,49.6c-0.6-0.3-1.1-0.6-1.6-0.8
		c-0.1,0-0.1,0-0.2,0c-1.2,0.6-2.4,1.2-3.6,1.9c0,0-0.1,0.1-0.2,0.1c0.4,0.2,0.8,0.4,1.1,0.6c0.4,0.3,0.7,0.2,1.1,0
		C-535.3,50.8-534.2,50.2-533.1,49.6z M-536,52.1c0.1,0,0.1,0.1,0.2,0.1c0.4,0.2,0.9,0.5,1.3,0.7c0.1,0.1,0.2,0.1,0.4,0
		c1.2-0.6,2.4-1.2,3.5-1.8c0.1,0,0.1-0.1,0.2-0.1c-0.5-0.3-1.1-0.6-1.6-0.8c-0.1,0-0.2,0-0.2,0c-0.7,0.4-1.4,0.7-2.1,1.1
		C-534.9,51.6-535.5,51.8-536,52.1z"/>
	<path class="st1" d="M-523.5,43c0,0.2-0.2,0.4-0.4,0.4c-0.2,0-0.4-0.2-0.4-0.4c0-0.2,0.2-0.4,0.4-0.4
		C-523.7,42.6-523.5,42.8-523.5,43z"/>
</g>
<circle class="st0" cx="-444.4" cy="50.6" r="27.4"/>
<g>
	<path class="st1" d="M-444,61.5c0-0.1,0-0.2,0-0.3c0-0.4,0-0.9,0-1.3c0-0.2-0.1-0.4-0.3-0.5c-0.3-0.1-0.5,0.1-0.5,0.5
		c0,0.5,0,1.1,0,1.7c-0.4-0.2-0.8-0.4-1.3-0.6c-0.3-0.1-0.5-0.1-0.6,0.2c-0.1,0.2,0,0.5,0.3,0.6c0.6,0.3,1.2,0.6,1.8,0.9
		c0.1,0.1,0.3,0.1,0.4,0c0.7-0.3,1.4-0.6,2-1c0.2-0.1,0.3-0.3,0.2-0.5c-0.1-0.2-0.3-0.3-0.5-0.2c-0.1,0-0.1,0.1-0.2,0.1
		C-443.2,61.2-443.6,61.3-444,61.5z"/>
	<path class="st1" d="M-455.7,56c0-0.6,0-1.1,0-1.6c0-0.3-0.2-0.5-0.4-0.5c-0.3,0-0.4,0.2-0.4,0.5c0,0.7,0,1.4,0,2.1
		c0,0.2,0,0.4,0.3,0.6c0.7,0.3,1.3,0.6,2,0.9c0.3,0.1,0.6-0.1,0.6-0.4c0-0.2-0.1-0.3-0.3-0.4c-0.3-0.2-0.7-0.3-1-0.5
		c0.4-0.2,0.8-0.3,1.1-0.5c0.1-0.1,0.2-0.3,0.2-0.4c0-0.1-0.2-0.3-0.3-0.4c-0.1,0-0.3,0-0.4,0.1C-454.8,55.6-455.2,55.8-455.7,56z"
		/>
	<path class="st1" d="M-433.2,56c-0.1-0.1-0.3-0.1-0.4-0.2c-0.3-0.2-0.7-0.3-1-0.5c-0.2-0.1-0.5,0-0.6,0.2c-0.1,0.2,0,0.4,0.2,0.6
		c0.2,0.1,0.4,0.2,0.5,0.3c0.2,0.1,0.4,0.2,0.6,0.3c-0.4,0.2-0.7,0.4-1.1,0.5c-0.3,0.1-0.3,0.3-0.2,0.6c0.1,0.2,0.4,0.3,0.6,0.2
		c0.6-0.3,1.1-0.6,1.7-0.8c0.3-0.1,0.4-0.4,0.4-0.7c0-0.7,0-1.3,0-2c0-0.3-0.2-0.5-0.4-0.5c-0.3,0-0.4,0.2-0.4,0.5
		C-433.2,55-433.2,55.4-433.2,56z"/>
	<path class="st1" d="M-444.8,39.7c0,0.1,0,0.2,0,0.3c0,0.4,0,0.8,0,1.2c0,0.2,0.1,0.4,0.4,0.4c0.2,0,0.4-0.1,0.5-0.3
		c0-0.1,0-0.2,0-0.3c0-0.4,0-0.9,0-1.3c0.4,0.2,0.9,0.4,1.3,0.6c0.3,0.1,0.5,0.1,0.6-0.2c0.1-0.2,0-0.5-0.3-0.6
		c-0.6-0.3-1.2-0.6-1.8-0.9c-0.1-0.1-0.3-0.1-0.4,0c-0.7,0.3-1.3,0.6-2,1c-0.2,0.1-0.3,0.4-0.2,0.6c0.1,0.2,0.3,0.3,0.5,0.2
		c0.1,0,0.2-0.1,0.3-0.1C-445.6,40.1-445.2,39.9-444.8,39.7z"/>
	<path class="st1" d="M-433.2,45.3c0,0.5,0,1,0,1.4c0,0.3,0.2,0.5,0.4,0.5c0.3,0,0.4-0.2,0.4-0.5c0-0.7,0-1.4,0-2
		c0-0.2-0.1-0.4-0.3-0.4c-0.6-0.3-1.2-0.6-1.8-0.9c-0.3-0.1-0.6-0.1-0.7,0.2c-0.1,0.2,0,0.5,0.3,0.6c0.3,0.2,0.7,0.3,1,0.5
		c-0.4,0.2-0.7,0.3-1,0.5c-0.3,0.1-0.4,0.4-0.3,0.6c0.1,0.2,0.4,0.3,0.7,0.2C-434,45.7-433.6,45.5-433.2,45.3z"/>
	<path class="st1" d="M-455,44.6c0.4-0.2,0.7-0.3,1-0.5c0.3-0.2,0.4-0.4,0.3-0.6c-0.1-0.3-0.4-0.3-0.7-0.2c-0.6,0.3-1.2,0.6-1.8,0.9
		c-0.2,0.1-0.3,0.2-0.3,0.4c0,0.7,0,1.4,0,2.1c0,0.2,0.1,0.4,0.4,0.4c0.3,0.1,0.5-0.1,0.5-0.4c0-0.5,0-0.9,0-1.5
		c0.5,0.2,0.9,0.4,1.3,0.6c0.3,0.1,0.5,0.1,0.7-0.2c0.1-0.2,0-0.5-0.3-0.6C-454.3,44.9-454.7,44.8-455,44.6z"/>
	<path class="st1" d="M-439.9,40.8c-0.2,0-0.4,0.1-0.4,0.3c-0.1,0.2,0.1,0.4,0.3,0.5c0.8,0.4,1.6,0.8,2.5,1.2c0.1,0,0.2,0.1,0.3,0.1
		c0.1-0.1,0.3-0.2,0.3-0.3c0.1-0.2-0.1-0.4-0.3-0.5c-0.8-0.4-1.7-0.8-2.5-1.2C-439.7,40.8-439.8,40.8-439.9,40.8z"/>
	<path class="st1" d="M-436.9,58.9c0-0.4-0.3-0.6-0.6-0.5c-0.9,0.4-1.7,0.8-2.6,1.2c-0.2,0.1-0.3,0.3-0.2,0.6
		c0.1,0.2,0.3,0.3,0.6,0.2c0.8-0.4,1.7-0.8,2.5-1.2C-437,59.2-436.9,59-436.9,58.9z"/>
	<path class="st1" d="M-451.6,42.9c0.1,0,0.2-0.1,0.3-0.1c0.8-0.4,1.7-0.8,2.5-1.2c0,0,0,0,0,0c0.2-0.1,0.3-0.4,0.2-0.6
		c-0.1-0.2-0.3-0.3-0.6-0.2c-0.7,0.3-1.5,0.7-2.2,1c-0.1,0.1-0.3,0.1-0.4,0.2c-0.2,0.1-0.2,0.3-0.2,0.5
		C-451.9,42.7-451.7,42.8-451.6,42.9z"/>
	<path class="st1" d="M-451.6,58.4c-0.1,0.1-0.3,0.2-0.3,0.4c-0.1,0.2,0,0.4,0.2,0.5c0.9,0.4,1.7,0.8,2.6,1.2c0.2,0.1,0.5,0,0.6-0.2
		c0.1-0.2,0-0.5-0.3-0.6c-0.8-0.4-1.6-0.8-2.5-1.2C-451.4,58.4-451.4,58.4-451.6,58.4z"/>
	<path class="st1" d="M-455.7,50.6c0-0.4,0-0.8,0-1.2c0-0.3-0.2-0.5-0.4-0.5c-0.2,0-0.4,0.2-0.4,0.5c0,0.8,0,1.6,0,2.4
		c0,0.3,0.2,0.5,0.4,0.5c0.3,0,0.4-0.2,0.4-0.5C-455.6,51.4-455.7,51-455.7,50.6z"/>
	<path class="st1" d="M-433.2,50.6c0,0.4,0,0.8,0,1.2c0,0.3,0.2,0.5,0.4,0.5c0.3,0,0.4-0.2,0.4-0.5c0-0.8,0-1.6,0-2.4
		c0-0.3-0.2-0.5-0.4-0.5c-0.2,0-0.4,0.2-0.4,0.5C-433.2,49.8-433.2,50.2-433.2,50.6z"/>
	<path class="st1" d="M-450.3,50.6c0-0.9,0-1.7,0-2.6c0-0.2-0.1-0.3-0.2-0.3c-0.4-0.2-0.9-0.4-1.3-0.6c-0.3-0.1-0.4-0.4-0.3-0.6
		c0.1-0.2,0.4-0.3,0.6-0.2c0.4,0.2,0.8,0.4,1.2,0.6c0.1,0,0.3,0.1,0.4,0c1.6-0.7,3.2-1.5,4.8-2.3c0.2-0.1,0.2-0.2,0.2-0.4
		c0-0.5,0-1.1,0-1.6c0-0.3,0.2-0.5,0.4-0.5c0.3,0,0.4,0.2,0.4,0.5c0,0.5,0,1.1,0,1.6c0,0.2,0,0.2,0.2,0.3c1.6,0.8,3.2,1.5,4.8,2.3
		c0.1,0,0.2,0,0.3,0c0.5-0.2,0.9-0.4,1.3-0.6c0.3-0.2,0.6-0.1,0.7,0.1c0.1,0.3,0,0.5-0.3,0.6c-0.5,0.2-1,0.5-1.5,0.7
		c-0.1,0.1-0.2,0.1-0.2,0.3c0,1.7,0,3.5,0,5.2c0,0.2,0.1,0.2,0.2,0.3c0.4,0.2,0.9,0.4,1.3,0.6c0.4,0.2,0.5,0.4,0.4,0.7
		c-0.1,0.3-0.4,0.3-0.7,0.1c-0.4-0.2-0.8-0.4-1.2-0.6c-0.1,0-0.3-0.1-0.4,0c-1.6,0.7-3.2,1.5-4.8,2.3c-0.2,0.1-0.2,0.2-0.2,0.3
		c0,0.4,0,0.8,0,1.1c0,0.3-0.2,0.5-0.4,0.5c-0.3,0-0.4-0.2-0.4-0.5c0-0.4,0-0.8,0-1.2c0-0.2,0-0.2-0.2-0.3c-1.6-0.8-3.2-1.5-4.8-2.3
		c-0.1,0-0.2,0-0.3,0c-0.4,0.2-0.8,0.4-1.2,0.6c-0.4,0.2-0.6,0.1-0.7-0.1c-0.1-0.3,0-0.5,0.4-0.6c0.4-0.2,0.8-0.4,1.3-0.6
		c0.1-0.1,0.2-0.1,0.2-0.3C-450.3,52.4-450.3,51.5-450.3,50.6z M-444,55.8c0.1-0.1,0.2-0.1,0.3-0.1c1.3-0.6,2.7-1.3,4-1.9
		c0.2-0.1,0.2-0.2,0.2-0.4c0-1.6,0-3.2,0-4.8c0-0.1,0-0.2,0-0.2c-0.1,0-0.1,0-0.1,0c-1.4,0.7-2.9,1.4-4.3,2.1
		c-0.1,0-0.1,0.2-0.1,0.3c0,0.8,0,1.6,0,2.4C-444,53.9-444,54.8-444,55.8z M-449.4,48.2c0,1.7,0,3.4,0,5.1c0,0.2,0.1,0.3,0.3,0.4
		c1.4,0.6,2.7,1.3,4.1,1.9c0.1,0,0.1,0.1,0.2,0.1c0-1.8,0-3.5,0-5.2c0-0.1-0.1-0.2-0.2-0.2c-0.7-0.3-1.4-0.7-2.1-1
		C-447.9,49-448.6,48.6-449.4,48.2z M-439.8,47.5c-0.1,0-0.1-0.1-0.1-0.1c-1.4-0.7-2.9-1.4-4.3-2c-0.1,0-0.2,0-0.3,0
		c-1.4,0.7-2.8,1.3-4.2,2c-0.1,0-0.1,0.1-0.2,0.1c1.5,0.7,3,1.4,4.4,2.1c0.1,0,0.2,0,0.3,0c0.5-0.2,0.9-0.4,1.4-0.7
		C-441.8,48.4-440.9,48-439.8,47.5z"/>
	<path class="st1" d="M-444,61.5c0.4-0.2,0.8-0.4,1.1-0.5c0.1,0,0.1-0.1,0.2-0.1c0.2-0.1,0.4,0,0.5,0.2c0.1,0.2,0.1,0.4-0.2,0.5
		c-0.7,0.3-1.3,0.7-2,1c-0.1,0-0.3,0-0.4,0c-0.6-0.3-1.2-0.6-1.8-0.9c-0.3-0.1-0.4-0.4-0.3-0.6c0.1-0.2,0.3-0.3,0.6-0.2
		c0.4,0.2,0.8,0.4,1.3,0.6c0-0.6,0-1.1,0-1.7c0-0.3,0.2-0.5,0.5-0.5c0.2,0.1,0.3,0.2,0.3,0.5c0,0.4,0,0.9,0,1.3
		C-444,61.3-444,61.4-444,61.5z"/>
	<path class="st1" d="M-455.7,56c0.5-0.2,0.9-0.4,1.3-0.6c0.1-0.1,0.3-0.1,0.4-0.1c0.1,0.1,0.3,0.2,0.3,0.4c0,0.1-0.1,0.3-0.2,0.4
		c-0.3,0.2-0.7,0.4-1.1,0.5c0.4,0.2,0.7,0.3,1,0.5c0.2,0.1,0.3,0.2,0.3,0.4c0,0.3-0.3,0.5-0.6,0.4c-0.7-0.3-1.3-0.6-2-0.9
		c-0.2-0.1-0.3-0.3-0.3-0.6c0-0.7,0-1.4,0-2.1c0-0.3,0.2-0.5,0.4-0.5c0.2,0,0.4,0.2,0.4,0.5C-455.6,54.9-455.7,55.4-455.7,56z"/>
	<path class="st1" d="M-433.2,56c0-0.5,0-1,0-1.5c0-0.3,0.2-0.5,0.4-0.5c0.3,0,0.4,0.2,0.4,0.5c0,0.7,0,1.3,0,2
		c0,0.3-0.1,0.5-0.4,0.7c-0.6,0.3-1.1,0.5-1.7,0.8c-0.3,0.1-0.5,0.1-0.6-0.2c-0.1-0.2,0-0.4,0.2-0.6c0.3-0.2,0.7-0.3,1.1-0.5
		c-0.2-0.1-0.4-0.2-0.6-0.3c-0.2-0.1-0.4-0.2-0.5-0.3c-0.2-0.1-0.3-0.3-0.2-0.6c0.1-0.2,0.3-0.3,0.6-0.2c0.3,0.1,0.7,0.3,1,0.5
		C-433.4,55.9-433.3,55.9-433.2,56z"/>
	<path class="st1" d="M-444.8,39.7c-0.4,0.2-0.7,0.3-1.1,0.5c-0.1,0-0.2,0.1-0.3,0.1c-0.2,0.1-0.4,0-0.5-0.2c-0.1-0.2,0-0.5,0.2-0.6
		c0.7-0.3,1.3-0.7,2-1c0.1,0,0.3,0,0.4,0c0.6,0.3,1.2,0.6,1.8,0.9c0.3,0.1,0.4,0.4,0.3,0.6c-0.1,0.2-0.4,0.3-0.6,0.2
		c-0.4-0.2-0.8-0.4-1.3-0.6c0,0.5,0,0.9,0,1.3c0,0.1,0,0.2,0,0.3c-0.1,0.2-0.2,0.4-0.5,0.3c-0.2,0-0.4-0.2-0.4-0.4
		c0-0.4,0-0.8,0-1.2C-444.9,40-444.8,39.9-444.8,39.7z"/>
	<path class="st1" d="M-433.2,45.3c-0.5,0.2-0.9,0.4-1.3,0.6c-0.3,0.1-0.5,0.1-0.7-0.2c-0.1-0.2,0-0.5,0.3-0.6
		c0.3-0.2,0.7-0.3,1-0.5c-0.4-0.2-0.7-0.3-1-0.5c-0.3-0.1-0.4-0.4-0.3-0.6c0.1-0.2,0.4-0.3,0.7-0.2c0.6,0.3,1.2,0.6,1.8,0.9
		c0.2,0.1,0.3,0.2,0.3,0.4c0,0.7,0,1.4,0,2c0,0.3-0.2,0.5-0.4,0.5c-0.2,0-0.4-0.2-0.4-0.5C-433.2,46.2-433.2,45.8-433.2,45.3z"/>
	<path class="st1" d="M-455,44.6c0.4,0.2,0.7,0.3,1,0.5c0.3,0.1,0.4,0.4,0.3,0.6c-0.1,0.2-0.4,0.3-0.7,0.2c-0.4-0.2-0.8-0.4-1.3-0.6
		c0,0.5,0,1,0,1.5c0,0.3-0.2,0.5-0.5,0.4c-0.2-0.1-0.3-0.2-0.4-0.4c0-0.7,0-1.4,0-2.1c0-0.2,0.1-0.4,0.3-0.4
		c0.6-0.3,1.2-0.6,1.8-0.9c0.3-0.2,0.6-0.1,0.7,0.2c0.1,0.2,0,0.5-0.3,0.6C-454.3,44.3-454.7,44.4-455,44.6z"/>
	<path class="st1" d="M-439.9,40.8c0,0,0.1,0,0.2,0.1c0.8,0.4,1.7,0.8,2.5,1.2c0.2,0.1,0.3,0.3,0.3,0.5c0,0.1-0.2,0.3-0.3,0.3
		c-0.1,0-0.2,0-0.3-0.1c-0.8-0.4-1.6-0.8-2.5-1.2c-0.2-0.1-0.3-0.3-0.3-0.5C-440.2,40.9-440.1,40.8-439.9,40.8z"/>
	<path class="st1" d="M-436.9,58.9c-0.1,0.1-0.1,0.2-0.3,0.3c-0.8,0.4-1.7,0.8-2.5,1.2c-0.2,0.1-0.5,0-0.6-0.2
		c-0.1-0.2,0-0.4,0.2-0.6c0.9-0.4,1.7-0.8,2.6-1.2C-437.2,58.3-436.9,58.5-436.9,58.9z"/>
	<path class="st1" d="M-451.6,42.9c-0.1-0.1-0.3-0.2-0.3-0.3c-0.1-0.2,0-0.4,0.2-0.5c0.1-0.1,0.3-0.1,0.4-0.2c0.7-0.4,1.5-0.7,2.2-1
		c0.3-0.1,0.5,0,0.6,0.2c0.1,0.2,0,0.4-0.2,0.6c0,0,0,0,0,0c-0.8,0.4-1.7,0.8-2.5,1.2C-451.4,42.8-451.5,42.9-451.6,42.9z"/>
	<path class="st1" d="M-451.6,58.4c0.2,0.1,0.2,0.1,0.3,0.1c0.8,0.4,1.6,0.8,2.5,1.2c0.3,0.1,0.4,0.4,0.3,0.6
		c-0.1,0.2-0.3,0.3-0.6,0.2c-0.9-0.4-1.7-0.8-2.6-1.2c-0.2-0.1-0.3-0.3-0.2-0.5C-451.9,58.6-451.7,58.5-451.6,58.4z"/>
	<path class="st1" d="M-455.7,50.6c0,0.4,0,0.8,0,1.2c0,0.3-0.2,0.5-0.4,0.5c-0.3,0-0.4-0.2-0.4-0.5c0-0.8,0-1.6,0-2.4
		c0-0.3,0.2-0.5,0.4-0.5c0.3,0,0.4,0.2,0.4,0.5C-455.6,49.8-455.7,50.2-455.7,50.6z"/>
	<path class="st1" d="M-433.2,50.6c0-0.4,0-0.8,0-1.2c0-0.3,0.2-0.5,0.4-0.5c0.3,0,0.4,0.2,0.4,0.5c0,0.8,0,1.6,0,2.4
		c0,0.3-0.2,0.5-0.4,0.5c-0.3,0-0.4-0.2-0.4-0.5C-433.2,51.4-433.2,51-433.2,50.6z"/>
</g>
<g>
	<circle class="st0" cx="-356.9" cy="50.1" r="27.4"/>
	<g>
		<path class="st1" d="M-359.3,35.9c0.3,0,0.7,0,1,0c0.1,0,0.1,0,0.2,0c0.6,0.1,1.1,0.3,1.7,0.6c1.4,0.9,2.2,2.2,2.2,3.9
			c0,6.5,0,13,0,19.5c0,0.8,0.5,1.5,1.3,1.5c0.7,0,1.4,0,2.1,0c0.6,0,1.1-0.5,1.2-0.9c-0.1,0-0.1,0-0.2,0c-0.5,0-0.6-0.2-0.6-0.6
			c0-0.1,0-0.2,0-0.4c0-0.6,0-1.2,0-1.9c-0.3,0-0.6,0-0.8,0c-0.4,0-0.6-0.2-0.6-0.6c0-0.6,0-1.2,0-1.8c0-0.1-0.1-0.3-0.2-0.4
			c-0.3-0.3-0.6-0.7-1-1c-0.2-0.2-0.3-0.4-0.3-0.6c0-2.3,0-4.7,0-7c0-1,0-2.1,0-3.1c0-0.5,0.2-0.6,0.6-0.6c0.1,0,0.2,0,0.3,0
			c0-0.1,0-0.2,0-0.4c0-1.9,0-3.8,0-5.6c0-0.3,0.1-0.5,0.3-0.6c2.6,0,5.2,0,7.9,0c0.3,0.2,0.3,0.4,0.3,0.7c0,1.9,0,3.7,0,5.6
			c0,0.1,0,0.2,0,0.3c0.1,0,0.2,0,0.3,0c0.4,0,0.6,0.2,0.6,0.6c0,3.4,0,6.8,0,10.1c0,0.2-0.1,0.4-0.2,0.6c-0.3,0.4-0.7,0.7-1,1.1
			c-0.1,0.1-0.1,0.2-0.1,0.4c0,0.6,0,1.2,0,1.7c0,0.5-0.1,0.7-0.7,0.7c-0.2,0-0.5,0-0.7,0c0,0.1,0,0.2,0,0.2c0,0.7,0,1.3,0,2
			c0,0.4-0.2,0.6-0.6,0.6c-0.1,0-0.3,0-0.4,0c0,0.1,0,0.2-0.1,0.3c-0.3,1.6-1.6,3-3.2,3.4c-1.1,0.2-2.2,0.1-3.3,0.1
			c-0.3,0-0.5-0.1-0.8-0.2c-1.8-0.6-3-2.2-3-4.1c0-6.4,0-12.8,0-19.3c0-0.1,0-0.2,0-0.3c-0.1-0.7-0.4-1.2-1-1.5
			c-0.6-0.3-1.2-0.2-1.7,0.3c-0.4,0.4-0.6,0.8-0.6,1.4c0,6.5,0,13,0,19.5c0,3.1-3.1,5.2-5.9,3.9c-1.7-0.7-2.6-2.1-2.6-4
			c0-2.2,0-4.5,0-6.7c0-0.1,0-0.2,0-0.3c-0.1,0-0.1,0-0.2,0c-0.6,0-0.7-0.1-0.7-0.7c0-0.4,0-0.7,0-1.1c-0.1,0-0.1,0-0.2,0
			c-0.6,0-0.7-0.1-0.7-0.8c0-1.9,0-3.8,0-5.7c0-0.8,0-1.6,0-2.4c0-0.2,0-0.5,0.3-0.5c0.2-0.1,0.2-0.2,0.2-0.3c0-1.6,0-3.2,0-4.8
			c0-0.3,0.1-0.5,0.3-0.6c1.7,0,3.3,0,5,0c0.3,0.1,0.4,0.3,0.3,0.6c0,0.2,0,0.5,0,0.7c0,1.4,0,2.7,0,4.1c0,0.1,0.1,0.2,0.1,0.3
			c0.3,0.1,0.4,0.3,0.4,0.6c0,2.7,0,5.5,0,8.2c0,0,0,0.1,0,0.1c0,0.3-0.2,0.5-0.5,0.5c-0.1,0-0.3,0-0.4,0c0,0.5,0,0.9,0,1.3
			c0,0.4-0.2,0.5-0.5,0.6c-0.1,0-0.3,0-0.4,0c0,0.1,0,0.3,0,0.4c0,2.2,0,4.3,0,6.5c0,0.1,0,0.2,0,0.3c0,0.7,0.6,1.2,1.3,1.3
			c0.6,0.1,1.3-0.4,1.5-1c0.1-0.2,0.1-0.4,0.1-0.6c0-6.4,0-12.9,0-19.3c0-2.1,1.3-3.8,3.2-4.4C-359.9,36-359.6,35.9-359.3,35.9z
			 M-345.4,56.7c0-0.6,0-1.2,0-1.7c0-0.2,0.1-0.4,0.2-0.6c0.3-0.4,0.7-0.7,1-1c0.1-0.1,0.2-0.3,0.2-0.5c0-3,0-6.1,0-9.1
			c0-0.1,0-0.2,0-0.3c-2.9,0-5.7,0-8.5,0c0,0.1,0,0.2,0,0.4c0,2.7,0,5.4,0,8.1c0,0.4-0.1,0.9,0,1.3c0.1,0.4,0.5,0.6,0.8,0.9
			c0.4,0.3,0.6,0.8,0.5,1.3c0,0.4,0,0.9,0,1.3C-349.1,56.7-347.3,56.7-345.4,56.7z M-368.1,52.9c0,0.1,0,0.2,0,0.4
			c0,1.8,0,3.6,0,5.4c0,0.5,0,1.1,0,1.6c0.1,1.6,1.5,3,3.2,3c1.9,0.1,3.4-1.4,3.4-3.4c0-4.7,0-9.5,0-14.2c0-1.8,0-3.7,0-5.5
			c0-1.6,1.6-2.8,3.2-2.4c1.2,0.3,2,1.3,2,2.7c0,4.5,0,9,0,13.4c0,2,0,4.1,0,6.1c0,1.6,1.2,3,2.8,3.2c0.9,0.1,1.8,0.1,2.7,0
			c0.6,0,1.1-0.2,1.6-0.6c0.8-0.5,1.2-1.3,1.4-2.2c-0.3,0-0.5,0-0.7,0c-0.2,0-0.2,0.1-0.3,0.2c-0.3,0.9-0.9,1.5-1.9,1.6
			c-0.8,0.1-1.7,0-2.5,0c-0.1,0-0.2,0-0.3-0.1c-1.1-0.3-1.8-1.2-1.8-2.4c0-6.4,0-12.8,0-19.2c0-0.1,0-0.3,0-0.4
			c-0.1-2.2-2.1-3.8-4.3-3.4c-1.7,0.4-2.8,1.8-2.8,3.5c0,6.4,0,12.9,0,19.3c0,0.1,0,0.3,0,0.4c-0.1,1.6-1.6,2.6-3.1,2.2
			c-1-0.3-1.7-1.2-1.7-2.4c0-2.2,0-4.4,0-6.6c0-0.1,0-0.2,0-0.4C-367.4,52.9-367.7,52.9-368.1,52.9z M-365.2,50.1c0-2.5,0-5,0-7.5
			c-1.6,0-3.1,0-4.7,0c0,2.5,0,5,0,7.5C-368.4,50.1-366.8,50.1-365.2,50.1z M-344.9,36.8c-2.2,0-4.4,0-6.6,0c0,1.9,0,3.8,0,5.6
			c2.2,0,4.4,0,6.6,0C-344.9,40.6-344.9,38.7-344.9,36.8z M-365.7,36.8c-0.6,0-1.2,0-1.9,0c0,0.3,0,0.6,0,0.9c0.2,0,0.3,0,0.4,0
			c0.3,0,0.5,0.2,0.5,0.5c0,0.6,0,1.2,0,1.9c0,0.3-0.2,0.5-0.5,0.5c-0.2,0-0.3,0-0.5,0c0,0.3,0,0.6,0,0.9c0.6,0,1.2,0,1.9,0
			C-365.7,40-365.7,38.4-365.7,36.8z M-368.5,41.5c0-0.5,0-0.9,0-1.3c0-0.3,0.2-0.5,0.5-0.5c0.1,0,0.3,0,0.4,0c0-0.2,0-0.3,0-0.5
			c0-0.2,0-0.3,0-0.5c-0.1,0-0.1,0-0.2,0c-0.6,0.1-0.8-0.2-0.8-0.8c0-0.4,0-0.7,0-1.1c-0.3,0-0.6,0-0.9,0c0,1.6,0,3.1,0,4.7
			C-369.2,41.5-368.9,41.5-368.5,41.5z M-349.6,59.5c0.9,0,1.9,0,2.8,0c0-0.6,0-1.2,0-1.9c-0.9,0-1.9,0-2.8,0
			C-349.6,58.3-349.6,58.9-349.6,59.5z M-369,51.9c1,0,1.9,0,2.8,0c0-0.3,0-0.6,0-0.9c-0.9,0-1.7,0-2.5,0c-0.1,0-0.2,0-0.3,0
			C-369,51.3-369,51.6-369,51.9z"/>
		<path class="st1" d="M-351.5,46.3c0.3,0,0.6,0,0.9,0c0,0.6,0.1,1.2,0,1.7c-0.1,0.6,0.1,0.9,0.7,1.1c0.4,0.1,0.7,0.4,1.1,0.5
			c0,0,0,0,0.1,0c0-1.6,0-3.2,0-4.8c0.3,0,0.6,0,0.9,0c0,1.2,0,2.3,0,3.5c0.5-0.2,0.9-0.4,1.3-0.5c0.1,0,0.1-0.1,0.1-0.2
			c0-0.4,0-0.9,0-1.3c0.3,0,0.6,0,0.9,0c0,0.6,0,1.3,0,1.9c0,0.2-0.2,0.3-0.4,0.4c-0.6,0.2-1.2,0.5-1.7,0.7
			c-0.2,0.1-0.2,0.1-0.2,0.3c0,0.6,0,1.1,0,1.7c0,0.1,0.1,0.2,0.2,0.3c0.6,0.4,0.9,1,0.7,1.7c-0.2,0.6-0.8,1.1-1.5,1
			c-0.7-0.1-1.2-0.6-1.3-1.3c-0.1-0.5,0.2-1.1,0.7-1.4c0.3-0.2,0.1-0.4,0.2-0.6c0-0.2-0.1-0.3-0.2-0.3c-0.7-0.4-1.5-0.7-2.2-1.1
			c-0.3-0.1-0.4-0.3-0.4-0.6C-351.5,48.1-351.5,47.2-351.5,46.3z M-348.2,52.4c-0.3,0-0.5,0.2-0.5,0.5c0,0.2,0.2,0.5,0.5,0.5
			c0.3,0,0.5-0.2,0.5-0.5C-347.7,52.6-347.9,52.4-348.2,52.4z"/>
		<path class="st2" d="M-345.8,39.2c0,0.3,0,0.6,0,0.9c-0.6,0-1.2,0-1.9,0c0-0.3,0-0.6,0-0.9C-347.1,39.2-346.5,39.2-345.8,39.2z"/>
		<path class="st2" d="M-350.6,40.1c0-0.3,0-0.6,0-0.9c0.6,0,1.2,0,1.9,0c0,0.3,0,0.6,0,0.9C-349.3,40.1-349.9,40.1-350.6,40.1z"/>
	</g>
</g>
<g>
	<g>
		<circle class="st0" cx="-289.5" cy="50.2" r="27.4"/>
	</g>
	<g>
		<path class="st1" d="M-287.9,57.6c0.3-0.1,0.5-0.2,0.6-0.3c1.4-0.8,2.9-1.7,4.3-2.5c0.6-0.4,1.3-0.7,2-0.8c0.9-0.1,1.7,0.4,2,1.2
			c0.3,0.9,0,1.8-0.8,2.3c-2.6,1.6-5.3,3.2-7.9,4.9c-1,0.6-2,0.8-3.1,0.5c-1.7-0.5-3.4-0.9-5-1.4c-0.5-0.1-0.9,0-1.2,0.3
			c0.1,0.2,0.2,0.4,0.3,0.6c0.3,0.6,0.1,1.2-0.4,1.5c-0.4,0.3-0.9,0.5-1.3,0.7c-0.6,0.3-1.2,0.1-1.5-0.4c-1.2-2.2-2.5-4.4-3.7-6.6
			c-0.3-0.6-0.1-1.2,0.4-1.5c0.4-0.2,0.8-0.5,1.2-0.7c0.6-0.3,1.2-0.2,1.6,0.5c0.1,0.1,0.2,0.3,0.3,0.4c0.4-0.2,0.7-0.4,1.1-0.6
			c0.8-0.5,1.7-1,2.5-1.4c0.8-0.5,1.7-0.8,2.7-0.5c0.9,0.2,1.7,0.6,2.5,0.9c0.7,0.2,1.4,0.4,2.1,0.6c1.1,0.3,1.7,1.2,1.4,2.3
			C-287.8,57.4-287.9,57.5-287.9,57.6z M-297.4,60.8c0.2-0.1,0.5-0.2,0.7-0.4c0.2-0.2,0.5-0.2,0.7-0.1c1.8,0.5,3.6,1,5.4,1.5
			c1,0.3,1.8,0.1,2.7-0.4c2.6-1.6,5.1-3.2,7.7-4.8c0.4-0.3,0.6-0.7,0.4-1.2c-0.1-0.4-0.5-0.6-1-0.5c-0.6,0.1-1.1,0.3-1.6,0.6
			c-1.5,0.9-2.9,1.7-4.4,2.6c-0.7,0.4-1.4,0.6-2.2,0.5c-0.6-0.1-1.1-0.2-1.7-0.3c-0.7-0.2-1.4-0.4-2.1-0.5c-0.3-0.1-0.4-0.3-0.4-0.6
			c0.1-0.2,0.3-0.4,0.6-0.3c0.1,0,0.2,0.1,0.3,0.1c0.9,0.2,1.8,0.5,2.7,0.7c0.5,0.1,0.9-0.2,1-0.6c0.1-0.4-0.2-0.8-0.6-1
			c-0.2-0.1-0.4-0.1-0.6-0.1c-1.3-0.4-2.6-0.8-3.8-1.2c-0.5-0.2-1-0.2-1.5,0c-0.3,0.1-0.6,0.3-0.9,0.4c-1.1,0.6-2.1,1.2-3.2,1.9
			c-0.1,0-0.1,0.1-0.2,0.1C-298.8,58.3-298.1,59.6-297.4,60.8z M-297.4,62.8c0-0.1-0.1-0.1-0.1-0.2c-1.2-2.1-2.4-4.3-3.6-6.4
			c-0.1-0.2-0.2-0.2-0.4-0.1c-0.3,0.2-0.7,0.4-1,0.6c-0.3,0.2-0.3,0.2-0.1,0.5c0.5,0.8,0.9,1.7,1.4,2.5c0.7,1.3,1.4,2.5,2.1,3.8
			c0.1,0.1,0.2,0.3,0.4,0.2c0.4-0.2,0.8-0.4,1.2-0.7C-297.5,63-297.4,62.9-297.4,62.8z"/>
		<path class="st1" d="M-279.6,49.4c0.1-0.8,0.1-1.6-0.1-2.4c-0.9-4.2-3.3-6.8-7.4-8c-0.4-0.1-0.9-0.2-1.3-0.2
			c-0.5-0.1-0.6-0.2-0.6-0.7c0-0.6,0-1.2,0-1.9c0-0.5,0.2-0.6,0.7-0.6c5.8,0.4,10.7,4.8,11.7,10.5c0.2,0.9,0.2,1.9,0.2,2.8
			c0,0.1,0,0.2,0,0.4c0.2,0,0.3,0,0.4,0c0.3,0,0.5,0.1,0.7,0.4c0.1,0.3,0.1,0.5-0.1,0.8c-0.6,0.8-1.3,1.6-1.9,2.4
			c-0.3,0.4-0.8,0.4-1.2,0c-0.6-0.8-1.3-1.6-1.9-2.4c-0.2-0.2-0.2-0.5-0.1-0.8c0.1-0.3,0.4-0.4,0.6-0.4
			C-279.8,49.4-279.7,49.4-279.6,49.4z M-276.4,50.4c-0.2,0-0.2,0-0.3,0c-0.6,0-0.7-0.1-0.7-0.7c0.1-1.1,0.1-2.2-0.2-3.3
			c-1-4.6-3.8-7.7-8.3-9.2c-0.7-0.2-1.5-0.3-2.3-0.5c0,0.4,0,0.7,0,1.1c0,0.2,0.1,0.3,0.3,0.3c0.4,0.1,0.7,0.1,1.1,0.2
			c5.1,1.3,8.5,6.1,8.1,11.4c-0.1,0.7-0.1,0.7-0.7,0.9c0.5,0.6,1,1.2,1.5,1.9C-277.4,51.6-277,51-276.4,50.4z"/>
		<path class="st1" d="M-290.8,47c-1.9-1.5-1.7-3.8-0.4-5.1c1.3-1.3,3.5-1.4,4.8,0c1.3,1.3,1.5,3.6-0.4,5.1c0.1,0,0.2,0.1,0.3,0.1
			c2.2,1,3.5,2.7,3.9,5.1c0,0.3-0.1,0.5-0.5,0.6c-0.1,0-0.2,0-0.2,0c-3.7,0-7.3,0-11,0c-0.2,0-0.3,0-0.5-0.1
			c-0.2-0.1-0.2-0.3-0.2-0.5c0.2-1.5,0.9-2.8,2-3.9C-292.3,47.7-291.6,47.3-290.8,47z M-283.7,51.8c-0.3-1.9-2.2-4.2-5.2-4.2
			c-3,0-4.8,2.3-5.1,4.2C-290.5,51.8-287.1,51.8-283.7,51.8z M-288.8,46.7c1.4,0,2.5-1.1,2.5-2.4c0-1.4-1.1-2.4-2.4-2.4
			c-1.3,0-2.4,1.1-2.4,2.4C-291.3,45.6-290.2,46.7-288.8,46.7z"/>
		<path class="st1" d="M-300.8,48.3c-0.3,0-0.7,0-1,0c-0.4,0-0.6-0.2-0.6-0.6c0.1-1.6,0.5-3.2,1.3-4.7c0.2-0.4,0.4-0.5,0.8-0.3
			c0.6,0.3,1.2,0.7,1.7,1c0.3,0.2,0.4,0.4,0.2,0.7c-0.5,1.1-0.8,2.2-0.9,3.3c0,0.3-0.2,0.5-0.5,0.5
			C-300.1,48.3-300.4,48.3-300.8,48.3z M-299.4,44.3c-0.3-0.2-0.6-0.4-1-0.6c-0.5,1.2-0.8,2.3-1,3.6c0.4,0,0.7,0,1.1,0
			c0.1,0,0.2-0.1,0.2-0.2C-299.8,46.3-299.6,45.3-299.4,44.3z"/>
		<path class="st1" d="M-300.8,49c0.3,0,0.7,0,1,0c0.3,0,0.5,0.2,0.5,0.5c0.1,1.2,0.4,2.3,0.9,3.4c0.1,0.3,0,0.5-0.2,0.6
			c-0.6,0.4-1.2,0.7-1.9,1.1c-0.3,0.2-0.5,0.1-0.7-0.2c-0.7-1.4-1.1-2.8-1.2-4.3c0-0.2,0-0.3,0-0.5c0-0.4,0.2-0.6,0.5-0.6
			C-301.5,49-301.1,49-300.8,49z M-300.4,53.5c0.4-0.2,0.7-0.4,1-0.6c-0.3-1-0.5-2-0.8-3c-0.4,0-0.8,0-1.2,0
			C-301.2,51.2-300.9,52.3-300.4,53.5z"/>
		<path class="st1" d="M-289.7,37.3c0,0.3,0,0.7,0,1c0,0.3-0.1,0.5-0.5,0.5c-1.2,0.1-2.3,0.4-3.4,0.9c-0.3,0.1-0.5,0.1-0.6-0.2
			c-0.4-0.6-0.7-1.2-1.1-1.8c-0.2-0.3-0.1-0.5,0.2-0.7c1.4-0.7,2.8-1.1,4.3-1.2c0.2,0,0.3,0,0.5,0c0.4,0,0.6,0.2,0.6,0.5
			C-289.7,36.6-289.7,36.9-289.7,37.3z M-294.3,37.6c0.2,0.4,0.4,0.7,0.6,1c1-0.2,2-0.5,2.9-0.7c0.1,0,0.1-0.1,0.1-0.1
			c0-0.4,0-0.7,0-1.1C-291.9,36.8-293.1,37.1-294.3,37.6z"/>
		<path class="st1" d="M-297.8,43.3c-0.2-0.1-0.3-0.1-0.4-0.2c-0.6-0.3-1.2-0.7-1.7-1c-0.3-0.2-0.4-0.5-0.2-0.8
			c0.9-1.4,2.1-2.5,3.5-3.5c0.3-0.2,0.6-0.2,0.8,0.2c0.3,0.6,0.7,1.2,1,1.7c0.2,0.3,0.1,0.5-0.2,0.8c-0.9,0.7-1.7,1.5-2.4,2.4
			C-297.5,43.1-297.7,43.2-297.8,43.3z M-299.1,41.5c0.4,0.2,0.7,0.4,1,0.6c0.7-0.7,1.5-1.5,2.2-2.2c-0.2-0.3-0.4-0.7-0.6-1
			C-297.5,39.7-298.4,40.5-299.1,41.5z"/>
		<path class="st1" d="M-301.1,57.4c0,0.2-0.2,0.4-0.5,0.4c-0.3,0-0.5-0.2-0.4-0.5c0-0.2,0.2-0.4,0.5-0.4
			C-301.3,56.9-301.1,57.1-301.1,57.4z"/>
	</g>
</g>
<g>
	<g>
		<circle class="st0" cx="-92.4" cy="50.1" r="48.5"/>
	</g>
	<g>
		<path class="st1" d="M-106.6,67.1c0.4,0,0.8,0,1.2,0c0.9,0,1.7,0.2,2.5,0.7c2.7,1.6,5.4,3.1,8.1,4.7c1,0.6,2,0.7,3.1,0.3
			c5.7-2.1,11.4-4.2,17.1-6.3c0.2-0.1,0.3-0.1,0.5-0.2c0.4-0.1,0.6,0,0.7,0.3c0.1,0.4-0.1,0.6-0.4,0.7c-0.6,0.2-1.1,0.4-1.7,0.6
			c-5.3,1.9-10.6,3.9-15.9,5.8c-1.4,0.5-2.7,0.4-3.9-0.4c-2.6-1.6-5.3-3.1-8-4.6c-1.1-0.6-2.2-0.7-3.4-0.6c0,0.3,0,0.7,0,1
			c0,1.6-1.2,2.8-2.8,2.8c-1.4,0-2.8,0-4.2,0c-1.6,0-2.8-1.2-2.8-2.8c0-0.4,0-0.7,0-1.1c0-0.4,0.2-0.6,0.6-0.6
			c0.3,0,0.5,0.2,0.5,0.6c0,0.3,0,0.7,0,1c0,1.1,0.7,1.7,1.7,1.7c1.4,0,2.8,0,4.2,0c1,0,1.7-0.7,1.7-1.7c0-5.3,0-10.6,0-15.9
			c0-1-0.7-1.7-1.7-1.7c-1.3,0-2.7,0-4,0c-1.2,0-1.9,0.6-1.9,1.9c0,3.9,0,7.8,0,11.7c0,0.2,0.1,0.4,0,0.5c-0.1,0.2-0.4,0.5-0.5,0.5
			c-0.2,0-0.4-0.3-0.5-0.5c-0.1-0.1,0-0.3,0-0.4c0-4,0-7.9,0-11.9c0-1.9,1.1-3,3-3c1.3,0,2.6,0,3.8,0c1.9,0,2.9,1,3,2.9
			c0,0.1,0,0.2,0,0.3c0.8,0,1.5,0,2.3,0c1.2,0,2.3,0.3,3.3,1.1c2.2,1.6,4.5,3.2,6.8,4.9c0.7,0.5,1.6,0.8,2.5,0.8c2.1,0,4.3,0,6.4,0
			c2,0,3,1.1,3,3.1c0,0,0,0.1,0,0.2c1-0.3,1.9-0.6,2.8-0.9c2.5-0.8,4.9-1.7,7.4-2.4c1.5-0.5,3,0.2,3.7,1.6c0.7,1.4,0.3,3.1-1,3.9
			c-0.7,0.4-1.5,0.7-2.2,1c-0.3,0.1-0.6-0.1-0.6-0.4c0-0.2,0.1-0.6,0.3-0.7c0.4-0.2,0.9-0.4,1.4-0.5c1.1-0.4,1.6-1.5,1.2-2.5
			c-0.4-1-1.4-1.6-2.6-1.2c-3.7,1.2-7.5,2.4-11.1,3.8c-1.2,0.4-2.3,0.5-3.4,0.5c-2.4,0-4.8,0-7.2,0c-0.1,0-0.3,0.1-0.4,0
			c-0.2-0.2-0.4-0.4-0.5-0.6c0-0.2,0.3-0.4,0.5-0.5c0.2-0.1,0.4,0,0.7,0c2.7,0,5.4,0,8.1,0c0.4,0,0.9-0.2,1.3-0.3
			c0.4-0.2,0.6-1.2,0.4-1.7c-0.3-0.7-0.8-1-1.6-1c-2.2,0-4.4,0-6.5,0c-1.2,0-2.2-0.3-3.2-1c-2.2-1.6-4.5-3.2-6.7-4.9
			c-0.8-0.6-1.6-0.9-2.6-0.8c-0.8,0-1.5,0-2.3,0C-106.6,58.9-106.6,63-106.6,67.1z"/>
		<path class="st1" d="M-83.8,51.8c0.1-2.2,0.8-4,2.2-5.6c0.1-0.1,0.2-0.3,0.3-0.3c0.2,0,0.5-0.1,0.7,0c0.1,0.1,0.2,0.4,0.1,0.7
			c0,0.1-0.2,0.3-0.3,0.4c-1.2,1.4-1.9,3.1-1.9,4.9c1.2,0.7,1.7,1.4,1.5,2.5c-0.2,1-0.8,1.5-2.3,1.7c0,0.5,0.1,0.9,0,1.4
			c-0.2,1-1,1.6-2.1,1.7c-1,0-1.9,0-2.9,0c-1.6,0-2.5-1.3-2.1-2.8c0-0.1,0-0.1,0-0.2c-0.2,0-0.4,0-0.6-0.1c-1-0.1-1.7-0.8-1.8-1.8
			c-0.1-0.8,0.3-1.7,1.2-2.1c0.3-0.1,0.3-0.3,0.3-0.6c-0.2-2-1-3.7-2.4-5.1c-5.1-5.1-3.2-13.6,3.6-16.1c5.7-2.1,12,1.8,12.8,7.8
			c0.3,2.4-0.2,4.5-1.4,6.6c-0.3,0.5-0.9,0.5-1,0.1c-0.1-0.2,0-0.5,0.1-0.8c0.8-1.3,1.2-2.7,1.3-4.2c0.2-4.2-2.9-8.1-7-8.8
			c-5.4-0.9-10.3,3.3-10.1,8.7c0.1,2.2,0.9,4.1,2.5,5.7c1.5,1.5,2.5,3.3,2.8,5.4c0,0.3,0.1,0.6,0.1,0.9c0.9,0,1.7,0,2.7,0
			c0-1.2,0-2.4,0-3.6c0-1.2,0-2.4,0-3.6c-0.3-0.1-0.7-0.1-1-0.2c-2.4-0.5-4.2-1.9-5.6-3.8c-0.1-0.2-0.1-0.6,0-0.8
			c1.9-2.5,4.3-4.1,7.5-4c2.6,0.1,4.7,1.3,6.3,3.2c1.1,1.2,1.1,1.2,0,2.4c-1.6,1.8-3.6,2.9-6,3.1c0,2.4,0,4.8,0,7.2
			C-85.6,51.8-84.7,51.8-83.8,51.8z M-81,40.2c-3.2-4.3-9.1-4.3-12.2,0C-89.9,44.5-84.3,44.6-81,40.2z M-87,53c-1.3,0-2.5,0-3.8,0
			c-0.6,0-1,0.4-1,0.9c0,0.5,0.4,0.9,1,0.9c2.5,0,5,0,7.5,0c0.4,0,0.7-0.2,0.9-0.5c0.3-0.6-0.1-1.3-0.9-1.4C-84.5,53-85.8,53-87,53z
			 M-87,57.9c0.5,0,1,0,1.5,0c0.6,0,1-0.4,1-0.9c0-0.5-0.4-0.9-1-0.9c-1,0-2,0-3,0c-0.6,0-1,0.4-1,0.9c0,0.5,0.4,0.9,1,0.9
			C-88.1,58-87.6,57.9-87,57.9z"/>
		<path class="st1" d="M-86.5,27.3c0,0.3,0.1,0.5,0,0.8c-0.1,0.2-0.3,0.4-0.5,0.5c-0.3,0.1-0.5-0.1-0.6-0.5c0-0.6-0.1-1.1,0-1.7
			c0-0.2,0.3-0.5,0.5-0.5c0.3-0.1,0.5,0.2,0.6,0.5C-86.5,26.8-86.5,27.1-86.5,27.3z"/>
		<path class="st1" d="M-78.1,29.5c-0.1,0.2-0.1,0.3-0.2,0.5c-0.3,0.4-0.6,0.8-0.9,1.1c-0.2,0.3-0.5,0.3-0.8,0.1
			c-0.3-0.2-0.3-0.5,0-0.8c0.3-0.4,0.6-0.8,1-1.2c0.1-0.1,0.4-0.2,0.6-0.2C-78.4,29.1-78.3,29.3-78.1,29.5z"/>
		<path class="st1" d="M-96.4,33.7c0,0.5-0.4,0.8-0.8,0.6c-0.5-0.2-1-0.5-1.4-0.8c-0.3-0.2-0.3-0.5-0.1-0.7c0.1-0.2,0.5-0.3,0.7-0.2
			c0.5,0.2,1,0.5,1.5,0.8C-96.5,33.4-96.5,33.6-96.4,33.7z"/>
		<path class="st1" d="M-75.9,40.9c0.7,0.1,1.3,0.2,1.8,0.4c0.2,0.1,0.4,0.4,0.3,0.6c0,0.2-0.3,0.5-0.5,0.4c-0.6,0-1.1-0.1-1.7-0.3
			c-0.2-0.1-0.4-0.4-0.4-0.6C-76.3,41.2-76.1,41-75.9,40.9z"/>
		<path class="st1" d="M-93.8,30.8c-0.1,0.1-0.2,0.3-0.3,0.4c-0.2,0.1-0.5,0-0.6-0.1c-0.4-0.4-0.8-0.8-1.1-1.3
			c-0.1-0.2,0-0.5,0.1-0.7c0.1-0.1,0.5-0.2,0.6-0.1c0.5,0.4,0.8,0.9,1.2,1.4C-93.9,30.6-93.9,30.7-93.8,30.8z"/>
		<path class="st1" d="M-96.4,45.3c-0.1,0.1-0.2,0.3-0.3,0.4c-0.4,0.3-0.8,0.5-1.2,0.7c-0.3,0.2-0.6,0.1-0.8-0.2
			c-0.2-0.3,0-0.6,0.3-0.8c0.4-0.2,0.8-0.5,1.3-0.7C-96.8,44.5-96.4,44.8-96.4,45.3z"/>
		<path class="st1" d="M-90.3,28.8c-0.2,0.2-0.3,0.4-0.5,0.5c-0.2,0-0.6-0.1-0.6-0.3c-0.2-0.5-0.4-1.1-0.6-1.6
			c0-0.2,0.2-0.5,0.3-0.6c0.1-0.1,0.5,0,0.6,0.2C-90.8,27.5-90.6,28.1-90.3,28.8z"/>
		<path class="st1" d="M-98.2,38.1c-0.7-0.1-1.2-0.2-1.7-0.3c-0.4-0.1-0.5-0.3-0.4-0.7c0.1-0.3,0.3-0.5,0.7-0.4
			c0.5,0.1,1,0.2,1.4,0.3c0.4,0.1,0.6,0.3,0.5,0.7C-97.9,37.8-98.1,38-98.2,38.1z"/>
		<path class="st1" d="M-75.9,38.1c-0.1-0.1-0.4-0.3-0.4-0.5c0-0.2,0.2-0.5,0.4-0.6c0.5-0.2,1-0.2,1.5-0.3c0.3,0,0.6,0.1,0.6,0.5
			c0,0.2-0.2,0.6-0.4,0.6C-74.7,37.9-75.2,38-75.9,38.1z"/>
		<path class="st1" d="M-97.8,41.6c-0.1,0.1-0.3,0.3-0.5,0.4c-0.5,0.1-1,0.2-1.5,0.3c-0.3,0-0.6-0.1-0.7-0.4
			c-0.1-0.4,0.1-0.6,0.5-0.7c0.5-0.1,1-0.2,1.5-0.3C-98,40.9-97.8,41.1-97.8,41.6z"/>
		<path class="st1" d="M-75.3,45.8c0,0.5-0.3,0.8-0.7,0.6c-0.5-0.2-1.1-0.6-1.6-0.9c-0.1-0.1-0.2-0.5-0.1-0.6
			c0.1-0.2,0.5-0.3,0.6-0.3c0.5,0.2,1,0.5,1.5,0.8C-75.4,45.6-75.4,45.8-75.3,45.8z"/>
		<path class="st1" d="M-83,29.3c-0.5,0-0.8-0.3-0.7-0.7c0.2-0.5,0.3-1,0.5-1.5c0.1-0.2,0.4-0.3,0.6-0.3c0.3,0,0.5,0.3,0.4,0.7
			c-0.2,0.5-0.4,1-0.6,1.5C-82.7,29.2-83,29.2-83,29.3z"/>
		<path class="st1" d="M-77.2,34.5c-0.2-0.2-0.5-0.3-0.5-0.5c-0.1-0.2,0-0.5,0.2-0.6c0.5-0.3,1-0.6,1.5-0.9c0.2-0.1,0.5,0,0.6,0.2
			c0.1,0.1,0.2,0.5,0.1,0.6C-75.9,33.7-76.5,34-77.2,34.5z"/>
		<path class="st1" d="M-86.5,38.1c-0.3,0.5-0.3,1,0.1,1.4c0.4,0.5,0.9,0.4,1.5,0.2c0.3,1-0.1,2-1,2.5c-0.9,0.5-2,0.4-2.8-0.3
			c-0.7-0.7-0.9-1.8-0.4-2.7C-88.6,38.3-87.6,37.8-86.5,38.1z"/>
	</g>
</g>
<g>
	<g>
		<circle class="st0" cx="49.8" cy="50" r="48.5"/>
	</g>
</g>
<g>
	<path class="st1" d="M51.6,21.5c1,0.1,2.1,0.2,3.1,0.4c1.1,0.2,2.3,0.5,3.4,0.8c0.9,0.3,1.4,1,1.1,1.9c-0.2,0.8-1,1.1-1.9,0.9
		c-2.8-0.9-5.8-1.2-8.7-1.1c-6.8,0.4-12.6,3-17.3,7.9c-4.1,4.3-6.6,9.5-7,15.4C23.6,58.4,28,66.7,37.2,72.3c5.1,3,10.7,4,16.6,3
		c9.6-1.7,16.3-7.1,19.9-16.1c2.2-5.4,2.3-11,0.6-16.7c-0.4-1.3,0.5-2.2,1.4-2.1c0.6,0.1,1.1,0.4,1.3,1.2c0.4,1.9,0.9,3.8,1.1,5.7
		c0.7,8.1-1.6,15.3-6.9,21.4c-4.8,5.5-10.8,8.7-18.1,9.5c-9.7,1-17.9-2.1-24.5-9.3c-4.3-4.7-6.6-10.3-7.2-16.7
		c0-0.2-0.1-0.4-0.1-0.5c0-1.2,0-2.4,0-3.6c0-0.2,0.1-0.3,0.1-0.5c0.2-1.4,0.4-2.9,0.7-4.3c2.6-11,11.7-19.6,22.8-21.5
		c1-0.2,2.1-0.3,3.1-0.4C49.3,21.5,50.5,21.5,51.6,21.5z"/>
	<path class="st1" d="M50,69.9c-9.7-0.1-18-7.1-19.6-16.7c-1.9-11,5.7-21.4,16.8-23c1.3-0.2,2.5-0.1,3.8-0.1c0.7,0,1.3,0.3,1.5,1.1
		c0.3,1-0.4,1.9-1.5,1.8c-3.3-0.3-6.3,0.4-9.2,1.9c-6.1,3.2-9.7,10-8.9,16.9c0.9,7.8,6.7,13.9,14.5,15c9.2,1.4,17.9-5.2,19.2-14.4
		c0.2-1.2,0.1-2.4,0.1-3.5c0-0.9,0.4-1.6,1.3-1.7c0.8-0.1,1.6,0.5,1.6,1.4c0,1.6,0.1,3.3-0.3,4.8c-1.8,8.4-6.9,13.7-15.2,15.9
		C52.9,69.6,51.4,69.7,50,69.9z"/>
	<path class="st1" d="M63.1,41.4c-0.7,0-1.4,0-2.1,0c-0.5,0-0.8,0.1-1.1,0.5c-2.9,2.9-5.8,5.9-8.8,8.8c-0.2,0.2-0.4,0.4-0.6,0.5
		c-0.6,0.4-1.3,0.3-1.7-0.2c-0.5-0.5-0.6-1.2-0.2-1.8c0.1-0.2,0.3-0.4,0.5-0.5c2.9-2.9,5.9-5.9,8.8-8.8c0.3-0.3,0.4-0.6,0.4-1
		c0-1.4,0-2.8,0-4.2c0-0.6,0.2-1.1,0.6-1.6c2.7-2.7,5.4-5.4,8.1-8.1c0.5-0.5,1.1-0.8,1.7-0.5c0.7,0.3,0.9,0.8,0.9,1.5
		c0,1.2,0,2.4,0,3.6c0,0.4,0.1,0.5,0.5,0.5c1.2,0,2.4,0,3.6,0c0.7,0,1.3,0.2,1.5,0.9c0.3,0.7,0,1.2-0.4,1.7
		c-2.7,2.7-5.5,5.5-8.2,8.2c-0.4,0.4-0.8,0.6-1.3,0.6C64.6,41.4,63.9,41.4,63.1,41.4z M61.3,38.5c1.1,0,2.2,0,3.2,0
		c0.3,0,0.6-0.1,0.8-0.3c1.7-1.6,3.3-3.3,4.9-4.9c0.1-0.1,0.2-0.2,0.4-0.4c-0.8,0-1.4,0-2.1,0c-1,0-1.5-0.6-1.5-1.5c0-0.7,0-1.3,0-2
		c-0.1,0.1-0.2,0.1-0.2,0.1c-1.8,1.8-3.5,3.5-5.3,5.3c-0.1,0.1-0.2,0.3-0.2,0.5C61.3,36.2,61.3,37.3,61.3,38.5z"/>
	<path class="st1" d="M49.9,61.2c-5.9,0-10.7-4.5-11.3-10.3c-0.5-5.8,3.5-11.1,9.3-12.2c0.6-0.1,1.2-0.2,1.9-0.2
		c0.9,0,1.5,0.6,1.5,1.3c0,0.8-0.5,1.4-1.4,1.5c-1.2,0-2.3,0.2-3.4,0.7c-3.6,1.5-5.7,5.3-5.1,9.1c0.6,3.8,3.7,6.8,7.6,7.2
		c4.8,0.5,9.1-3.2,9.3-8.1c0.1-1.2,0.6-1.8,1.5-1.8c0.9,0,1.4,0.7,1.3,1.9C61,56.5,56,61.2,49.9,61.2z"/>
</g>
<g>
	<g>
		<g>
			<circle class="st0" cx="191.6" cy="50.4" r="48.5"/>
		</g>
	</g>
	<g>
		<path class="st1" d="M169.1,79.5c-1.5-0.5-2.1-1.6-2.1-3.2c0.1-4.1,0-8.1,0-12.2c0-0.2,0-0.4,0-0.6c0.1-0.5,0.4-0.7,0.9-0.7
			c0.5,0,0.7,0.3,0.8,0.7c0,0.2,0,0.3,0,0.5c0,4.1,0,8.3,0,12.4c0,1,0.2,1.2,1.2,1.2c13.7,0,27.4,0,41.2,0c1,0,1.3-0.2,1.3-1.3
			c0-6.6,0-13.2,0-19.8c0-0.2,0-0.4,0-0.7c-1.6,1.6-3.5,2.5-5.3,3.6c-0.9,0.6-1.8,0.6-2.8,0c-1-0.7-2.1-1.2-3.1-1.8
			c-1.3-0.8-2.4-1.9-3.4-3.1c-0.4-0.5-0.4-1,0-1.4c0.4-0.3,0.9-0.2,1.3,0.3c1,1.3,2.2,2.3,3.6,3.1c0.9,0.5,1.7,1,2.6,1.5
			c0.3,0.2,0.5,0.2,0.8,0c1-0.6,2.1-1.2,3.1-1.8c3.4-2.2,5.1-5.3,5.3-9.3c0-1.1,0-2.2,0-3.3c0-0.2-0.2-0.5-0.4-0.7
			c-2.6-1.5-5.3-3.1-7.9-4.6c-0.3-0.2-0.5-0.2-0.8,0c-2.6,1.5-5.3,3-7.9,4.6c-0.2,0.1-0.4,0.4-0.4,0.7c0,2.2-0.2,4.3,0.4,6.4
			c0.1,0.5-0.2,0.9-0.6,1c-0.4,0.1-1-0.1-1-0.6c-0.2-1.2-0.4-2.4-0.5-3.6c-0.1-1.1,0-2.2,0-3.4c0-0.9,0.4-1.5,1.2-2
			c2.7-1.5,5.4-3.1,8.1-4.7c0.8-0.5,1.6-0.5,2.4,0c1.6,1,3.2,1.9,4.9,2.8c0.2,0.1,0.4,0.2,0.6,0.3c0-0.3,0-0.4,0-0.6
			c0-5.1,0-10.1,0-15.2c0-1-0.2-1.3-1.3-1.3c-13.7,0-27.4,0-41.2,0c-1,0-1.3,0.2-1.3,1.3c0,11.7,0,23.3,0,35c0,0.9-0.3,1.3-0.9,1.3
			c-0.6,0-0.8-0.4-0.8-1.3c0-11.7,0-23.3,0-35c0-2,1-3,3-3c13.7,0,27.4,0,41.2,0c2,0,2.9,1,2.9,2.9c0,5.4,0,10.8,0,16.3
			c0,0.4,0.1,0.7,0.5,0.9c1.2,0.5,1.6,1.4,1.5,2.6c-0.1,1.7-0.1,3.5-0.3,5.2c-0.1,1.5-0.8,2.8-1.5,4.1c-0.2,0.3-0.3,0.7-0.3,1.1
			c0,7.3,0,14.6,0,21.9c0,1.6-0.5,2.7-2.1,3.2C197.8,79.5,183.4,79.5,169.1,79.5z"/>
		<path class="st1" d="M175.1,28.5c0,1.4,0,2.7,0,4c10.3,0,20.6,0,31,0c0-0.7,0-1.3,0-2c0-0.7,0-1.3,0-2.1c-0.3,0-0.5,0-0.7,0
			c-1.7,0-3.4,0-5.1,0c-0.2,0-0.4,0-0.6,0c-0.5-0.1-0.7-0.4-0.7-0.9c0-0.5,0.3-0.8,0.8-0.8c2.2,0,4.4,0,6.6,0c0.7,0,1.2,0.5,1.2,1.2
			c0,1.7,0,3.4,0,5.1c0,0.7-0.5,1.1-1.2,1.2c-0.2,0-0.5,0-0.7,0c-10.2,0-20.4,0-30.6,0c-0.2,0-0.5,0-0.7,0c-0.7-0.1-1.2-0.6-1.2-1.3
			c0-1.6,0-3.3,0-4.9c0-0.7,0.5-1.2,1.3-1.3c0.2,0,0.4,0,0.6,0c6.7,0,13.5,0,20.2,0c0.1,0,0.1,0,0.2,0c0.8,0,1.2,0.3,1.2,0.9
			c0,0.5-0.4,0.8-1.2,0.8c-6.6,0-13.1,0-19.7,0C175.7,28.5,175.4,28.5,175.1,28.5z"/>
		<path class="st1" d="M198.7,46.7c0-2.6-0.1-2.4,1.9-3.5c1.4-0.8,2.8-1.6,4.2-2.4c0.6-0.4,1.2-0.4,1.8,0c1.7,1,3.5,2,5.2,3
			c0.6,0.4,0.9,0.9,0.9,1.6c0,1.9,0,3.7-0.9,5.5c-0.8,1.7-2,3-3.5,4c-0.6,0.4-1.2,0.8-1.9,1.1c-0.4,0.2-0.9,0.3-1.3,0.1
			c-1.7-0.9-3.4-1.8-4.6-3.5C199.3,50.7,198.6,48.7,198.7,46.7z M211.1,46.6c0-0.2,0-0.4,0-0.6c0.1-0.5-0.1-0.8-0.6-1.1
			c-1.4-0.8-2.9-1.6-4.3-2.5c-0.3-0.2-0.5-0.2-0.9,0c-1.3,0.8-2.5,1.5-3.8,2.2c-0.8,0.4-1.1,0.9-1.1,1.8c0,3.3,1.4,5.7,4.3,7.4
			c0.8,0.5,1.4,0.4,2.2,0C209.7,52.2,211.1,49.8,211.1,46.6z"/>
		<path class="st1" d="M206.4,68.8c-0.4,1.5-0.8,3-1.3,4.5c-0.1,0.3-0.4,0.7-0.7,0.9c-0.6,0.3-1.2-0.1-1.4-0.8
			c-0.4-1.3-0.8-2.7-1.2-4c-0.1-0.2-0.1-0.4-0.3-0.5c-0.1,0.7-0.3,1.4-0.4,2.1c-0.2,0.8-0.3,1.7-0.5,2.5c-0.1,0.6-0.5,0.9-1,0.8
			c-0.5-0.1-0.8-0.5-0.7-1.1c0.4-2.5,0.9-5,1.3-7.4c0.1-0.6,0.5-1,1-1c0.6,0,0.9,0.3,1.1,0.9c0.5,1.6,0.9,3.1,1.4,4.7
			c0,0.1,0.1,0.3,0.2,0.6c0.5-1.6,0.9-3.1,1.3-4.6c0.1-0.3,0.1-0.5,0.2-0.8c0.2-0.6,0.6-0.9,1.1-0.8c0.6,0,0.9,0.4,1,0.9
			c0.3,1.4,0.5,2.8,0.8,4.2c0.2,1.1,0.4,2.2,0.6,3.3c0.1,0.6-0.1,1-0.6,1.1c-0.5,0.1-0.9-0.2-1-0.8c-0.3-1.5-0.6-3.1-0.9-4.6
			C206.5,68.8,206.4,68.8,206.4,68.8z"/>
		<path class="st1" d="M195.1,73.6c-0.2,0.2-0.4,0.5-0.7,0.6c-0.4,0.2-0.8,0-1-0.4c-0.2-0.4-0.3-0.7-0.4-1.1
			c-0.1-0.3-0.2-0.4-0.5-0.4c-0.9,0-1.9,0-2.8,0c-0.3,0-0.5,0.1-0.5,0.4c-0.1,0.3-0.2,0.6-0.3,0.9c-0.2,0.6-0.7,0.8-1.2,0.6
			c-0.5-0.2-0.7-0.7-0.4-1.2c0.7-2,1.5-3.9,2.2-5.9c0.2-0.6,0.4-1.1,0.6-1.7c0.2-0.5,0.5-0.8,1-0.8c0.5,0,0.8,0.3,1,0.8
			c1,2.5,1.9,5.1,2.9,7.6C195,73.2,195,73.3,195.1,73.6z M191,67.6c-0.4,1.1-0.8,2-1.2,3c0.8,0,1.5,0,2.3,0
			C191.8,69.6,191.5,68.7,191,67.6z"/>
		<path class="st1" d="M177.4,64.6c0.4,0.2,1.3,0.4,2,0.8c0.6,0.3,0.7,0.8,0.4,1.2c-0.3,0.4-0.7,0.5-1.3,0.2c-2.1-1.1-4.4,0-4.8,2.3
			c-0.3,2.2,1.9,4.1,4,3.3c0.4-0.1,0.7-0.4,1-0.6c0.4-0.4,0.9-0.4,1.3-0.1c0.3,0.3,0.3,0.8-0.1,1.3c-1.6,1.8-4.8,1.7-6.6-0.3
			c-1.4-1.5-1.7-3.3-0.9-5.2C173.4,65.7,174.9,64.7,177.4,64.6z"/>
		<path class="st1" d="M182.9,47.7c-2.8,0-5.5,0-8.3,0c-0.2,0-0.5,0-0.7-0.1c-0.4-0.1-0.6-0.4-0.6-0.8c0-0.4,0.2-0.7,0.6-0.8
			c0.2,0,0.4,0,0.6,0c5.6,0,11.1,0,16.7,0c0.2,0,0.3,0,0.5,0c0.4,0.1,0.7,0.4,0.7,0.8c0,0.4-0.2,0.8-0.7,0.9c-0.2,0-0.4,0-0.6,0
			C188.4,47.7,185.7,47.7,182.9,47.7z"/>
		<path class="st1" d="M183,40.6c2.7,0,5.5,0,8.2,0c0.2,0,0.4,0,0.6,0c0.4,0.1,0.7,0.4,0.7,0.8c0,0.4-0.2,0.7-0.6,0.8
			c-0.2,0.1-0.5,0.1-0.7,0.1c-5.5,0-11,0-16.5,0c-0.1,0-0.3,0-0.4,0c-0.6,0-0.9-0.4-0.9-0.9c0-0.5,0.3-0.8,1-0.8
			C177.2,40.6,180.1,40.6,183,40.6z"/>
		<path class="st1" d="M182.9,51.5c2.7,0,5.5,0,8.2,0c0.2,0,0.4,0,0.6,0c0.4,0.1,0.6,0.3,0.7,0.7c0,0.4-0.2,0.7-0.6,0.9
			c-0.2,0.1-0.4,0.1-0.7,0.1c-5.5,0-11.1,0-16.6,0c-0.2,0-0.4,0-0.6,0c-0.4-0.1-0.7-0.4-0.7-0.9c0-0.5,0.3-0.7,0.7-0.8
			c0.2,0,0.4,0,0.6,0C177.4,51.5,180.2,51.5,182.9,51.5z"/>
		<path class="st1" d="M182.9,57c2.7,0,5.5,0,8.2,0c0.2,0,0.4,0,0.6,0c0.4,0.1,0.7,0.3,0.7,0.8c0,0.4-0.2,0.7-0.6,0.9
			c-0.2,0.1-0.4,0.1-0.6,0.1c-5.6,0-11.1,0-16.7,0c-0.1,0-0.2,0-0.3,0c-0.6,0-0.9-0.4-0.9-0.9c0-0.5,0.3-0.8,0.9-0.8
			c1.5,0,3,0,4.4,0C180.1,57,181.5,57,182.9,57z"/>
		<path class="st1" d="M183.1,72.6c0.6,0,1.2,0,1.7,0c0.7,0,1.1,0.3,1.1,0.8c0,0.5-0.4,0.9-1,0.9c-0.8,0-1.6,0-2.4,0
			c-0.7,0-1-0.3-1-1c0-2.5,0-5.1,0-7.6c0-0.7,0.4-1,0.9-1c0.5,0,0.8,0.4,0.8,1c0,2.1,0,4.1,0,6.2C183.1,72.1,183.1,72.3,183.1,72.6z
			"/>
		<path class="st1" d="M197.9,69.5c0,1.3,0,2.5,0,3.8c0,0.6-0.3,1-0.8,1c-0.5,0-0.9-0.4-0.9-1c0-2.5,0-5.1,0-7.6c0-0.7,0.3-1,0.9-1
			c0.5,0,0.8,0.4,0.8,1C197.9,67,197.9,68.2,197.9,69.5z"/>
		<path class="st1" d="M205.5,48.9c0.6-0.7,1.3-1.5,2-2.3c0.1-0.1,0.2-0.3,0.4-0.4c0.4-0.4,0.9-0.4,1.2-0.1c0.4,0.3,0.4,0.8,0.1,1.3
			c-0.6,0.7-1.3,1.5-2,2.2c-0.4,0.4-0.7,0.8-1.1,1.2c-0.5,0.5-0.9,0.5-1.4,0c-0.7-0.7-1.4-1.5-2.1-2.2c-0.4-0.4-0.4-0.9-0.1-1.3
			c0.4-0.4,0.8-0.3,1.3,0.1C204.3,47.9,204.9,48.3,205.5,48.9z"/>
	</g>
</g>
</svg>
