<?xml version="1.0" encoding="utf-8"?>
<!-- Generator: Adobe Illustrator 23.1.0, SVG Export Plug-In . SVG Version: 6.00 Build 0)  -->
<svg version="1.1" id="Layer_1" xmlns="http://www.w3.org/2000/svg" xmlns:xlink="http://www.w3.org/1999/xlink" x="0px" y="0px"
	  width="56" height="56" viewBox="0 0 100 100" style="enable-background:new 0 0 100 100;" xml:space="preserve">
<style type="text/css">
	.st0{fill:#51658D;}
	.st1{fill:#FFFFFF;}
</style>
<circle class="st0" cx="50" cy="50" r="49"/>
<g>
	<path class="st1" d="M29.5,67.4c-1.2,0.6-2.4,1.2-3.6,1.8c-0.7,0.4-1.5,0.7-2.2,1.1c-0.5,0.2-0.8,0.1-0.8-0.5c0-0.2,0-0.3,0-0.5
		c0-12.9,0-25.8,0-38.8c0-0.1,0-0.2,0-0.4c0-0.7,0.3-0.8,0.9-0.5c1.7,0.9,3.4,1.7,5.2,2.6c0.2,0.1,0.3,0.2,0.5,0.2
		c0.2-1.3,0.2-1.3,1.6-1.3c12.7,0,25.3,0,38,0c1.4,0,1.3-0.1,1.4,1.3c0.2-0.1,0.4-0.2,0.5-0.2c1.7-0.8,3.4-1.7,5-2.5
		c0.8-0.4,1-0.3,1,0.6c0,13.1,0,26.2,0,39.2c0,0.8-0.2,1-1,0.6c-1.7-0.8-3.4-1.7-5-2.5c-0.2-0.1-0.3-0.2-0.5-0.2
		c0,0.1-0.1,0.1-0.1,0.1c0,1.2-0.1,1.2-1.3,1.2c-12.8,0-25.5,0-38.3,0C29.6,68.8,29.6,68.9,29.5,67.4z M33.9,64.5
		c10.8,0,21.5,0,32.2,0c0-9.7,0-19.3,0-28.9c-2.2,0-4.4,0-6.6,0c-0.5,5.3-4.6,8.6-8.8,8.9c-2.3,0.2-4.4-0.4-6.2-1.8
		c-2.4-1.8-3.7-4.2-3.9-7.1c-2.2,0-4.4,0-6.6,0C33.9,45.2,33.9,54.8,33.9,64.5z M23.9,30.8c0,12.8,0,25.5,0,38.3c0.1,0,0.1,0,0.1,0
		c2.9-1.4,5.7-2.8,8.5-4.3c0.1-0.1,0.3-0.4,0.3-0.6c0-9.5,0-19,0-28.5c0-0.4-0.1-0.5-0.4-0.7c-2.7-1.3-5.3-2.7-8-4
		C24.3,31,24.1,30.9,23.9,30.8z M76.1,30.9c-0.1,0.1-0.3,0.1-0.4,0.1c-2.7,1.4-5.5,2.8-8.2,4.1c-0.3,0.2-0.4,0.4-0.4,0.7
		c0,9.5,0,18.9,0,28.4c0,0.4,0.1,0.6,0.5,0.8c2.6,1.3,5.3,2.6,7.9,4c0.2,0.1,0.3,0.2,0.6,0.3C76.1,56.4,76.1,43.6,76.1,30.9z
		 M58.4,35.6c-5.7,0-11.3,0-16.9,0c0,3.5,3.3,7.9,8.4,7.9C55.1,43.6,58.4,39.3,58.4,35.6z M30.5,32.2c-0.2,0.6,0,0.9,0.5,1.1
		c0.6,0.2,1.1,0.5,1.6,0.8c0.6,0.3,1.1,0.4,1.8,0.4c9.7,0,19.4,0,29.2,0c1.9,0,3.7-0.2,5.3-1.2c0.5-0.3,0.7-0.6,0.5-1.2
		C56.5,32.2,43.5,32.2,30.5,32.2z M30.6,67.8c13,0,25.9,0,38.9,0c0.2-0.6,0-0.9-0.5-1.2c-0.5-0.2-1-0.4-1.4-0.7
		c-0.6-0.4-1.3-0.5-2.1-0.5c-9.7,0-19.5,0-29.2,0c-1.9,0-3.5,0.3-5.1,1.2C30.5,67,30.4,67.3,30.6,67.8z"/>
	<path class="st1" d="M39.5,46.1c-0.4,0-0.7-0.4-0.5-0.6c0.8-0.8,1.6-1.6,2.4-2.3c0.1-0.1,0.4,0,0.5,0.1c0.1,0.1,0.1,0.4,0,0.5
		c-0.7,0.8-1.5,1.5-2.3,2.3C39.6,46.1,39.5,46.1,39.5,46.1z"/>
	<path class="st1" d="M61.1,45.7C61,45.8,60.9,46,60.8,46c-0.1,0-0.4,0-0.5-0.1c-0.7-0.7-1.5-1.4-2.2-2.2c-0.1-0.1-0.1-0.4,0-0.6
		c0.1-0.1,0.5-0.2,0.5-0.1c0.8,0.7,1.6,1.5,2.3,2.3C61.1,45.4,61.1,45.5,61.1,45.7z"/>
	<path class="st1" d="M45.9,46c-0.1,0.2-0.1,0.3-0.1,0.4c-0.3,0.8-0.7,1.6-1,2.4c-0.1,0.3-0.3,0.6-0.7,0.4c-0.3-0.2-0.3-0.5-0.2-0.8
		c0.4-0.8,0.7-1.7,1.1-2.5c0.1-0.2,0.4-0.3,0.5-0.3C45.6,45.7,45.8,45.9,45.9,46z"/>
	<path class="st1" d="M56.3,48.9c-0.1,0.1-0.2,0.4-0.4,0.4c-0.2,0-0.5,0-0.5-0.2c-0.4-1-0.8-1.9-1.2-2.9c0-0.1,0.1-0.4,0.3-0.5
		c0.1-0.1,0.5,0,0.5,0.1C55.4,46.8,55.8,47.8,56.3,48.9z"/>
	<path class="st1" d="M49.5,48.5c0-0.5,0-0.9,0-1.4c0-0.2,0.3-0.4,0.5-0.5c0.1,0.2,0.4,0.3,0.4,0.5c0,1,0,1.9,0,2.9
		c0,0.2-0.3,0.4-0.5,0.5c-0.1-0.2-0.4-0.3-0.4-0.5C49.5,49.5,49.5,49,49.5,48.5z"/>
	<path class="st1" d="M36.1,41.2c-0.1-0.1-0.3-0.2-0.3-0.3c0-0.1,0-0.4,0.2-0.5c1-0.4,1.9-0.8,2.9-1.2c0.1,0,0.4,0.1,0.5,0.3
		c0.1,0.1-0.1,0.5-0.2,0.5c-0.9,0.4-1.9,0.8-2.8,1.2C36.3,41.2,36.2,41.2,36.1,41.2z"/>
	<path class="st1" d="M63.8,41.3c-0.6-0.2-1.1-0.4-1.5-0.6c-0.5-0.2-1-0.4-1.4-0.6c-0.1-0.1-0.3-0.4-0.2-0.6
		c0.1-0.1,0.4-0.3,0.5-0.3c1,0.4,1.9,0.8,2.9,1.2c0.1,0.1,0.2,0.4,0.2,0.5C64.2,41.1,64,41.2,63.8,41.3z"/>
	<path class="st1" d="M25.4,41.2c0-2.4,0-4.7,0-7.1c0-0.8,0.2-1,1-0.6c1.5,0.7,2.9,1.5,4.4,2.2c0.4,0.2,0.6,0.5,0.6,0.9
		c0,3.9,0,7.9,0,11.8c0,0.7-0.1,0.8-0.8,0.8c-1.5,0-2.9,0-4.4,0c-0.7,0-0.8-0.1-0.8-0.8C25.4,46,25.4,43.6,25.4,41.2z M30.4,48.2
		c0-3.8,0-7.6,0-11.4c0-0.1-0.1-0.3-0.2-0.3c-1.3-0.6-2.5-1.3-3.8-1.9c0,4.6,0,9.1,0,13.7C27.7,48.2,29,48.2,30.4,48.2z"/>
	<path class="st1" d="M25.4,58.7c0-2.4,0-4.7,0-7.1c0-0.8,0.1-0.9,0.8-0.9c1.4,0,2.9,0,4.3,0c0.6,0,0.8,0.2,0.8,0.8c0,4,0,8,0,11.9
		c0,0.4-0.1,0.6-0.5,0.8c-1.5,0.7-3,1.5-4.5,2.2c-0.6,0.3-0.9,0.2-0.9-0.6C25.4,63.6,25.4,61.2,25.4,58.7z M30.3,51.8
		c-1.4,0-2.7,0-4,0c0,4.6,0,9.1,0,13.7c1.3-0.7,2.6-1.3,3.8-1.9c0.1-0.1,0.2-0.4,0.2-0.6c0-3.6,0-7.2,0-10.8
		C30.4,52.1,30.4,51.9,30.3,51.8z"/>
	<path class="st1" d="M74.6,41.2c0,2.4,0,4.8,0,7.2c0,0.7-0.1,0.8-0.8,0.8c-1.5,0-2.9,0-4.4,0c-0.6,0-0.8-0.2-0.8-0.8
		c0-4,0-8,0-11.9c0-0.4,0.2-0.6,0.5-0.8c1.5-0.7,3-1.5,4.5-2.2c0.7-0.3,0.9-0.2,0.9,0.6C74.6,36.4,74.6,38.8,74.6,41.2z M73.6,48.2
		c0-4.6,0-9.1,0-13.7c-1.2,0.6-2.3,1.2-3.5,1.7c-0.4,0.2-0.5,0.4-0.5,0.8c0,3.5,0,7,0,10.5c0,0.2,0,0.4,0,0.6
		C71,48.2,72.3,48.2,73.6,48.2z"/>
	<path class="st1" d="M74.6,58.7c0,2.4,0,4.8,0,7.2c0,0.8-0.3,0.9-1,0.6c-1.5-0.7-3-1.5-4.5-2.2c-0.3-0.2-0.5-0.4-0.5-0.8
		c0-4,0-8,0-12c0-0.5,0.2-0.7,0.7-0.7c1.5,0,2.9,0,4.4,0c0.7,0,0.8,0.1,0.8,0.8C74.6,54,74.6,56.3,74.6,58.7z M69.6,51.8
		c0,3.8,0,7.6,0,11.3c0,0.1,0.1,0.3,0.2,0.4c1.3,0.7,2.5,1.3,3.8,1.9c0-4.6,0-9.1,0-13.7C72.3,51.8,71,51.8,69.6,51.8z"/>
</g>
</svg>
