<?xml version="1.0" encoding="utf-8"?>
<!-- Generator: Adobe Illustrator 23.1.0, SVG Export Plug-In . SVG Version: 6.00 Build 0)  -->
<svg version="1.1" id="Layer_1" xmlns="http://www.w3.org/2000/svg" xmlns:xlink="http://www.w3.org/1999/xlink" x="0px" y="0px"
	 width="56" height="56" viewBox="0 0 56 56" style="enable-background:new 0 0 56 56;" xml:space="preserve">
<style type="text/css">
	.st0{fill:#51658D;}
	.st1{fill:#FFFFFF;}
	.st2{fill:#FCFCFC;}
</style>
<circle class="st0" cx="-211.8" cy="28.8" r="27.4"/>
<g>
	<path class="st1" d="M-206.1,21c0-0.2-0.2-0.4-0.4-0.4c-0.2,0-0.4,0.2-0.4,0.4c0,0.2,0.2,0.4,0.4,0.4
		C-206.3,21.5-206.1,21.3-206.1,21z"/>
	<path class="st1" d="M-211.9,39.7c-1-0.5-1.9-1-2.9-1.5c-2.5-1.3-5-2.6-7.5-3.9c-0.2-0.1-0.3-0.2-0.3-0.4c0-0.2,0.2-0.3,0.3-0.4
		c1.2-0.6,2.5-1.3,3.7-1.9c0.1,0,0.1-0.1,0.2-0.1c-0.1,0-0.1-0.1-0.2-0.1c-1.2-0.6-2.4-1.3-3.7-1.9c-0.1,0-0.1-0.1-0.2-0.1
		c-0.2-0.1-0.3-0.2-0.3-0.4c0-0.2,0.1-0.3,0.3-0.4c0.7-0.4,1.4-0.7,2.1-1.1c0.6-0.3,1.2-0.6,1.7-0.9c0.1,0,0.1-0.1,0.2-0.1
		c-0.1,0-0.1-0.1-0.2-0.1c-1.2-0.7-2.5-1.3-3.7-1.9c-0.2-0.1-0.3-0.2-0.3-0.4c0-0.2,0.2-0.3,0.3-0.4c3.4-1.8,6.8-3.6,10.2-5.3
		c0.2-0.1,0.4-0.1,0.6,0c1.1,0.6,2.2,1.2,3.4,1.7c0.3,0.2,0.4,0.4,0.3,0.6c-0.1,0.2-0.4,0.3-0.6,0.2c-0.8-0.4-1.5-0.8-2.3-1.2
		c-0.3-0.1-0.6-0.3-0.9-0.4c-0.1,0-0.2,0-0.2,0c-3.1,1.6-6.2,3.2-9.3,4.8c0,0,0,0-0.1,0c0.1,0,0.1,0.1,0.1,0.1
		c3.1,1.6,6.2,3.2,9.2,4.8c0.1,0.1,0.2,0,0.3,0c2.6-1.3,5.2-2.7,7.8-4c0.5-0.3,1-0.5,1.6-0.8c-0.3-0.2-0.6-0.3-0.8-0.4
		c-0.6-0.3-1.3-0.7-1.9-1c-0.1-0.1-0.3-0.2-0.3-0.3c0-0.1,0.1-0.3,0.2-0.4c0.1-0.1,0.3-0.1,0.5,0c0.5,0.3,1.1,0.6,1.6,0.8
		c0.6,0.3,1.1,0.6,1.7,0.9c0.2,0.1,0.3,0.2,0.4,0.3c0,0.1,0,0.2,0,0.3c-0.1,0.1-0.3,0.3-0.4,0.3c-1.2,0.6-2.5,1.3-3.7,1.9
		c-0.1,0-0.1,0.1-0.2,0.1c0.1,0.1,0.1,0.1,0.2,0.1c1.2,0.6,2.5,1.3,3.7,1.9c0.2,0.1,0.3,0.2,0.4,0.3c0,0.1,0,0.2,0,0.3
		c-0.1,0.1-0.3,0.3-0.4,0.3c-1.2,0.7-2.5,1.3-3.7,1.9c-0.1,0-0.1,0.1-0.2,0.1c0.1,0,0.1,0.1,0.2,0.1c1.2,0.6,2.5,1.3,3.7,1.9
		c0.2,0.1,0.3,0.2,0.4,0.3c0,0.1,0,0.2,0,0.3c-0.1,0.1-0.2,0.3-0.4,0.3c-2.4,1.3-4.9,2.5-7.3,3.8c-1,0.5-2.1,1.1-3.1,1.6
		C-211.7,39.7-211.8,39.7-211.9,39.7z M-221.3,33.8c0.1,0,0.1,0.1,0.1,0.1c3.1,1.6,6.1,3.2,9.2,4.8c0.1,0,0.2,0,0.3,0
		c3.1-1.6,6.2-3.2,9.2-4.8c0,0,0.1-0.1,0.1-0.1c-0.1,0-0.1-0.1-0.2-0.1c-1.2-0.6-2.3-1.2-3.5-1.8c-0.1-0.1-0.2-0.1-0.4,0
		c-1.7,0.9-3.4,1.8-5.1,2.7c-0.2,0.1-0.4,0.1-0.7,0c-1.7-0.9-3.4-1.8-5.1-2.7c-0.1-0.1-0.2-0.1-0.3,0c-1.2,0.6-2.3,1.2-3.5,1.8
		C-221.1,33.7-221.2,33.8-221.3,33.8z M-202.2,28.8c-0.5-0.3-1-0.5-1.5-0.8c-0.1-0.1-0.2-0.1-0.4,0c-2.5,1.3-5,2.6-7.6,4
		c-0.6,0.3-1.1,0.6-1.7,0.9c0.1,0,0.1,0.1,0.2,0.1c0.4,0.2,0.8,0.4,1.2,0.6c0.2,0.1,0.4,0.1,0.6,0c1.9-1,3.9-2,5.9-3
		C-204.5,30-203.4,29.4-202.2,28.8z M-204.9,27.4c-0.4-0.2-0.7-0.4-1.1-0.6c-0.1-0.1-0.2-0.1-0.3,0c-1.7,0.9-3.4,1.8-5.1,2.7
		c-0.2,0.1-0.4,0.2-0.6,0c-0.1-0.1-0.2,0-0.3,0c-1,0.5-1.9,1-2.9,1.5c-0.3,0.1-0.5,0.3-0.8,0.4c0.5,0.3,1,0.5,1.5,0.8
		c0.1,0.1,0.2,0.1,0.4,0c2.6-1.4,5.3-2.7,7.9-4.1C-205.9,27.9-205.4,27.7-204.9,27.4z M-215.7,27.6c-0.6-0.3-1.1-0.6-1.6-0.8
		c-0.1,0-0.1,0-0.2,0c-1.2,0.6-2.4,1.2-3.6,1.9c0,0-0.1,0.1-0.2,0.1c0.4,0.2,0.8,0.4,1.1,0.6c0.4,0.3,0.7,0.2,1.1,0
		C-218,28.8-216.8,28.2-215.7,27.6z M-218.7,30.1c0.1,0,0.1,0.1,0.2,0.1c0.4,0.2,0.9,0.5,1.3,0.7c0.1,0.1,0.2,0.1,0.4,0
		c1.2-0.6,2.4-1.2,3.5-1.8c0.1,0,0.1-0.1,0.2-0.1c-0.5-0.3-1.1-0.6-1.6-0.8c-0.1,0-0.2,0-0.2,0c-0.7,0.4-1.4,0.7-2.1,1.1
		C-217.5,29.6-218.1,29.8-218.7,30.1z"/>
	<path class="st1" d="M-206.1,21c0,0.2-0.2,0.4-0.4,0.4c-0.2,0-0.4-0.2-0.4-0.4c0-0.2,0.2-0.4,0.4-0.4
		C-206.3,20.6-206.1,20.8-206.1,21z"/>
</g>
<circle class="st0" cx="-127.1" cy="28.6" r="27.4"/>
<g>
	<path class="st1" d="M-126.6,39.5c0-0.1,0-0.2,0-0.3c0-0.4,0-0.9,0-1.3c0-0.2-0.1-0.4-0.3-0.5c-0.3-0.1-0.5,0.1-0.5,0.5
		c0,0.5,0,1.1,0,1.7c-0.4-0.2-0.8-0.4-1.3-0.6c-0.3-0.1-0.5-0.1-0.6,0.2c-0.1,0.2,0,0.5,0.3,0.6c0.6,0.3,1.2,0.6,1.8,0.9
		c0.1,0.1,0.3,0.1,0.4,0c0.7-0.3,1.4-0.6,2-1c0.2-0.1,0.3-0.3,0.2-0.5c-0.1-0.2-0.3-0.3-0.5-0.2c-0.1,0-0.1,0.1-0.2,0.1
		C-125.9,39.2-126.2,39.3-126.6,39.5z"/>
	<path class="st1" d="M-138.3,34c0-0.6,0-1.1,0-1.6c0-0.3-0.2-0.5-0.4-0.5c-0.3,0-0.4,0.2-0.4,0.5c0,0.7,0,1.4,0,2.1
		c0,0.2,0,0.4,0.3,0.6c0.7,0.3,1.3,0.6,2,0.9c0.3,0.1,0.6-0.1,0.6-0.4c0-0.2-0.1-0.3-0.3-0.4c-0.3-0.2-0.7-0.3-1-0.5
		c0.4-0.2,0.8-0.3,1.1-0.5c0.1-0.1,0.2-0.3,0.2-0.4c0-0.1-0.2-0.3-0.3-0.4c-0.1,0-0.3,0-0.4,0.1C-137.4,33.6-137.8,33.8-138.3,34z"
		/>
	<path class="st1" d="M-115.8,34c-0.1-0.1-0.3-0.1-0.4-0.2c-0.3-0.2-0.7-0.3-1-0.5c-0.2-0.1-0.5,0-0.6,0.2c-0.1,0.2,0,0.4,0.2,0.6
		c0.2,0.1,0.4,0.2,0.5,0.3c0.2,0.1,0.4,0.2,0.6,0.3c-0.4,0.2-0.7,0.4-1.1,0.5c-0.3,0.1-0.3,0.3-0.2,0.6c0.1,0.2,0.4,0.3,0.6,0.2
		c0.6-0.3,1.1-0.6,1.7-0.8c0.3-0.1,0.4-0.4,0.4-0.7c0-0.7,0-1.3,0-2c0-0.3-0.2-0.5-0.4-0.5c-0.3,0-0.4,0.2-0.4,0.5
		C-115.8,33-115.8,33.4-115.8,34z"/>
	<path class="st1" d="M-127.5,17.7c0,0.1,0,0.2,0,0.3c0,0.4,0,0.8,0,1.2c0,0.2,0.1,0.4,0.4,0.4c0.2,0,0.4-0.1,0.5-0.3
		c0-0.1,0-0.2,0-0.3c0-0.4,0-0.9,0-1.3c0.4,0.2,0.9,0.4,1.3,0.6c0.3,0.1,0.5,0.1,0.6-0.2c0.1-0.2,0-0.5-0.3-0.6
		c-0.6-0.3-1.2-0.6-1.8-0.9c-0.1-0.1-0.3-0.1-0.4,0c-0.7,0.3-1.3,0.6-2,1c-0.2,0.1-0.3,0.4-0.2,0.6c0.1,0.2,0.3,0.3,0.5,0.2
		c0.1,0,0.2-0.1,0.3-0.1C-128.2,18.1-127.9,17.9-127.5,17.7z"/>
	<path class="st1" d="M-115.8,23.3c0,0.5,0,1,0,1.4c0,0.3,0.2,0.5,0.4,0.5c0.3,0,0.4-0.2,0.4-0.5c0-0.7,0-1.4,0-2
		c0-0.2-0.1-0.4-0.3-0.4c-0.6-0.3-1.2-0.6-1.8-0.9c-0.3-0.1-0.6-0.1-0.7,0.2c-0.1,0.2,0,0.5,0.3,0.6c0.3,0.2,0.7,0.3,1,0.5
		c-0.4,0.2-0.7,0.3-1,0.5c-0.3,0.1-0.4,0.4-0.3,0.6c0.1,0.2,0.4,0.3,0.7,0.2C-116.7,23.7-116.3,23.5-115.8,23.3z"/>
	<path class="st1" d="M-137.7,22.6c0.4-0.2,0.7-0.3,1-0.5c0.3-0.2,0.4-0.4,0.3-0.6c-0.1-0.3-0.4-0.3-0.7-0.2
		c-0.6,0.3-1.2,0.6-1.8,0.9c-0.2,0.1-0.3,0.2-0.3,0.4c0,0.7,0,1.4,0,2.1c0,0.2,0.1,0.4,0.4,0.4c0.3,0.1,0.5-0.1,0.5-0.4
		c0-0.5,0-0.9,0-1.5c0.5,0.2,0.9,0.4,1.3,0.6c0.3,0.1,0.5,0.1,0.7-0.2c0.1-0.2,0-0.5-0.3-0.6C-137,22.9-137.3,22.8-137.7,22.6z"/>
	<path class="st1" d="M-122.5,18.8c-0.2,0-0.4,0.1-0.4,0.3c-0.1,0.2,0.1,0.4,0.3,0.5c0.8,0.4,1.6,0.8,2.5,1.2c0.1,0,0.2,0.1,0.3,0.1
		c0.1-0.1,0.3-0.2,0.3-0.3c0.1-0.2-0.1-0.4-0.3-0.5c-0.8-0.4-1.7-0.8-2.5-1.2C-122.4,18.8-122.5,18.8-122.5,18.8z"/>
	<path class="st1" d="M-119.5,36.9c0-0.4-0.3-0.6-0.6-0.5c-0.9,0.4-1.7,0.8-2.6,1.2c-0.2,0.1-0.3,0.3-0.2,0.6
		c0.1,0.2,0.3,0.3,0.6,0.2c0.8-0.4,1.7-0.8,2.5-1.2C-119.7,37.2-119.6,37-119.5,36.9z"/>
	<path class="st1" d="M-134.2,20.9c0.1,0,0.2-0.1,0.3-0.1c0.8-0.4,1.7-0.8,2.5-1.2c0,0,0,0,0,0c0.2-0.1,0.3-0.4,0.2-0.6
		c-0.1-0.2-0.3-0.3-0.6-0.2c-0.7,0.3-1.5,0.7-2.2,1c-0.1,0.1-0.3,0.1-0.4,0.2c-0.2,0.1-0.2,0.3-0.2,0.5
		C-134.5,20.7-134.3,20.8-134.2,20.9z"/>
	<path class="st1" d="M-134.2,36.4c-0.1,0.1-0.3,0.2-0.3,0.4c-0.1,0.2,0,0.4,0.2,0.5c0.9,0.4,1.7,0.8,2.6,1.2c0.2,0.1,0.5,0,0.6-0.2
		c0.1-0.2,0-0.5-0.3-0.6c-0.8-0.4-1.6-0.8-2.5-1.2C-134,36.4-134.1,36.4-134.2,36.4z"/>
	<path class="st1" d="M-138.3,28.6c0-0.4,0-0.8,0-1.2c0-0.3-0.2-0.5-0.4-0.5c-0.2,0-0.4,0.2-0.4,0.5c0,0.8,0,1.6,0,2.4
		c0,0.3,0.2,0.5,0.4,0.5c0.3,0,0.4-0.2,0.4-0.5C-138.3,29.4-138.3,29-138.3,28.6z"/>
	<path class="st1" d="M-115.8,28.6c0,0.4,0,0.8,0,1.2c0,0.3,0.2,0.5,0.4,0.5c0.3,0,0.4-0.2,0.4-0.5c0-0.8,0-1.6,0-2.4
		c0-0.3-0.2-0.5-0.4-0.5c-0.2,0-0.4,0.2-0.4,0.5C-115.8,27.8-115.8,28.2-115.8,28.6z"/>
	<path class="st1" d="M-132.9,28.6c0-0.9,0-1.7,0-2.6c0-0.2-0.1-0.3-0.2-0.3c-0.4-0.2-0.9-0.4-1.3-0.6c-0.3-0.1-0.4-0.4-0.3-0.6
		c0.1-0.2,0.4-0.3,0.6-0.2c0.4,0.2,0.8,0.4,1.2,0.6c0.1,0,0.3,0.1,0.4,0c1.6-0.7,3.2-1.5,4.8-2.3c0.2-0.1,0.2-0.2,0.2-0.4
		c0-0.5,0-1.1,0-1.6c0-0.3,0.2-0.5,0.4-0.5c0.3,0,0.4,0.2,0.4,0.5c0,0.5,0,1.1,0,1.6c0,0.2,0,0.2,0.2,0.3c1.6,0.8,3.2,1.5,4.8,2.3
		c0.1,0,0.2,0,0.3,0c0.5-0.2,0.9-0.4,1.3-0.6c0.3-0.2,0.6-0.1,0.7,0.1c0.1,0.3,0,0.5-0.3,0.6c-0.5,0.2-1,0.5-1.5,0.7
		c-0.1,0.1-0.2,0.1-0.2,0.3c0,1.7,0,3.5,0,5.2c0,0.2,0.1,0.2,0.2,0.3c0.4,0.2,0.9,0.4,1.3,0.6c0.4,0.2,0.5,0.4,0.4,0.7
		c-0.1,0.3-0.4,0.3-0.7,0.1c-0.4-0.2-0.8-0.4-1.2-0.6c-0.1,0-0.3-0.1-0.4,0c-1.6,0.7-3.2,1.5-4.8,2.3c-0.2,0.1-0.2,0.2-0.2,0.3
		c0,0.4,0,0.8,0,1.1c0,0.3-0.2,0.5-0.4,0.5c-0.3,0-0.4-0.2-0.4-0.5c0-0.4,0-0.8,0-1.2c0-0.2,0-0.2-0.2-0.3c-1.6-0.8-3.2-1.5-4.8-2.3
		c-0.1,0-0.2,0-0.3,0c-0.4,0.2-0.8,0.4-1.2,0.6c-0.4,0.2-0.6,0.1-0.7-0.1c-0.1-0.3,0-0.5,0.4-0.6c0.4-0.2,0.8-0.4,1.3-0.6
		c0.1-0.1,0.2-0.1,0.2-0.3C-132.9,30.4-132.9,29.5-132.9,28.6z M-126.6,33.8c0.1-0.1,0.2-0.1,0.3-0.1c1.3-0.6,2.7-1.3,4-1.9
		c0.2-0.1,0.2-0.2,0.2-0.4c0-1.6,0-3.2,0-4.8c0-0.1,0-0.2,0-0.2c-0.1,0-0.1,0-0.1,0c-1.4,0.7-2.9,1.4-4.3,2.1
		c-0.1,0-0.1,0.2-0.1,0.3c0,0.8,0,1.6,0,2.4C-126.6,31.9-126.6,32.8-126.6,33.8z M-132,26.2c0,1.7,0,3.4,0,5.1
		c0,0.2,0.1,0.3,0.3,0.4c1.4,0.6,2.7,1.3,4.1,1.9c0.1,0,0.1,0.1,0.2,0.1c0-1.8,0-3.5,0-5.2c0-0.1-0.1-0.2-0.2-0.2
		c-0.7-0.3-1.4-0.7-2.1-1C-130.5,27-131.3,26.6-132,26.2z M-122.5,25.5c-0.1,0-0.1-0.1-0.1-0.1c-1.4-0.7-2.9-1.4-4.3-2
		c-0.1,0-0.2,0-0.3,0c-1.4,0.7-2.8,1.3-4.2,2c-0.1,0-0.1,0.1-0.2,0.1c1.5,0.7,3,1.4,4.4,2.1c0.1,0,0.2,0,0.3,0
		c0.5-0.2,0.9-0.4,1.4-0.7C-124.5,26.4-123.5,26-122.5,25.5z"/>
	<path class="st1" d="M-126.6,39.5c0.4-0.2,0.8-0.4,1.1-0.5c0.1,0,0.1-0.1,0.2-0.1c0.2-0.1,0.4,0,0.5,0.2c0.1,0.2,0.1,0.4-0.2,0.5
		c-0.7,0.3-1.3,0.7-2,1c-0.1,0-0.3,0-0.4,0c-0.6-0.3-1.2-0.6-1.8-0.9c-0.3-0.1-0.4-0.4-0.3-0.6c0.1-0.2,0.3-0.3,0.6-0.2
		c0.4,0.2,0.8,0.4,1.3,0.6c0-0.6,0-1.1,0-1.7c0-0.3,0.2-0.5,0.5-0.5c0.2,0.1,0.3,0.2,0.3,0.5c0,0.4,0,0.9,0,1.3
		C-126.6,39.3-126.6,39.4-126.6,39.5z"/>
	<path class="st1" d="M-138.3,34c0.5-0.2,0.9-0.4,1.3-0.6c0.1-0.1,0.3-0.1,0.4-0.1c0.1,0.1,0.3,0.2,0.3,0.4c0,0.1-0.1,0.3-0.2,0.4
		c-0.3,0.2-0.7,0.4-1.1,0.5c0.4,0.2,0.7,0.3,1,0.5c0.2,0.1,0.3,0.2,0.3,0.4c0,0.3-0.3,0.5-0.6,0.4c-0.7-0.3-1.3-0.6-2-0.9
		c-0.2-0.1-0.3-0.3-0.3-0.6c0-0.7,0-1.4,0-2.1c0-0.3,0.2-0.5,0.4-0.5c0.2,0,0.4,0.2,0.4,0.5C-138.3,32.9-138.3,33.4-138.3,34z"/>
	<path class="st1" d="M-115.8,34c0-0.5,0-1,0-1.5c0-0.3,0.2-0.5,0.4-0.5c0.3,0,0.4,0.2,0.4,0.5c0,0.7,0,1.3,0,2
		c0,0.3-0.1,0.5-0.4,0.7c-0.6,0.3-1.1,0.5-1.7,0.8c-0.3,0.1-0.5,0.1-0.6-0.2c-0.1-0.2,0-0.4,0.2-0.6c0.3-0.2,0.7-0.3,1.1-0.5
		c-0.2-0.1-0.4-0.2-0.6-0.3c-0.2-0.1-0.4-0.2-0.5-0.3c-0.2-0.1-0.3-0.3-0.2-0.6c0.1-0.2,0.3-0.3,0.6-0.2c0.3,0.1,0.7,0.3,1,0.5
		C-116.1,33.9-116,33.9-115.8,34z"/>
	<path class="st1" d="M-127.5,17.7c-0.4,0.2-0.7,0.3-1.1,0.5c-0.1,0-0.2,0.1-0.3,0.1c-0.2,0.1-0.4,0-0.5-0.2c-0.1-0.2,0-0.5,0.2-0.6
		c0.7-0.3,1.3-0.7,2-1c0.1,0,0.3,0,0.4,0c0.6,0.3,1.2,0.6,1.8,0.9c0.3,0.1,0.4,0.4,0.3,0.6c-0.1,0.2-0.4,0.3-0.6,0.2
		c-0.4-0.2-0.8-0.4-1.3-0.6c0,0.5,0,0.9,0,1.3c0,0.1,0,0.2,0,0.3c-0.1,0.2-0.2,0.4-0.5,0.3c-0.2,0-0.4-0.2-0.4-0.4
		c0-0.4,0-0.8,0-1.2C-127.5,18-127.5,17.9-127.5,17.7z"/>
	<path class="st1" d="M-115.8,23.3c-0.5,0.2-0.9,0.4-1.3,0.6c-0.3,0.1-0.5,0.1-0.7-0.2c-0.1-0.2,0-0.5,0.3-0.6
		c0.3-0.2,0.7-0.3,1-0.5c-0.4-0.2-0.7-0.3-1-0.5c-0.3-0.1-0.4-0.4-0.3-0.6c0.1-0.2,0.4-0.3,0.7-0.2c0.6,0.3,1.2,0.6,1.8,0.9
		c0.2,0.1,0.3,0.2,0.3,0.4c0,0.7,0,1.4,0,2c0,0.3-0.2,0.5-0.4,0.5c-0.2,0-0.4-0.2-0.4-0.5C-115.8,24.2-115.8,23.8-115.8,23.3z"/>
	<path class="st1" d="M-137.7,22.6c0.4,0.2,0.7,0.3,1,0.5c0.3,0.1,0.4,0.4,0.3,0.6c-0.1,0.2-0.4,0.3-0.7,0.2
		c-0.4-0.2-0.8-0.4-1.3-0.6c0,0.5,0,1,0,1.5c0,0.3-0.2,0.5-0.5,0.4c-0.2-0.1-0.3-0.2-0.4-0.4c0-0.7,0-1.4,0-2.1
		c0-0.2,0.1-0.4,0.3-0.4c0.6-0.3,1.2-0.6,1.8-0.9c0.3-0.2,0.6-0.1,0.7,0.2c0.1,0.2,0,0.5-0.3,0.6C-137,22.3-137.3,22.4-137.7,22.6z"
		/>
	<path class="st1" d="M-122.5,18.8c0,0,0.1,0,0.2,0.1c0.8,0.4,1.7,0.8,2.5,1.2c0.2,0.1,0.3,0.3,0.3,0.5c0,0.1-0.2,0.3-0.3,0.3
		c-0.1,0-0.2,0-0.3-0.1c-0.8-0.4-1.6-0.8-2.5-1.2c-0.2-0.1-0.3-0.3-0.3-0.5C-122.9,18.9-122.7,18.8-122.5,18.8z"/>
	<path class="st1" d="M-119.5,36.9c-0.1,0.1-0.1,0.2-0.3,0.3c-0.8,0.4-1.7,0.8-2.5,1.2c-0.2,0.1-0.5,0-0.6-0.2
		c-0.1-0.2,0-0.4,0.2-0.6c0.9-0.4,1.7-0.8,2.6-1.2C-119.8,36.3-119.5,36.5-119.5,36.9z"/>
	<path class="st1" d="M-134.2,20.9c-0.1-0.1-0.3-0.2-0.3-0.3c-0.1-0.2,0-0.4,0.2-0.5c0.1-0.1,0.3-0.1,0.4-0.2c0.7-0.4,1.5-0.7,2.2-1
		c0.3-0.1,0.5,0,0.6,0.2c0.1,0.2,0,0.4-0.2,0.6c0,0,0,0,0,0c-0.8,0.4-1.7,0.8-2.5,1.2C-134,20.8-134.1,20.9-134.2,20.9z"/>
	<path class="st1" d="M-134.2,36.4c0.2,0.1,0.2,0.1,0.3,0.1c0.8,0.4,1.6,0.8,2.5,1.2c0.3,0.1,0.4,0.4,0.3,0.6
		c-0.1,0.2-0.3,0.3-0.6,0.2c-0.9-0.4-1.7-0.8-2.6-1.2c-0.2-0.1-0.3-0.3-0.2-0.5C-134.5,36.6-134.3,36.5-134.2,36.4z"/>
	<path class="st1" d="M-138.3,28.6c0,0.4,0,0.8,0,1.2c0,0.3-0.2,0.5-0.4,0.5c-0.3,0-0.4-0.2-0.4-0.5c0-0.8,0-1.6,0-2.4
		c0-0.3,0.2-0.5,0.4-0.5c0.3,0,0.4,0.2,0.4,0.5C-138.3,27.8-138.3,28.2-138.3,28.6z"/>
	<path class="st1" d="M-115.8,28.6c0-0.4,0-0.8,0-1.2c0-0.3,0.2-0.5,0.4-0.5c0.3,0,0.4,0.2,0.4,0.5c0,0.8,0,1.6,0,2.4
		c0,0.3-0.2,0.5-0.4,0.5c-0.3,0-0.4-0.2-0.4-0.5C-115.8,29.4-115.8,29-115.8,28.6z"/>
</g>
<g>
	<circle class="st0" cx="-39.6" cy="28.1" r="27.4"/>
	<g>
		<path class="st1" d="M-42,13.9c0.3,0,0.7,0,1,0c0.1,0,0.1,0,0.2,0c0.6,0.1,1.1,0.3,1.7,0.6c1.4,0.9,2.2,2.2,2.2,3.9
			c0,6.5,0,13,0,19.5c0,0.8,0.5,1.5,1.3,1.5c0.7,0,1.4,0,2.1,0c0.6,0,1.1-0.5,1.2-0.9c-0.1,0-0.1,0-0.2,0c-0.5,0-0.6-0.2-0.6-0.6
			c0-0.1,0-0.2,0-0.4c0-0.6,0-1.2,0-1.9c-0.3,0-0.6,0-0.8,0c-0.4,0-0.6-0.2-0.6-0.6c0-0.6,0-1.2,0-1.8c0-0.1-0.1-0.3-0.2-0.4
			c-0.3-0.3-0.6-0.7-1-1c-0.2-0.2-0.3-0.4-0.3-0.6c0-2.3,0-4.7,0-7c0-1,0-2.1,0-3.1c0-0.5,0.2-0.6,0.6-0.6c0.1,0,0.2,0,0.3,0
			c0-0.1,0-0.2,0-0.4c0-1.9,0-3.8,0-5.6c0-0.3,0.1-0.5,0.3-0.6c2.6,0,5.2,0,7.9,0c0.3,0.2,0.3,0.4,0.3,0.7c0,1.9,0,3.7,0,5.6
			c0,0.1,0,0.2,0,0.3c0.1,0,0.2,0,0.3,0c0.4,0,0.6,0.2,0.6,0.6c0,3.4,0,6.8,0,10.1c0,0.2-0.1,0.4-0.2,0.6c-0.3,0.4-0.7,0.7-1,1.1
			c-0.1,0.1-0.1,0.2-0.1,0.4c0,0.6,0,1.2,0,1.7c0,0.5-0.1,0.7-0.7,0.7c-0.2,0-0.5,0-0.7,0c0,0.1,0,0.2,0,0.2c0,0.7,0,1.3,0,2
			c0,0.4-0.2,0.6-0.6,0.6c-0.1,0-0.3,0-0.4,0c0,0.1,0,0.2-0.1,0.3c-0.3,1.6-1.6,3-3.2,3.4c-1.1,0.2-2.2,0.1-3.3,0.1
			c-0.3,0-0.5-0.1-0.8-0.2c-1.8-0.6-3-2.2-3-4.1c0-6.4,0-12.8,0-19.3c0-0.1,0-0.2,0-0.3c-0.1-0.7-0.4-1.2-1-1.5
			c-0.6-0.3-1.2-0.2-1.7,0.3c-0.4,0.4-0.6,0.8-0.6,1.4c0,6.5,0,13,0,19.5c0,3.1-3.1,5.2-5.9,3.9c-1.7-0.7-2.6-2.1-2.6-4
			c0-2.2,0-4.5,0-6.7c0-0.1,0-0.2,0-0.3c-0.1,0-0.1,0-0.2,0c-0.6,0-0.7-0.1-0.7-0.7c0-0.4,0-0.7,0-1.1c-0.1,0-0.1,0-0.2,0
			c-0.6,0-0.7-0.1-0.7-0.8c0-1.9,0-3.8,0-5.7c0-0.8,0-1.6,0-2.4c0-0.2,0-0.5,0.3-0.5c0.2-0.1,0.2-0.2,0.2-0.3c0-1.6,0-3.2,0-4.8
			c0-0.3,0.1-0.5,0.3-0.6c1.7,0,3.3,0,5,0c0.3,0.1,0.4,0.3,0.3,0.6c0,0.2,0,0.5,0,0.7c0,1.4,0,2.7,0,4.1c0,0.1,0.1,0.2,0.1,0.3
			c0.3,0.1,0.4,0.3,0.4,0.6c0,2.7,0,5.5,0,8.2c0,0,0,0.1,0,0.1c0,0.3-0.2,0.5-0.5,0.5c-0.1,0-0.3,0-0.4,0c0,0.5,0,0.9,0,1.3
			c0,0.4-0.2,0.5-0.5,0.6c-0.1,0-0.3,0-0.4,0c0,0.1,0,0.3,0,0.4c0,2.2,0,4.3,0,6.5c0,0.1,0,0.2,0,0.3c0,0.7,0.6,1.2,1.3,1.3
			c0.6,0.1,1.3-0.4,1.5-1C-46,38.2-46,38-46,37.8c0-6.4,0-12.9,0-19.3c0-2.1,1.3-3.8,3.2-4.4C-42.5,14-42.2,13.9-42,13.9z M-28,34.7
			c0-0.6,0-1.2,0-1.7c0-0.2,0.1-0.4,0.2-0.6c0.3-0.4,0.7-0.7,1-1c0.1-0.1,0.2-0.3,0.2-0.5c0-3,0-6.1,0-9.1c0-0.1,0-0.2,0-0.3
			c-2.9,0-5.7,0-8.5,0c0,0.1,0,0.2,0,0.4c0,2.7,0,5.4,0,8.1c0,0.4-0.1,0.9,0,1.3c0.1,0.4,0.5,0.6,0.8,0.9c0.4,0.3,0.6,0.8,0.5,1.3
			c0,0.4,0,0.9,0,1.3C-31.8,34.7-29.9,34.7-28,34.7z M-50.7,30.9c0,0.1,0,0.2,0,0.4c0,1.8,0,3.6,0,5.4c0,0.5,0,1.1,0,1.6
			c0.1,1.6,1.5,3,3.2,3c1.9,0.1,3.4-1.4,3.4-3.4c0-4.7,0-9.5,0-14.2c0-1.8,0-3.7,0-5.5c0-1.6,1.6-2.8,3.2-2.4c1.2,0.3,2,1.3,2,2.7
			c0,4.5,0,9,0,13.4c0,2,0,4.1,0,6.1c0,1.6,1.2,3,2.8,3.2c0.9,0.1,1.8,0.1,2.7,0c0.6,0,1.1-0.2,1.6-0.6c0.8-0.5,1.2-1.3,1.4-2.2
			c-0.3,0-0.5,0-0.7,0c-0.2,0-0.2,0.1-0.3,0.2c-0.3,0.9-0.9,1.5-1.9,1.6c-0.8,0.1-1.7,0-2.5,0c-0.1,0-0.2,0-0.3-0.1
			c-1.1-0.3-1.8-1.2-1.8-2.4c0-6.4,0-12.8,0-19.2c0-0.1,0-0.3,0-0.4c-0.1-2.2-2.1-3.8-4.3-3.4c-1.7,0.4-2.8,1.8-2.8,3.5
			c0,6.4,0,12.9,0,19.3c0,0.1,0,0.3,0,0.4c-0.1,1.6-1.6,2.6-3.1,2.2c-1-0.3-1.7-1.2-1.7-2.4c0-2.2,0-4.4,0-6.6c0-0.1,0-0.2,0-0.4
			C-50.1,30.9-50.4,30.9-50.7,30.9z M-47.9,28.1c0-2.5,0-5,0-7.5c-1.6,0-3.1,0-4.7,0c0,2.5,0,5,0,7.5C-51,28.1-49.5,28.1-47.9,28.1z
			 M-27.5,14.8c-2.2,0-4.4,0-6.6,0c0,1.9,0,3.8,0,5.6c2.2,0,4.4,0,6.6,0C-27.5,18.6-27.5,16.7-27.5,14.8z M-48.4,14.8
			c-0.6,0-1.2,0-1.9,0c0,0.3,0,0.6,0,0.9c0.2,0,0.3,0,0.4,0c0.3,0,0.5,0.2,0.5,0.5c0,0.6,0,1.2,0,1.9c0,0.3-0.2,0.5-0.5,0.5
			c-0.2,0-0.3,0-0.5,0c0,0.3,0,0.6,0,0.9c0.6,0,1.2,0,1.9,0C-48.4,18-48.4,16.4-48.4,14.8z M-51.2,19.5c0-0.5,0-0.9,0-1.3
			c0-0.3,0.2-0.5,0.5-0.5c0.1,0,0.3,0,0.4,0c0-0.2,0-0.3,0-0.5c0-0.2,0-0.3,0-0.5c-0.1,0-0.1,0-0.2,0c-0.6,0.1-0.8-0.2-0.8-0.8
			c0-0.4,0-0.7,0-1.1c-0.3,0-0.6,0-0.9,0c0,1.6,0,3.1,0,4.7C-51.8,19.5-51.5,19.5-51.2,19.5z M-32.2,37.5c0.9,0,1.9,0,2.8,0
			c0-0.6,0-1.2,0-1.9c-0.9,0-1.9,0-2.8,0C-32.2,36.3-32.2,36.9-32.2,37.5z M-51.6,29.9c1,0,1.9,0,2.8,0c0-0.3,0-0.6,0-0.9
			c-0.9,0-1.7,0-2.5,0c-0.1,0-0.2,0-0.3,0C-51.6,29.3-51.6,29.6-51.6,29.9z"/>
		<path class="st1" d="M-34.1,24.3c0.3,0,0.6,0,0.9,0c0,0.6,0.1,1.2,0,1.7c-0.1,0.6,0.1,0.9,0.7,1.1c0.4,0.1,0.7,0.4,1.1,0.5
			c0,0,0,0,0.1,0c0-1.6,0-3.2,0-4.8c0.3,0,0.6,0,0.9,0c0,1.2,0,2.3,0,3.5c0.5-0.2,0.9-0.4,1.3-0.5c0.1,0,0.1-0.1,0.1-0.2
			c0-0.4,0-0.9,0-1.3c0.3,0,0.6,0,0.9,0c0,0.6,0,1.3,0,1.9c0,0.2-0.2,0.3-0.4,0.4c-0.6,0.2-1.2,0.5-1.7,0.7
			c-0.2,0.1-0.2,0.1-0.2,0.3c0,0.6,0,1.1,0,1.7c0,0.1,0.1,0.2,0.2,0.3c0.6,0.4,0.9,1,0.7,1.7c-0.2,0.6-0.8,1.1-1.5,1
			c-0.7-0.1-1.2-0.6-1.3-1.3c-0.1-0.5,0.2-1.1,0.7-1.4c0.3-0.2,0.1-0.4,0.2-0.6c0-0.2-0.1-0.3-0.2-0.3c-0.7-0.4-1.5-0.7-2.2-1.1
			c-0.3-0.1-0.4-0.3-0.4-0.6C-34.1,26.1-34.1,25.2-34.1,24.3z M-30.8,30.4c-0.3,0-0.5,0.2-0.5,0.5c0,0.2,0.2,0.5,0.5,0.5
			c0.3,0,0.5-0.2,0.5-0.5C-30.4,30.6-30.6,30.4-30.8,30.4z"/>
		<path class="st2" d="M-28.5,17.2c0,0.3,0,0.6,0,0.9c-0.6,0-1.2,0-1.9,0c0-0.3,0-0.6,0-0.9C-29.7,17.2-29.1,17.2-28.5,17.2z"/>
		<path class="st2" d="M-33.2,18.1c0-0.3,0-0.6,0-0.9c0.6,0,1.2,0,1.9,0c0,0.3,0,0.6,0,0.9C-31.9,18.1-32.6,18.1-33.2,18.1z"/>
	</g>
</g>
<g>
	<g>
		<circle class="st0" cx="27.9" cy="28.2" r="27.4"/>
	</g>
	<g>
		<path class="st1" d="M29.5,35.6c0.3-0.1,0.5-0.2,0.6-0.3c1.4-0.8,2.9-1.7,4.3-2.5c0.6-0.4,1.3-0.7,2-0.8c0.9-0.1,1.7,0.4,2,1.2
			c0.3,0.9,0,1.8-0.8,2.3c-2.6,1.6-5.3,3.2-7.9,4.9c-1,0.6-2,0.8-3.1,0.5c-1.7-0.5-3.4-0.9-5-1.4c-0.5-0.1-0.9,0-1.2,0.3
			c0.1,0.2,0.2,0.4,0.3,0.6c0.3,0.6,0.1,1.2-0.4,1.5c-0.4,0.3-0.9,0.5-1.3,0.7c-0.6,0.3-1.2,0.1-1.5-0.4c-1.2-2.2-2.5-4.4-3.7-6.6
			c-0.3-0.6-0.1-1.2,0.4-1.5c0.4-0.2,0.8-0.5,1.2-0.7c0.6-0.3,1.2-0.2,1.6,0.5c0.1,0.1,0.2,0.3,0.3,0.4c0.4-0.2,0.7-0.4,1.1-0.6
			c0.8-0.5,1.7-1,2.5-1.4c0.8-0.5,1.7-0.8,2.7-0.5c0.9,0.2,1.7,0.6,2.5,0.9c0.7,0.2,1.4,0.4,2.1,0.6c1.1,0.3,1.7,1.2,1.4,2.3
			C29.5,35.4,29.5,35.5,29.5,35.6z M19.9,38.8c0.2-0.1,0.5-0.2,0.7-0.4c0.2-0.2,0.5-0.2,0.7-0.1c1.8,0.5,3.6,1,5.4,1.5
			c1,0.3,1.8,0.1,2.7-0.4c2.6-1.6,5.1-3.2,7.7-4.8c0.4-0.3,0.6-0.7,0.4-1.2c-0.1-0.4-0.5-0.6-1-0.5c-0.6,0.1-1.1,0.3-1.6,0.6
			c-1.5,0.9-2.9,1.7-4.4,2.6c-0.7,0.4-1.4,0.6-2.2,0.5c-0.6-0.1-1.1-0.2-1.7-0.3c-0.7-0.2-1.4-0.4-2.1-0.5c-0.3-0.1-0.4-0.3-0.4-0.6
			c0.1-0.2,0.3-0.4,0.6-0.3c0.1,0,0.2,0.1,0.3,0.1c0.9,0.2,1.8,0.5,2.7,0.7c0.5,0.1,0.9-0.2,1-0.6c0.1-0.4-0.2-0.8-0.6-1
			c-0.2-0.1-0.4-0.1-0.6-0.1c-1.3-0.4-2.6-0.8-3.8-1.2c-0.5-0.2-1-0.2-1.5,0c-0.3,0.1-0.6,0.3-0.9,0.4c-1.1,0.6-2.1,1.2-3.2,1.9
			c-0.1,0-0.1,0.1-0.2,0.1C18.5,36.3,19.2,37.6,19.9,38.8z M20,40.8c0-0.1-0.1-0.1-0.1-0.2c-1.2-2.1-2.4-4.3-3.6-6.4
			c-0.1-0.2-0.2-0.2-0.4-0.1c-0.3,0.2-0.7,0.4-1,0.6c-0.3,0.2-0.3,0.2-0.1,0.5c0.5,0.8,0.9,1.7,1.4,2.5c0.7,1.3,1.4,2.5,2.1,3.8
			c0.1,0.1,0.2,0.3,0.4,0.2c0.4-0.2,0.8-0.4,1.2-0.7C19.9,41,19.9,40.9,20,40.8z"/>
		<path class="st1" d="M37.8,27.4c0.1-0.8,0.1-1.6-0.1-2.4c-0.9-4.2-3.3-6.8-7.4-8c-0.4-0.1-0.9-0.2-1.3-0.2
			c-0.5-0.1-0.6-0.2-0.6-0.7c0-0.6,0-1.2,0-1.9c0-0.5,0.2-0.6,0.7-0.6c5.8,0.4,10.7,4.8,11.7,10.5c0.2,0.9,0.2,1.9,0.2,2.8
			c0,0.1,0,0.2,0,0.4c0.2,0,0.3,0,0.4,0c0.3,0,0.5,0.1,0.7,0.4c0.1,0.3,0.1,0.5-0.1,0.8c-0.6,0.8-1.3,1.6-1.9,2.4
			c-0.3,0.4-0.8,0.4-1.2,0c-0.6-0.8-1.3-1.6-1.9-2.4c-0.2-0.2-0.2-0.5-0.1-0.8c0.1-0.3,0.4-0.4,0.6-0.4
			C37.5,27.4,37.6,27.4,37.8,27.4z M40.9,28.4c-0.2,0-0.2,0-0.3,0c-0.6,0-0.7-0.1-0.7-0.7c0.1-1.1,0.1-2.2-0.2-3.3
			c-1-4.6-3.8-7.7-8.3-9.2c-0.7-0.2-1.5-0.3-2.3-0.5c0,0.4,0,0.7,0,1.1c0,0.2,0.1,0.3,0.3,0.3c0.4,0.1,0.7,0.1,1.1,0.2
			c5.1,1.3,8.5,6.1,8.1,11.4c-0.1,0.7-0.1,0.7-0.7,0.9c0.5,0.6,1,1.2,1.5,1.9C39.9,29.6,40.4,29,40.9,28.4z"/>
		<path class="st1" d="M26.6,25c-1.9-1.5-1.7-3.8-0.4-5.1c1.3-1.3,3.5-1.4,4.8,0c1.3,1.3,1.5,3.6-0.4,5.1c0.1,0,0.2,0.1,0.3,0.1
			c2.2,1,3.5,2.7,3.9,5.1c0,0.3-0.1,0.5-0.5,0.6c-0.1,0-0.2,0-0.2,0c-3.7,0-7.3,0-11,0c-0.2,0-0.3,0-0.5-0.1
			c-0.2-0.1-0.2-0.3-0.2-0.5c0.2-1.5,0.9-2.8,2-3.9C25,25.7,25.8,25.3,26.6,25z M33.7,29.8c-0.3-1.9-2.2-4.2-5.2-4.2
			c-3,0-4.8,2.3-5.1,4.2C26.8,29.8,30.3,29.8,33.7,29.8z M28.5,24.7c1.4,0,2.5-1.1,2.5-2.4c0-1.4-1.1-2.4-2.4-2.4
			c-1.3,0-2.4,1.1-2.4,2.4C26.1,23.6,27.2,24.7,28.5,24.7z"/>
		<path class="st1" d="M16.6,26.3c-0.3,0-0.7,0-1,0c-0.4,0-0.6-0.2-0.6-0.6c0.1-1.6,0.5-3.2,1.3-4.7c0.2-0.4,0.4-0.5,0.8-0.3
			c0.6,0.3,1.2,0.7,1.7,1c0.3,0.2,0.4,0.4,0.2,0.7c-0.5,1.1-0.8,2.2-0.9,3.3c0,0.3-0.2,0.5-0.5,0.5C17.3,26.3,16.9,26.3,16.6,26.3z
			 M18,22.3c-0.3-0.2-0.6-0.4-1-0.6c-0.5,1.2-0.8,2.3-1,3.6c0.4,0,0.7,0,1.1,0c0.1,0,0.2-0.1,0.2-0.2C17.5,24.3,17.7,23.3,18,22.3z"
			/>
		<path class="st1" d="M16.6,27c0.3,0,0.7,0,1,0c0.3,0,0.5,0.2,0.5,0.5c0.1,1.2,0.4,2.3,0.9,3.4c0.1,0.3,0,0.5-0.2,0.6
			c-0.6,0.4-1.2,0.7-1.9,1.1c-0.3,0.2-0.5,0.1-0.7-0.2c-0.7-1.4-1.1-2.8-1.2-4.3c0-0.2,0-0.3,0-0.5c0-0.4,0.2-0.6,0.5-0.6
			C15.9,27,16.3,27,16.6,27z M17,31.5c0.4-0.2,0.7-0.4,1-0.6c-0.3-1-0.5-2-0.8-3c-0.4,0-0.8,0-1.2,0C16.1,29.2,16.4,30.3,17,31.5z"
			/>
		<path class="st1" d="M27.6,15.3c0,0.3,0,0.7,0,1c0,0.3-0.1,0.5-0.5,0.5c-1.2,0.1-2.3,0.4-3.4,0.9c-0.3,0.1-0.5,0.1-0.6-0.2
			c-0.4-0.6-0.7-1.2-1.1-1.8c-0.2-0.3-0.1-0.5,0.2-0.7c1.4-0.7,2.8-1.1,4.3-1.2c0.2,0,0.3,0,0.5,0c0.4,0,0.6,0.2,0.6,0.5
			C27.6,14.6,27.6,14.9,27.6,15.3z M23.1,15.6c0.2,0.4,0.4,0.7,0.6,1c1-0.2,2-0.5,2.9-0.7c0.1,0,0.1-0.1,0.1-0.1c0-0.4,0-0.7,0-1.1
			C25.4,14.8,24.2,15.1,23.1,15.6z"/>
		<path class="st1" d="M19.5,21.3c-0.2-0.1-0.3-0.1-0.4-0.2c-0.6-0.3-1.2-0.7-1.7-1c-0.3-0.2-0.4-0.5-0.2-0.8
			c0.9-1.4,2.1-2.5,3.5-3.5c0.3-0.2,0.6-0.2,0.8,0.2c0.3,0.6,0.7,1.2,1,1.7c0.2,0.3,0.1,0.5-0.2,0.8c-0.9,0.7-1.7,1.5-2.4,2.4
			C19.8,21.1,19.6,21.2,19.5,21.3z M18.2,19.5c0.4,0.2,0.7,0.4,1,0.6c0.7-0.7,1.5-1.5,2.2-2.2c-0.2-0.3-0.4-0.7-0.6-1
			C19.8,17.7,19,18.5,18.2,19.5z"/>
		<path class="st1" d="M16.3,35.4c0,0.2-0.2,0.4-0.5,0.4c-0.3,0-0.5-0.2-0.4-0.5c0-0.2,0.2-0.4,0.5-0.4
			C16.1,34.9,16.3,35.1,16.3,35.4z"/>
	</g>
</g>
</svg>
