<?xml version="1.0" encoding="utf-8"?>
<!-- Generator: Adobe Illustrator 23.1.0, SVG Export Plug-In . SVG Version: 6.00 Build 0)  -->
<svg version="1.1" id="Layer_1" xmlns="http://www.w3.org/2000/svg" xmlns:xlink="http://www.w3.org/1999/xlink" x="0px" y="0px"
	 width="56" height="56" viewBox="0 0 56 56" style="enable-background:new 0 0 100 100;" xml:space="preserve">
<style type="text/css">
	.st0{fill:#51658D;}
	.st1{fill:#FFFFFF;}
</style>
<circle class="st0" cx="28.1" cy="28.6" r="27.4"/>
<circle class="st0" cx="-56.6" cy="28.8" r="27.4"/>
<g>
	<path class="st1" d="M-51,21c0-0.2-0.2-0.4-0.4-0.4c-0.2,0-0.4,0.2-0.4,0.4c0,0.2,0.2,0.4,0.4,0.4C-51.1,21.5-50.9,21.3-51,21z"/>
	<path class="st1" d="M-56.7,39.7c-1-0.5-1.9-1-2.9-1.5c-2.5-1.3-5-2.6-7.5-3.9c-0.2-0.1-0.3-0.2-0.3-0.4c0-0.2,0.2-0.3,0.3-0.4
		c1.2-0.6,2.5-1.3,3.7-1.9c0.1,0,0.1-0.1,0.2-0.1c-0.1,0-0.1-0.1-0.2-0.1c-1.2-0.6-2.4-1.3-3.7-1.9c-0.1,0-0.1-0.1-0.2-0.1
		c-0.2-0.1-0.3-0.2-0.3-0.4c0-0.2,0.1-0.3,0.3-0.4c0.7-0.4,1.4-0.7,2.1-1.1c0.6-0.3,1.2-0.6,1.7-0.9c0.1,0,0.1-0.1,0.2-0.1
		c-0.1,0-0.1-0.1-0.2-0.1c-1.2-0.7-2.5-1.3-3.7-1.9c-0.2-0.1-0.3-0.2-0.3-0.4c0-0.2,0.2-0.3,0.3-0.4c3.4-1.8,6.8-3.6,10.2-5.3
		c0.2-0.1,0.4-0.1,0.6,0c1.1,0.6,2.2,1.2,3.4,1.7c0.3,0.2,0.4,0.4,0.3,0.6c-0.1,0.2-0.4,0.3-0.6,0.2c-0.8-0.4-1.5-0.8-2.3-1.2
		c-0.3-0.1-0.6-0.3-0.9-0.4c-0.1,0-0.2,0-0.2,0c-3.1,1.6-6.2,3.2-9.3,4.8c0,0,0,0-0.1,0c0.1,0,0.1,0.1,0.1,0.1
		c3.1,1.6,6.2,3.2,9.2,4.8c0.1,0.1,0.2,0,0.3,0c2.6-1.3,5.2-2.7,7.8-4c0.5-0.3,1-0.5,1.6-0.8c-0.3-0.2-0.6-0.3-0.8-0.4
		c-0.6-0.3-1.3-0.7-1.9-1c-0.1-0.1-0.3-0.2-0.3-0.3c0-0.1,0.1-0.3,0.2-0.4c0.1-0.1,0.3-0.1,0.5,0c0.5,0.3,1.1,0.6,1.6,0.8
		c0.6,0.3,1.1,0.6,1.7,0.9c0.2,0.1,0.3,0.2,0.4,0.3c0,0.1,0,0.2,0,0.3c-0.1,0.1-0.3,0.3-0.4,0.3c-1.2,0.6-2.5,1.3-3.7,1.9
		c-0.1,0-0.1,0.1-0.2,0.1c0.1,0.1,0.1,0.1,0.2,0.1c1.2,0.6,2.5,1.3,3.7,1.9c0.2,0.1,0.3,0.2,0.4,0.3c0,0.1,0,0.2,0,0.3
		c-0.1,0.1-0.3,0.3-0.4,0.3c-1.2,0.7-2.5,1.3-3.7,1.9c-0.1,0-0.1,0.1-0.2,0.1c0.1,0,0.1,0.1,0.2,0.1c1.2,0.6,2.5,1.3,3.7,1.9
		c0.2,0.1,0.3,0.2,0.4,0.3c0,0.1,0,0.2,0,0.3c-0.1,0.1-0.2,0.3-0.4,0.3c-2.4,1.3-4.9,2.5-7.3,3.8c-1,0.5-2.1,1.1-3.1,1.6
		C-56.6,39.7-56.6,39.7-56.7,39.7z M-66.1,33.8c0.1,0,0.1,0.1,0.1,0.1c3.1,1.6,6.1,3.2,9.2,4.8c0.1,0,0.2,0,0.3,0
		c3.1-1.6,6.2-3.2,9.2-4.8c0,0,0.1-0.1,0.1-0.1c-0.1,0-0.1-0.1-0.2-0.1c-1.2-0.6-2.3-1.2-3.5-1.8c-0.1-0.1-0.2-0.1-0.4,0
		c-1.7,0.9-3.4,1.8-5.1,2.7c-0.2,0.1-0.4,0.1-0.7,0c-1.7-0.9-3.4-1.8-5.1-2.7c-0.1-0.1-0.2-0.1-0.3,0c-1.2,0.6-2.3,1.2-3.5,1.8
		C-66,33.7-66,33.8-66.1,33.8z M-47.1,28.8c-0.5-0.3-1-0.5-1.5-0.8c-0.1-0.1-0.2-0.1-0.4,0c-2.5,1.3-5,2.6-7.6,4
		c-0.6,0.3-1.1,0.6-1.7,0.9c0.1,0,0.1,0.1,0.2,0.1c0.4,0.2,0.8,0.4,1.2,0.6c0.2,0.1,0.4,0.1,0.6,0c1.9-1,3.9-2,5.9-3
		C-49.4,30-48.2,29.4-47.1,28.8z M-49.7,27.4c-0.4-0.2-0.7-0.4-1.1-0.6c-0.1-0.1-0.2-0.1-0.3,0c-1.7,0.9-3.4,1.8-5.1,2.7
		c-0.2,0.1-0.4,0.2-0.6,0c-0.1-0.1-0.2,0-0.3,0c-1,0.5-1.9,1-2.9,1.5c-0.3,0.1-0.5,0.3-0.8,0.4c0.5,0.3,1,0.5,1.5,0.8
		c0.1,0.1,0.2,0.1,0.4,0c2.6-1.4,5.3-2.7,7.9-4.1C-50.7,27.9-50.2,27.7-49.7,27.4z M-60.5,27.6c-0.6-0.3-1.1-0.6-1.6-0.8
		c-0.1,0-0.1,0-0.2,0c-1.2,0.6-2.4,1.2-3.6,1.9c0,0-0.1,0.1-0.2,0.1c0.4,0.2,0.8,0.4,1.1,0.6c0.4,0.3,0.7,0.2,1.1,0
		C-62.8,28.8-61.7,28.2-60.5,27.6z M-63.5,30.1c0.1,0,0.1,0.1,0.2,0.1c0.4,0.2,0.9,0.5,1.3,0.7c0.1,0.1,0.2,0.1,0.4,0
		c1.2-0.6,2.4-1.2,3.5-1.8c0.1,0,0.1-0.1,0.2-0.1c-0.5-0.3-1.1-0.6-1.6-0.8c-0.1,0-0.2,0-0.2,0c-0.7,0.4-1.4,0.7-2.1,1.1
		C-62.4,29.6-62.9,29.8-63.5,30.1z"/>
	<path class="st1" d="M-51,21c0,0.2-0.2,0.4-0.4,0.4c-0.2,0-0.4-0.2-0.4-0.4c0-0.2,0.2-0.4,0.4-0.4C-51.2,20.6-51,20.8-51,21z"/>
</g>
<g>
	<path class="st1" d="M28.5,39.5c0-0.1,0-0.2,0-0.3c0-0.4,0-0.9,0-1.3c0-0.2-0.1-0.4-0.3-0.5c-0.3-0.1-0.5,0.1-0.5,0.5
		c0,0.5,0,1.1,0,1.7c-0.4-0.2-0.8-0.4-1.3-0.6c-0.3-0.1-0.5-0.1-0.6,0.2c-0.1,0.2,0,0.5,0.3,0.6c0.6,0.3,1.2,0.6,1.8,0.9
		c0.1,0.1,0.3,0.1,0.4,0c0.7-0.3,1.4-0.6,2-1c0.2-0.1,0.3-0.3,0.2-0.5c-0.1-0.2-0.3-0.3-0.5-0.2c-0.1,0-0.1,0.1-0.2,0.1
		C29.3,39.2,28.9,39.3,28.5,39.5z"/>
	<path class="st1" d="M16.9,34c0-0.6,0-1.1,0-1.6c0-0.3-0.2-0.5-0.4-0.5c-0.3,0-0.4,0.2-0.4,0.5c0,0.7,0,1.4,0,2.1
		c0,0.2,0,0.4,0.3,0.6c0.7,0.3,1.3,0.6,2,0.9c0.3,0.1,0.6-0.1,0.6-0.4c0-0.2-0.1-0.3-0.3-0.4c-0.3-0.2-0.7-0.3-1-0.5
		c0.4-0.2,0.8-0.3,1.1-0.5c0.1-0.1,0.2-0.3,0.2-0.4c0-0.1-0.2-0.3-0.3-0.4c-0.1,0-0.3,0-0.4,0.1C17.7,33.6,17.3,33.8,16.9,34z"/>
	<path class="st1" d="M39.3,34c-0.1-0.1-0.3-0.1-0.4-0.2c-0.3-0.2-0.7-0.3-1-0.5c-0.2-0.1-0.5,0-0.6,0.2c-0.1,0.2,0,0.4,0.2,0.6
		c0.2,0.1,0.4,0.2,0.5,0.3c0.2,0.1,0.4,0.2,0.6,0.3c-0.4,0.2-0.7,0.4-1.1,0.5c-0.3,0.1-0.3,0.3-0.2,0.6c0.1,0.2,0.4,0.3,0.6,0.2
		c0.6-0.3,1.1-0.6,1.7-0.8c0.3-0.1,0.4-0.4,0.4-0.7c0-0.7,0-1.3,0-2c0-0.3-0.2-0.5-0.4-0.5c-0.3,0-0.4,0.2-0.4,0.5
		C39.3,33,39.3,33.4,39.3,34z"/>
	<path class="st1" d="M27.7,17.7c0,0.1,0,0.2,0,0.3c0,0.4,0,0.8,0,1.2c0,0.2,0.1,0.4,0.4,0.4c0.2,0,0.4-0.1,0.5-0.3
		c0-0.1,0-0.2,0-0.3c0-0.4,0-0.9,0-1.3c0.4,0.2,0.9,0.4,1.3,0.6c0.3,0.1,0.5,0.1,0.6-0.2c0.1-0.2,0-0.5-0.3-0.6
		c-0.6-0.3-1.2-0.6-1.8-0.9c-0.1-0.1-0.3-0.1-0.4,0c-0.7,0.3-1.3,0.6-2,1c-0.2,0.1-0.3,0.4-0.2,0.6c0.1,0.2,0.3,0.3,0.5,0.2
		c0.1,0,0.2-0.1,0.3-0.1C26.9,18.1,27.3,17.9,27.7,17.7z"/>
	<path class="st1" d="M39.3,23.3c0,0.5,0,1,0,1.4c0,0.3,0.2,0.5,0.4,0.5c0.3,0,0.4-0.2,0.4-0.5c0-0.7,0-1.4,0-2
		c0-0.2-0.1-0.4-0.3-0.4c-0.6-0.3-1.2-0.6-1.8-0.9c-0.3-0.1-0.6-0.1-0.7,0.2c-0.1,0.2,0,0.5,0.3,0.6c0.3,0.2,0.7,0.3,1,0.5
		c-0.4,0.2-0.7,0.3-1,0.5c-0.3,0.1-0.4,0.4-0.3,0.6c0.1,0.2,0.4,0.3,0.7,0.2C38.5,23.7,38.9,23.5,39.3,23.3z"/>
	<path class="st1" d="M17.5,22.6c0.4-0.2,0.7-0.3,1-0.5c0.3-0.2,0.4-0.4,0.3-0.6c-0.1-0.3-0.4-0.3-0.7-0.2c-0.6,0.3-1.2,0.6-1.8,0.9
		c-0.2,0.1-0.3,0.2-0.3,0.4c0,0.7,0,1.4,0,2.1c0,0.2,0.1,0.4,0.4,0.4c0.3,0.1,0.5-0.1,0.5-0.4c0-0.5,0-0.9,0-1.5
		c0.5,0.2,0.9,0.4,1.3,0.6c0.3,0.1,0.5,0.1,0.7-0.2c0.1-0.2,0-0.5-0.3-0.6C18.2,22.9,17.9,22.8,17.5,22.6z"/>
	<path class="st1" d="M32.7,18.8c-0.2,0-0.4,0.1-0.4,0.3c-0.1,0.2,0.1,0.4,0.3,0.5c0.8,0.4,1.6,0.8,2.5,1.2c0.1,0,0.2,0.1,0.3,0.1
		c0.1-0.1,0.3-0.2,0.3-0.3c0.1-0.2-0.1-0.4-0.3-0.5c-0.8-0.4-1.7-0.8-2.5-1.2C32.8,18.8,32.7,18.8,32.7,18.8z"/>
	<path class="st1" d="M35.6,36.9c0-0.4-0.3-0.6-0.6-0.5c-0.9,0.4-1.7,0.8-2.6,1.2c-0.2,0.1-0.3,0.3-0.2,0.6c0.1,0.2,0.3,0.3,0.6,0.2
		c0.8-0.4,1.7-0.8,2.5-1.2C35.5,37.2,35.6,37,35.6,36.9z"/>
	<path class="st1" d="M20.9,20.9c0.1,0,0.2-0.1,0.3-0.1c0.8-0.4,1.7-0.8,2.5-1.2c0,0,0,0,0,0c0.2-0.1,0.3-0.4,0.2-0.6
		c-0.1-0.2-0.3-0.3-0.6-0.2c-0.7,0.3-1.5,0.7-2.2,1C21,20,20.9,20,20.7,20.1c-0.2,0.1-0.2,0.3-0.2,0.5
		C20.7,20.7,20.8,20.8,20.9,20.9z"/>
	<path class="st1" d="M20.9,36.4c-0.1,0.1-0.3,0.2-0.3,0.4c-0.1,0.2,0,0.4,0.2,0.5c0.9,0.4,1.7,0.8,2.6,1.2c0.2,0.1,0.5,0,0.6-0.2
		c0.1-0.2,0-0.5-0.3-0.6c-0.8-0.4-1.6-0.8-2.5-1.2C21.2,36.4,21.1,36.4,20.9,36.4z"/>
	<path class="st1" d="M16.9,28.6c0-0.4,0-0.8,0-1.2c0-0.3-0.2-0.5-0.4-0.5c-0.2,0-0.4,0.2-0.4,0.5c0,0.8,0,1.6,0,2.4
		c0,0.3,0.2,0.5,0.4,0.5c0.3,0,0.4-0.2,0.4-0.5C16.9,29.4,16.9,29,16.9,28.6z"/>
	<path class="st1" d="M39.3,28.6c0,0.4,0,0.8,0,1.2c0,0.3,0.2,0.5,0.4,0.5c0.3,0,0.4-0.2,0.4-0.5c0-0.8,0-1.6,0-2.4
		c0-0.3-0.2-0.5-0.4-0.5c-0.2,0-0.4,0.2-0.4,0.5C39.3,27.8,39.3,28.2,39.3,28.6z"/>
	<path class="st1" d="M22.2,28.6c0-0.9,0-1.7,0-2.6c0-0.2-0.1-0.3-0.2-0.3c-0.4-0.2-0.9-0.4-1.3-0.6c-0.3-0.1-0.4-0.4-0.3-0.6
		c0.1-0.2,0.4-0.3,0.6-0.2c0.4,0.2,0.8,0.4,1.2,0.6c0.1,0,0.3,0.1,0.4,0c1.6-0.7,3.2-1.5,4.8-2.3c0.2-0.1,0.2-0.2,0.2-0.4
		c0-0.5,0-1.1,0-1.6c0-0.3,0.2-0.5,0.4-0.5c0.3,0,0.4,0.2,0.4,0.5c0,0.5,0,1.1,0,1.6c0,0.2,0,0.2,0.2,0.3c1.6,0.8,3.2,1.5,4.8,2.3
		c0.1,0,0.2,0,0.3,0c0.5-0.2,0.9-0.4,1.3-0.6c0.3-0.2,0.6-0.1,0.7,0.1c0.1,0.3,0,0.5-0.3,0.6c-0.5,0.2-1,0.5-1.5,0.7
		C34,25.8,34,25.9,34,26c0,1.7,0,3.5,0,5.2c0,0.2,0.1,0.2,0.2,0.3c0.4,0.2,0.9,0.4,1.3,0.6c0.4,0.2,0.5,0.4,0.4,0.7
		c-0.1,0.3-0.4,0.3-0.7,0.1c-0.4-0.2-0.8-0.4-1.2-0.6c-0.1,0-0.3-0.1-0.4,0c-1.6,0.7-3.2,1.5-4.8,2.3c-0.2,0.1-0.2,0.2-0.2,0.3
		c0,0.4,0,0.8,0,1.1c0,0.3-0.2,0.5-0.4,0.5c-0.3,0-0.4-0.2-0.4-0.5c0-0.4,0-0.8,0-1.2c0-0.2,0-0.2-0.2-0.3c-1.6-0.8-3.2-1.5-4.8-2.3
		c-0.1,0-0.2,0-0.3,0c-0.4,0.2-0.8,0.4-1.2,0.6c-0.4,0.2-0.6,0.1-0.7-0.1c-0.1-0.3,0-0.5,0.4-0.6c0.4-0.2,0.8-0.4,1.3-0.6
		c0.1-0.1,0.2-0.1,0.2-0.3C22.2,30.4,22.2,29.5,22.2,28.6z M28.5,33.8c0.1-0.1,0.2-0.1,0.3-0.1c1.3-0.6,2.7-1.3,4-1.9
		c0.2-0.1,0.2-0.2,0.2-0.4c0-1.6,0-3.2,0-4.8c0-0.1,0-0.2,0-0.2c-0.1,0-0.1,0-0.1,0c-1.4,0.7-2.9,1.4-4.3,2.1
		c-0.1,0-0.1,0.2-0.1,0.3c0,0.8,0,1.6,0,2.4C28.5,31.9,28.5,32.8,28.5,33.8z M23.1,26.2c0,1.7,0,3.4,0,5.1c0,0.2,0.1,0.3,0.3,0.4
		c1.4,0.6,2.7,1.3,4.1,1.9c0.1,0,0.1,0.1,0.2,0.1c0-1.8,0-3.5,0-5.2c0-0.1-0.1-0.2-0.2-0.2c-0.7-0.3-1.4-0.7-2.1-1
		C24.6,27,23.9,26.6,23.1,26.2z M32.7,25.5c-0.1,0-0.1-0.1-0.1-0.1c-1.4-0.7-2.9-1.4-4.3-2c-0.1,0-0.2,0-0.3,0
		c-1.4,0.7-2.8,1.3-4.2,2c-0.1,0-0.1,0.1-0.2,0.1c1.5,0.7,3,1.4,4.4,2.1c0.1,0,0.2,0,0.3,0c0.5-0.2,0.9-0.4,1.4-0.7
		C30.7,26.4,31.7,26,32.7,25.5z"/>
	<path class="st1" d="M28.5,39.5c0.4-0.2,0.8-0.4,1.1-0.5c0.1,0,0.1-0.1,0.2-0.1c0.2-0.1,0.4,0,0.5,0.2c0.1,0.2,0.1,0.4-0.2,0.5
		c-0.7,0.3-1.3,0.7-2,1c-0.1,0-0.3,0-0.4,0c-0.6-0.3-1.2-0.6-1.8-0.9c-0.3-0.1-0.4-0.4-0.3-0.6c0.1-0.2,0.3-0.3,0.6-0.2
		c0.4,0.2,0.8,0.4,1.3,0.6c0-0.6,0-1.1,0-1.7c0-0.3,0.2-0.5,0.5-0.5c0.2,0.1,0.3,0.2,0.3,0.5c0,0.4,0,0.9,0,1.3
		C28.5,39.3,28.5,39.4,28.5,39.5z"/>
	<path class="st1" d="M16.9,34c0.5-0.2,0.9-0.4,1.3-0.6c0.1-0.1,0.3-0.1,0.4-0.1c0.1,0.1,0.3,0.2,0.3,0.4c0,0.1-0.1,0.3-0.2,0.4
		c-0.3,0.2-0.7,0.4-1.1,0.5c0.4,0.2,0.7,0.3,1,0.5c0.2,0.1,0.3,0.2,0.3,0.4c0,0.3-0.3,0.5-0.6,0.4c-0.7-0.3-1.3-0.6-2-0.9
		C16,34.9,16,34.7,16,34.5c0-0.7,0-1.4,0-2.1c0-0.3,0.2-0.5,0.4-0.5c0.2,0,0.4,0.2,0.4,0.5C16.9,32.9,16.9,33.4,16.9,34z"/>
	<path class="st1" d="M39.3,34c0-0.5,0-1,0-1.5c0-0.3,0.2-0.5,0.4-0.5c0.3,0,0.4,0.2,0.4,0.5c0,0.7,0,1.3,0,2c0,0.3-0.1,0.5-0.4,0.7
		c-0.6,0.3-1.1,0.5-1.7,0.8c-0.3,0.1-0.5,0.1-0.6-0.2c-0.1-0.2,0-0.4,0.2-0.6c0.3-0.2,0.7-0.3,1.1-0.5c-0.2-0.1-0.4-0.2-0.6-0.3
		c-0.2-0.1-0.4-0.2-0.5-0.3c-0.2-0.1-0.3-0.3-0.2-0.6c0.1-0.2,0.3-0.3,0.6-0.2c0.3,0.1,0.7,0.3,1,0.5C39.1,33.9,39.2,33.9,39.3,34z"
		/>
	<path class="st1" d="M27.7,17.7c-0.4,0.2-0.7,0.3-1.1,0.5c-0.1,0-0.2,0.1-0.3,0.1c-0.2,0.1-0.4,0-0.5-0.2c-0.1-0.2,0-0.5,0.2-0.6
		c0.7-0.3,1.3-0.7,2-1c0.1,0,0.3,0,0.4,0c0.6,0.3,1.2,0.6,1.8,0.9c0.3,0.1,0.4,0.4,0.3,0.6c-0.1,0.2-0.4,0.3-0.6,0.2
		c-0.4-0.2-0.8-0.4-1.3-0.6c0,0.5,0,0.9,0,1.3c0,0.1,0,0.2,0,0.3c-0.1,0.2-0.2,0.4-0.5,0.3c-0.2,0-0.4-0.2-0.4-0.4
		c0-0.4,0-0.8,0-1.2C27.7,18,27.7,17.9,27.7,17.7z"/>
	<path class="st1" d="M39.3,23.3c-0.5,0.2-0.9,0.4-1.3,0.6c-0.3,0.1-0.5,0.1-0.7-0.2c-0.1-0.2,0-0.5,0.3-0.6c0.3-0.2,0.7-0.3,1-0.5
		c-0.4-0.2-0.7-0.3-1-0.5c-0.3-0.1-0.4-0.4-0.3-0.6c0.1-0.2,0.4-0.3,0.7-0.2c0.6,0.3,1.2,0.6,1.8,0.9c0.2,0.1,0.3,0.2,0.3,0.4
		c0,0.7,0,1.4,0,2c0,0.3-0.2,0.5-0.4,0.5c-0.2,0-0.4-0.2-0.4-0.5C39.3,24.2,39.3,23.8,39.3,23.3z"/>
	<path class="st1" d="M17.5,22.6c0.4,0.2,0.7,0.3,1,0.5c0.3,0.1,0.4,0.4,0.3,0.6c-0.1,0.2-0.4,0.3-0.7,0.2c-0.4-0.2-0.8-0.4-1.3-0.6
		c0,0.5,0,1,0,1.5c0,0.3-0.2,0.5-0.5,0.4C16.1,25.1,16,25,16,24.7c0-0.7,0-1.4,0-2.1c0-0.2,0.1-0.4,0.3-0.4c0.6-0.3,1.2-0.6,1.8-0.9
		c0.3-0.2,0.6-0.1,0.7,0.2c0.1,0.2,0,0.5-0.3,0.6C18.2,22.3,17.8,22.4,17.5,22.6z"/>
	<path class="st1" d="M32.7,18.8c0,0,0.1,0,0.2,0.1c0.8,0.4,1.7,0.8,2.5,1.2c0.2,0.1,0.3,0.3,0.3,0.5c0,0.1-0.2,0.3-0.3,0.3
		c-0.1,0-0.2,0-0.3-0.1c-0.8-0.4-1.6-0.8-2.5-1.2c-0.2-0.1-0.3-0.3-0.3-0.5C32.3,18.9,32.4,18.8,32.7,18.8z"/>
	<path class="st1" d="M35.6,36.9c-0.1,0.1-0.1,0.2-0.3,0.3c-0.8,0.4-1.7,0.8-2.5,1.2c-0.2,0.1-0.5,0-0.6-0.2c-0.1-0.2,0-0.4,0.2-0.6
		c0.9-0.4,1.7-0.8,2.6-1.2C35.3,36.3,35.6,36.5,35.6,36.9z"/>
	<path class="st1" d="M20.9,20.9c-0.1-0.1-0.3-0.2-0.3-0.3c-0.1-0.2,0-0.4,0.2-0.5c0.1-0.1,0.3-0.1,0.4-0.2c0.7-0.4,1.5-0.7,2.2-1
		c0.3-0.1,0.5,0,0.6,0.2c0.1,0.2,0,0.4-0.2,0.6c0,0,0,0,0,0c-0.8,0.4-1.7,0.8-2.5,1.2C21.1,20.8,21.1,20.9,20.9,20.9z"/>
	<path class="st1" d="M20.9,36.4c0.2,0.1,0.2,0.1,0.3,0.1c0.8,0.4,1.6,0.8,2.5,1.2c0.3,0.1,0.4,0.4,0.3,0.6
		c-0.1,0.2-0.3,0.3-0.6,0.2c-0.9-0.4-1.7-0.8-2.6-1.2c-0.2-0.1-0.3-0.3-0.2-0.5C20.7,36.6,20.8,36.5,20.9,36.4z"/>
	<path class="st1" d="M16.9,28.6c0,0.4,0,0.8,0,1.2c0,0.3-0.2,0.5-0.4,0.5c-0.3,0-0.4-0.2-0.4-0.5c0-0.8,0-1.6,0-2.4
		c0-0.3,0.2-0.5,0.4-0.5c0.3,0,0.4,0.2,0.4,0.5C16.9,27.8,16.9,28.2,16.9,28.6z"/>
	<path class="st1" d="M39.3,28.6c0-0.4,0-0.8,0-1.2c0-0.3,0.2-0.5,0.4-0.5c0.3,0,0.4,0.2,0.4,0.5c0,0.8,0,1.6,0,2.4
		c0,0.3-0.2,0.5-0.4,0.5c-0.3,0-0.4-0.2-0.4-0.5C39.3,29.4,39.3,29,39.3,28.6z"/>
</g>
</svg>
