<?xml version="1.0" encoding="utf-8"?>
<!-- Generator: Adobe Illustrator 23.1.0, SVG Export Plug-In . SVG Version: 6.00 Build 0)  -->
<svg version="1.1" id="Layer_1" xmlns="http://www.w3.org/2000/svg" xmlns:xlink="http://www.w3.org/1999/xlink" x="0px" y="0px"
	 viewBox="0 0 100 100" style="enable-background:new 0 0 100 100;" xml:space="preserve">
<style type="text/css">
	.st0{fill:#51658D;}
	.st1{fill:#FFFFFF;}
	.st2{fill:#FCFCFC;}
</style>
<circle class="st0" cx="-387" cy="50.8" r="27.4"/>
<g>
	<path class="st1" d="M-381.4,43c0-0.2-0.2-0.4-0.4-0.4c-0.2,0-0.4,0.2-0.4,0.4c0,0.2,0.2,0.4,0.4,0.4
		C-381.6,43.5-381.4,43.3-381.4,43z"/>
	<path class="st1" d="M-387.2,61.7c-1-0.5-1.9-1-2.9-1.5c-2.5-1.3-5-2.6-7.5-3.9c-0.2-0.1-0.3-0.2-0.3-0.4c0-0.2,0.2-0.3,0.3-0.4
		c1.2-0.6,2.5-1.3,3.7-1.9c0.1,0,0.1-0.1,0.2-0.1c-0.1,0-0.1-0.1-0.2-0.1c-1.2-0.6-2.4-1.3-3.7-1.9c-0.1,0-0.1-0.1-0.2-0.1
		c-0.2-0.1-0.3-0.2-0.3-0.4c0-0.2,0.1-0.3,0.3-0.4c0.7-0.4,1.4-0.7,2.1-1.1c0.6-0.3,1.2-0.6,1.7-0.9c0.1,0,0.1-0.1,0.2-0.1
		c-0.1,0-0.1-0.1-0.2-0.1c-1.2-0.7-2.5-1.3-3.7-1.9c-0.2-0.1-0.3-0.2-0.3-0.4c0-0.2,0.2-0.3,0.3-0.4c3.4-1.8,6.8-3.6,10.2-5.3
		c0.2-0.1,0.4-0.1,0.6,0c1.1,0.6,2.2,1.2,3.4,1.7c0.3,0.2,0.4,0.4,0.3,0.6c-0.1,0.2-0.4,0.3-0.6,0.2c-0.8-0.4-1.5-0.8-2.3-1.2
		c-0.3-0.1-0.6-0.3-0.9-0.4c-0.1,0-0.2,0-0.2,0c-3.1,1.6-6.2,3.2-9.3,4.8c0,0,0,0-0.1,0c0.1,0,0.1,0.1,0.1,0.1
		c3.1,1.6,6.2,3.2,9.2,4.8c0.1,0.1,0.2,0,0.3,0c2.6-1.3,5.2-2.7,7.8-4c0.5-0.3,1-0.5,1.6-0.8c-0.3-0.2-0.6-0.3-0.8-0.4
		c-0.6-0.3-1.3-0.7-1.9-1c-0.1-0.1-0.3-0.2-0.3-0.3c0-0.1,0.1-0.3,0.2-0.4c0.1-0.1,0.3-0.1,0.5,0c0.5,0.3,1.1,0.6,1.6,0.8
		c0.6,0.3,1.1,0.6,1.7,0.9c0.2,0.1,0.3,0.2,0.4,0.3c0,0.1,0,0.2,0,0.3c-0.1,0.1-0.3,0.3-0.4,0.3c-1.2,0.6-2.5,1.3-3.7,1.9
		c-0.1,0-0.1,0.1-0.2,0.1c0.1,0.1,0.1,0.1,0.2,0.1c1.2,0.6,2.5,1.3,3.7,1.9c0.2,0.1,0.3,0.2,0.4,0.3c0,0.1,0,0.2,0,0.3
		c-0.1,0.1-0.3,0.3-0.4,0.3c-1.2,0.7-2.5,1.3-3.7,1.9c-0.1,0-0.1,0.1-0.2,0.1c0.1,0,0.1,0.1,0.2,0.1c1.2,0.6,2.5,1.3,3.7,1.9
		c0.2,0.1,0.3,0.2,0.4,0.3c0,0.1,0,0.2,0,0.3c-0.1,0.1-0.2,0.3-0.4,0.3c-2.4,1.3-4.9,2.5-7.3,3.8c-1,0.5-2.1,1.1-3.1,1.6
		C-387,61.7-387.1,61.7-387.2,61.7z M-396.6,55.8c0.1,0,0.1,0.1,0.1,0.1c3.1,1.6,6.1,3.2,9.2,4.8c0.1,0,0.2,0,0.3,0
		c3.1-1.6,6.2-3.2,9.2-4.8c0,0,0.1-0.1,0.1-0.1c-0.1,0-0.1-0.1-0.2-0.1c-1.2-0.6-2.3-1.2-3.5-1.8c-0.1-0.1-0.2-0.1-0.4,0
		c-1.7,0.9-3.4,1.8-5.1,2.7c-0.2,0.1-0.4,0.1-0.7,0c-1.7-0.9-3.4-1.8-5.1-2.7c-0.1-0.1-0.2-0.1-0.3,0c-1.2,0.6-2.3,1.2-3.5,1.8
		C-396.4,55.7-396.5,55.8-396.6,55.8z M-377.5,50.8c-0.5-0.3-1-0.5-1.5-0.8c-0.1-0.1-0.2-0.1-0.4,0c-2.5,1.3-5,2.6-7.6,4
		c-0.6,0.3-1.1,0.6-1.7,0.9c0.1,0,0.1,0.1,0.2,0.1c0.4,0.2,0.8,0.4,1.2,0.6c0.2,0.1,0.4,0.1,0.6,0c1.9-1,3.9-2,5.9-3
		C-379.8,52-378.7,51.4-377.5,50.8z M-380.1,49.4c-0.4-0.2-0.7-0.4-1.1-0.6c-0.1-0.1-0.2-0.1-0.3,0c-1.7,0.9-3.4,1.8-5.1,2.7
		c-0.2,0.1-0.4,0.2-0.6,0c-0.1-0.1-0.2,0-0.3,0c-1,0.5-1.9,1-2.9,1.5c-0.3,0.1-0.5,0.3-0.8,0.4c0.5,0.3,1,0.5,1.5,0.8
		c0.1,0.1,0.2,0.1,0.4,0c2.6-1.4,5.3-2.7,7.9-4.1C-381.1,49.9-380.7,49.7-380.1,49.4z M-391,49.6c-0.6-0.3-1.1-0.6-1.6-0.8
		c-0.1,0-0.1,0-0.2,0c-1.2,0.6-2.4,1.2-3.6,1.9c0,0-0.1,0.1-0.2,0.1c0.4,0.2,0.8,0.4,1.1,0.6c0.4,0.3,0.7,0.2,1.1,0
		C-393.2,50.8-392.1,50.2-391,49.6z M-393.9,52.1c0.1,0,0.1,0.1,0.2,0.1c0.4,0.2,0.9,0.5,1.3,0.7c0.1,0.1,0.2,0.1,0.4,0
		c1.2-0.6,2.4-1.2,3.5-1.8c0.1,0,0.1-0.1,0.2-0.1c-0.5-0.3-1.1-0.6-1.6-0.8c-0.1,0-0.2,0-0.2,0c-0.7,0.4-1.4,0.7-2.1,1.1
		C-392.8,51.6-393.4,51.8-393.9,52.1z"/>
	<path class="st1" d="M-381.4,43c0,0.2-0.2,0.4-0.4,0.4c-0.2,0-0.4-0.2-0.4-0.4c0-0.2,0.2-0.4,0.4-0.4
		C-381.6,42.6-381.4,42.8-381.4,43z"/>
</g>
<circle class="st0" cx="-302.3" cy="50.6" r="27.4"/>
<g>
	<path class="st1" d="M-301.9,61.5c0-0.1,0-0.2,0-0.3c0-0.4,0-0.9,0-1.3c0-0.2-0.1-0.4-0.3-0.5c-0.3-0.1-0.5,0.1-0.5,0.5
		c0,0.5,0,1.1,0,1.7c-0.4-0.2-0.8-0.4-1.3-0.6c-0.3-0.1-0.5-0.1-0.6,0.2c-0.1,0.2,0,0.5,0.3,0.6c0.6,0.3,1.2,0.6,1.8,0.9
		c0.1,0.1,0.3,0.1,0.4,0c0.7-0.3,1.4-0.6,2-1c0.2-0.1,0.3-0.3,0.2-0.5c-0.1-0.2-0.3-0.3-0.5-0.2c-0.1,0-0.1,0.1-0.2,0.1
		C-301.1,61.2-301.5,61.3-301.9,61.5z"/>
	<path class="st1" d="M-313.6,56c0-0.6,0-1.1,0-1.6c0-0.3-0.2-0.5-0.4-0.5c-0.3,0-0.4,0.2-0.4,0.5c0,0.7,0,1.4,0,2.1
		c0,0.2,0,0.4,0.3,0.6c0.7,0.3,1.3,0.6,2,0.9c0.3,0.1,0.6-0.1,0.6-0.4c0-0.2-0.1-0.3-0.3-0.4c-0.3-0.2-0.7-0.3-1-0.5
		c0.4-0.2,0.8-0.3,1.1-0.5c0.1-0.1,0.2-0.3,0.2-0.4c0-0.1-0.2-0.3-0.3-0.4c-0.1,0-0.3,0-0.4,0.1C-312.7,55.6-313.1,55.8-313.6,56z"
		/>
	<path class="st1" d="M-291.1,56c-0.1-0.1-0.3-0.1-0.4-0.2c-0.3-0.2-0.7-0.3-1-0.5c-0.2-0.1-0.5,0-0.6,0.2c-0.1,0.2,0,0.4,0.2,0.6
		c0.2,0.1,0.4,0.2,0.5,0.3c0.2,0.1,0.4,0.2,0.6,0.3c-0.4,0.2-0.7,0.4-1.1,0.5c-0.3,0.1-0.3,0.3-0.2,0.6c0.1,0.2,0.4,0.3,0.6,0.2
		c0.6-0.3,1.1-0.6,1.7-0.8c0.3-0.1,0.4-0.4,0.4-0.7c0-0.7,0-1.3,0-2c0-0.3-0.2-0.5-0.4-0.5c-0.3,0-0.4,0.2-0.4,0.5
		C-291.1,55-291.1,55.4-291.1,56z"/>
	<path class="st1" d="M-302.8,39.7c0,0.1,0,0.2,0,0.3c0,0.4,0,0.8,0,1.2c0,0.2,0.1,0.4,0.4,0.4c0.2,0,0.4-0.1,0.5-0.3
		c0-0.1,0-0.2,0-0.3c0-0.4,0-0.9,0-1.3c0.4,0.2,0.9,0.4,1.3,0.6c0.3,0.1,0.5,0.1,0.6-0.2c0.1-0.2,0-0.5-0.3-0.6
		c-0.6-0.3-1.2-0.6-1.8-0.9c-0.1-0.1-0.3-0.1-0.4,0c-0.7,0.3-1.3,0.6-2,1c-0.2,0.1-0.3,0.4-0.2,0.6c0.1,0.2,0.3,0.3,0.5,0.2
		c0.1,0,0.2-0.1,0.3-0.1C-303.5,40.1-303.2,39.9-302.8,39.7z"/>
	<path class="st1" d="M-291.1,45.3c0,0.5,0,1,0,1.4c0,0.3,0.2,0.5,0.4,0.5c0.3,0,0.4-0.2,0.4-0.5c0-0.7,0-1.4,0-2
		c0-0.2-0.1-0.4-0.3-0.4c-0.6-0.3-1.2-0.6-1.8-0.9c-0.3-0.1-0.6-0.1-0.7,0.2c-0.1,0.2,0,0.5,0.3,0.6c0.3,0.2,0.7,0.3,1,0.5
		c-0.4,0.2-0.7,0.3-1,0.5c-0.3,0.1-0.4,0.4-0.3,0.6c0.1,0.2,0.4,0.3,0.7,0.2C-292,45.7-291.6,45.5-291.1,45.3z"/>
	<path class="st1" d="M-313,44.6c0.4-0.2,0.7-0.3,1-0.5c0.3-0.2,0.4-0.4,0.3-0.6c-0.1-0.3-0.4-0.3-0.7-0.2c-0.6,0.3-1.2,0.6-1.8,0.9
		c-0.2,0.1-0.3,0.2-0.3,0.4c0,0.7,0,1.4,0,2.1c0,0.2,0.1,0.4,0.4,0.4c0.3,0.1,0.5-0.1,0.5-0.4c0-0.5,0-0.9,0-1.5
		c0.5,0.2,0.9,0.4,1.3,0.6c0.3,0.1,0.5,0.1,0.7-0.2c0.1-0.2,0-0.5-0.3-0.6C-312.2,44.9-312.6,44.8-313,44.6z"/>
	<path class="st1" d="M-297.8,40.8c-0.2,0-0.4,0.1-0.4,0.3c-0.1,0.2,0.1,0.4,0.3,0.5c0.8,0.4,1.6,0.8,2.5,1.2c0.1,0,0.2,0.1,0.3,0.1
		c0.1-0.1,0.3-0.2,0.3-0.3c0.1-0.2-0.1-0.4-0.3-0.5c-0.8-0.4-1.7-0.8-2.5-1.2C-297.7,40.8-297.7,40.8-297.8,40.8z"/>
	<path class="st1" d="M-294.8,58.9c0-0.4-0.3-0.6-0.6-0.5c-0.9,0.4-1.7,0.8-2.6,1.2c-0.2,0.1-0.3,0.3-0.2,0.6
		c0.1,0.2,0.3,0.3,0.6,0.2c0.8-0.4,1.7-0.8,2.5-1.2C-294.9,59.2-294.9,59-294.8,58.9z"/>
	<path class="st1" d="M-309.5,42.9c0.1,0,0.2-0.1,0.3-0.1c0.8-0.4,1.7-0.8,2.5-1.2c0,0,0,0,0,0c0.2-0.1,0.3-0.4,0.2-0.6
		c-0.1-0.2-0.3-0.3-0.6-0.2c-0.7,0.3-1.5,0.7-2.2,1c-0.1,0.1-0.3,0.1-0.4,0.2c-0.2,0.1-0.2,0.3-0.2,0.5
		C-309.8,42.7-309.6,42.8-309.5,42.9z"/>
	<path class="st1" d="M-309.5,58.4c-0.1,0.1-0.3,0.2-0.3,0.4c-0.1,0.2,0,0.4,0.2,0.5c0.9,0.4,1.7,0.8,2.6,1.2c0.2,0.1,0.5,0,0.6-0.2
		c0.1-0.2,0-0.5-0.3-0.6c-0.8-0.4-1.6-0.8-2.5-1.2C-309.3,58.4-309.4,58.4-309.5,58.4z"/>
	<path class="st1" d="M-313.6,50.6c0-0.4,0-0.8,0-1.2c0-0.3-0.2-0.5-0.4-0.5c-0.2,0-0.4,0.2-0.4,0.5c0,0.8,0,1.6,0,2.4
		c0,0.3,0.2,0.5,0.4,0.5c0.3,0,0.4-0.2,0.4-0.5C-313.6,51.4-313.6,51-313.6,50.6z"/>
	<path class="st1" d="M-291.1,50.6c0,0.4,0,0.8,0,1.2c0,0.3,0.2,0.5,0.4,0.5c0.3,0,0.4-0.2,0.4-0.5c0-0.8,0-1.6,0-2.4
		c0-0.3-0.2-0.5-0.4-0.5c-0.2,0-0.4,0.2-0.4,0.5C-291.1,49.8-291.1,50.2-291.1,50.6z"/>
	<path class="st1" d="M-308.2,50.6c0-0.9,0-1.7,0-2.6c0-0.2-0.1-0.3-0.2-0.3c-0.4-0.2-0.9-0.4-1.3-0.6c-0.3-0.1-0.4-0.4-0.3-0.6
		c0.1-0.2,0.4-0.3,0.6-0.2c0.4,0.2,0.8,0.4,1.2,0.6c0.1,0,0.3,0.1,0.4,0c1.6-0.7,3.2-1.5,4.8-2.3c0.2-0.1,0.2-0.2,0.2-0.4
		c0-0.5,0-1.1,0-1.6c0-0.3,0.2-0.5,0.4-0.5c0.3,0,0.4,0.2,0.4,0.5c0,0.5,0,1.1,0,1.6c0,0.2,0,0.2,0.2,0.3c1.6,0.8,3.2,1.5,4.8,2.3
		c0.1,0,0.2,0,0.3,0c0.5-0.2,0.9-0.4,1.3-0.6c0.3-0.2,0.6-0.1,0.7,0.1c0.1,0.3,0,0.5-0.3,0.6c-0.5,0.2-1,0.5-1.5,0.7
		c-0.1,0.1-0.2,0.1-0.2,0.3c0,1.7,0,3.5,0,5.2c0,0.2,0.1,0.2,0.2,0.3c0.4,0.2,0.9,0.4,1.3,0.6c0.4,0.2,0.5,0.4,0.4,0.7
		c-0.1,0.3-0.4,0.3-0.7,0.1c-0.4-0.2-0.8-0.4-1.2-0.6c-0.1,0-0.3-0.1-0.4,0c-1.6,0.7-3.2,1.5-4.8,2.3c-0.2,0.1-0.2,0.2-0.2,0.3
		c0,0.4,0,0.8,0,1.1c0,0.3-0.2,0.5-0.4,0.5c-0.3,0-0.4-0.2-0.4-0.5c0-0.4,0-0.8,0-1.2c0-0.2,0-0.2-0.2-0.3c-1.6-0.8-3.2-1.5-4.8-2.3
		c-0.1,0-0.2,0-0.3,0c-0.4,0.2-0.8,0.4-1.2,0.6c-0.4,0.2-0.6,0.1-0.7-0.1c-0.1-0.3,0-0.5,0.4-0.6c0.4-0.2,0.8-0.4,1.3-0.6
		c0.1-0.1,0.2-0.1,0.2-0.3C-308.2,52.4-308.2,51.5-308.2,50.6z M-301.9,55.8c0.1-0.1,0.2-0.1,0.3-0.1c1.3-0.6,2.7-1.3,4-1.9
		c0.2-0.1,0.2-0.2,0.2-0.4c0-1.6,0-3.2,0-4.8c0-0.1,0-0.2,0-0.2c-0.1,0-0.1,0-0.1,0c-1.4,0.7-2.9,1.4-4.3,2.1
		c-0.1,0-0.1,0.2-0.1,0.3c0,0.8,0,1.6,0,2.4C-301.9,53.9-301.9,54.8-301.9,55.8z M-307.3,48.2c0,1.7,0,3.4,0,5.1
		c0,0.2,0.1,0.3,0.3,0.4c1.4,0.6,2.7,1.3,4.1,1.9c0.1,0,0.1,0.1,0.2,0.1c0-1.8,0-3.5,0-5.2c0-0.1-0.1-0.2-0.2-0.2
		c-0.7-0.3-1.4-0.7-2.1-1C-305.8,49-306.5,48.6-307.3,48.2z M-297.8,47.5c-0.1,0-0.1-0.1-0.1-0.1c-1.4-0.7-2.9-1.4-4.3-2
		c-0.1,0-0.2,0-0.3,0c-1.4,0.7-2.8,1.3-4.2,2c-0.1,0-0.1,0.1-0.2,0.1c1.5,0.7,3,1.4,4.4,2.1c0.1,0,0.2,0,0.3,0
		c0.5-0.2,0.9-0.4,1.4-0.7C-299.8,48.4-298.8,48-297.8,47.5z"/>
	<path class="st1" d="M-301.9,61.5c0.4-0.2,0.8-0.4,1.1-0.5c0.1,0,0.1-0.1,0.2-0.1c0.2-0.1,0.4,0,0.5,0.2c0.1,0.2,0.1,0.4-0.2,0.5
		c-0.7,0.3-1.3,0.7-2,1c-0.1,0-0.3,0-0.4,0c-0.6-0.3-1.2-0.6-1.8-0.9c-0.3-0.1-0.4-0.4-0.3-0.6c0.1-0.2,0.3-0.3,0.6-0.2
		c0.4,0.2,0.8,0.4,1.3,0.6c0-0.6,0-1.1,0-1.7c0-0.3,0.2-0.5,0.5-0.5c0.2,0.1,0.3,0.2,0.3,0.5c0,0.4,0,0.9,0,1.3
		C-301.9,61.3-301.9,61.4-301.9,61.5z"/>
	<path class="st1" d="M-313.6,56c0.5-0.2,0.9-0.4,1.3-0.6c0.1-0.1,0.3-0.1,0.4-0.1c0.1,0.1,0.3,0.2,0.3,0.4c0,0.1-0.1,0.3-0.2,0.4
		c-0.3,0.2-0.7,0.4-1.1,0.5c0.4,0.2,0.7,0.3,1,0.5c0.2,0.1,0.3,0.2,0.3,0.4c0,0.3-0.3,0.5-0.6,0.4c-0.7-0.3-1.3-0.6-2-0.9
		c-0.2-0.1-0.3-0.3-0.3-0.6c0-0.7,0-1.4,0-2.1c0-0.3,0.2-0.5,0.4-0.5c0.2,0,0.4,0.2,0.4,0.5C-313.6,54.9-313.6,55.4-313.6,56z"/>
	<path class="st1" d="M-291.1,56c0-0.5,0-1,0-1.5c0-0.3,0.2-0.5,0.4-0.5c0.3,0,0.4,0.2,0.4,0.5c0,0.7,0,1.3,0,2
		c0,0.3-0.1,0.5-0.4,0.7c-0.6,0.3-1.1,0.5-1.7,0.8c-0.3,0.1-0.5,0.1-0.6-0.2c-0.1-0.2,0-0.4,0.2-0.6c0.3-0.2,0.7-0.3,1.1-0.5
		c-0.2-0.1-0.4-0.2-0.6-0.3c-0.2-0.1-0.4-0.2-0.5-0.3c-0.2-0.1-0.3-0.3-0.2-0.6c0.1-0.2,0.3-0.3,0.6-0.2c0.3,0.1,0.7,0.3,1,0.5
		C-291.3,55.9-291.2,55.9-291.1,56z"/>
	<path class="st1" d="M-302.8,39.7c-0.4,0.2-0.7,0.3-1.1,0.5c-0.1,0-0.2,0.1-0.3,0.1c-0.2,0.1-0.4,0-0.5-0.2c-0.1-0.2,0-0.5,0.2-0.6
		c0.7-0.3,1.3-0.7,2-1c0.1,0,0.3,0,0.4,0c0.6,0.3,1.2,0.6,1.8,0.9c0.3,0.1,0.4,0.4,0.3,0.6c-0.1,0.2-0.4,0.3-0.6,0.2
		c-0.4-0.2-0.8-0.4-1.3-0.6c0,0.5,0,0.9,0,1.3c0,0.1,0,0.2,0,0.3c-0.1,0.2-0.2,0.4-0.5,0.3c-0.2,0-0.4-0.2-0.4-0.4
		c0-0.4,0-0.8,0-1.2C-302.8,40-302.8,39.9-302.8,39.7z"/>
	<path class="st1" d="M-291.1,45.3c-0.5,0.2-0.9,0.4-1.3,0.6c-0.3,0.1-0.5,0.1-0.7-0.2c-0.1-0.2,0-0.5,0.3-0.6
		c0.3-0.2,0.7-0.3,1-0.5c-0.4-0.2-0.7-0.3-1-0.5c-0.3-0.1-0.4-0.4-0.3-0.6c0.1-0.2,0.4-0.3,0.7-0.2c0.6,0.3,1.2,0.6,1.8,0.9
		c0.2,0.1,0.3,0.2,0.3,0.4c0,0.7,0,1.4,0,2c0,0.3-0.2,0.5-0.4,0.5c-0.2,0-0.4-0.2-0.4-0.5C-291.1,46.2-291.1,45.8-291.1,45.3z"/>
	<path class="st1" d="M-313,44.6c0.4,0.2,0.7,0.3,1,0.5c0.3,0.1,0.4,0.4,0.3,0.6c-0.1,0.2-0.4,0.3-0.7,0.2c-0.4-0.2-0.8-0.4-1.3-0.6
		c0,0.5,0,1,0,1.5c0,0.3-0.2,0.5-0.5,0.4c-0.2-0.1-0.3-0.2-0.4-0.4c0-0.7,0-1.4,0-2.1c0-0.2,0.1-0.4,0.3-0.4
		c0.6-0.3,1.2-0.6,1.8-0.9c0.3-0.2,0.6-0.1,0.7,0.2c0.1,0.2,0,0.5-0.3,0.6C-312.3,44.3-312.6,44.4-313,44.6z"/>
	<path class="st1" d="M-297.8,40.8c0,0,0.1,0,0.2,0.1c0.8,0.4,1.7,0.8,2.5,1.2c0.2,0.1,0.3,0.3,0.3,0.5c0,0.1-0.2,0.3-0.3,0.3
		c-0.1,0-0.2,0-0.3-0.1c-0.8-0.4-1.6-0.8-2.5-1.2c-0.2-0.1-0.3-0.3-0.3-0.5C-298.2,40.9-298,40.8-297.8,40.8z"/>
	<path class="st1" d="M-294.8,58.9c-0.1,0.1-0.1,0.2-0.3,0.3c-0.8,0.4-1.7,0.8-2.5,1.2c-0.2,0.1-0.5,0-0.6-0.2
		c-0.1-0.2,0-0.4,0.2-0.6c0.9-0.4,1.7-0.8,2.6-1.2C-295.1,58.3-294.8,58.5-294.8,58.9z"/>
	<path class="st1" d="M-309.5,42.9c-0.1-0.1-0.3-0.2-0.3-0.3c-0.1-0.2,0-0.4,0.2-0.5c0.1-0.1,0.3-0.1,0.4-0.2c0.7-0.4,1.5-0.7,2.2-1
		c0.3-0.1,0.5,0,0.6,0.2c0.1,0.2,0,0.4-0.2,0.6c0,0,0,0,0,0c-0.8,0.4-1.7,0.8-2.5,1.2C-309.3,42.8-309.4,42.9-309.5,42.9z"/>
	<path class="st1" d="M-309.5,58.4c0.2,0.1,0.2,0.1,0.3,0.1c0.8,0.4,1.6,0.8,2.5,1.2c0.3,0.1,0.4,0.4,0.3,0.6
		c-0.1,0.2-0.3,0.3-0.6,0.2c-0.9-0.4-1.7-0.8-2.6-1.2c-0.2-0.1-0.3-0.3-0.2-0.5C-309.8,58.6-309.6,58.5-309.5,58.4z"/>
	<path class="st1" d="M-313.6,50.6c0,0.4,0,0.8,0,1.2c0,0.3-0.2,0.5-0.4,0.5c-0.3,0-0.4-0.2-0.4-0.5c0-0.8,0-1.6,0-2.4
		c0-0.3,0.2-0.5,0.4-0.5c0.3,0,0.4,0.2,0.4,0.5C-313.6,49.8-313.6,50.2-313.6,50.6z"/>
	<path class="st1" d="M-291.1,50.6c0-0.4,0-0.8,0-1.2c0-0.3,0.2-0.5,0.4-0.5c0.3,0,0.4,0.2,0.4,0.5c0,0.8,0,1.6,0,2.4
		c0,0.3-0.2,0.5-0.4,0.5c-0.3,0-0.4-0.2-0.4-0.5C-291.1,51.4-291.1,51-291.1,50.6z"/>
</g>
<g>
	<circle class="st0" cx="-214.9" cy="50.1" r="27.4"/>
	<g>
		<path class="st1" d="M-217.2,35.9c0.3,0,0.7,0,1,0c0.1,0,0.1,0,0.2,0c0.6,0.1,1.1,0.3,1.7,0.6c1.4,0.9,2.2,2.2,2.2,3.9
			c0,6.5,0,13,0,19.5c0,0.8,0.5,1.5,1.3,1.5c0.7,0,1.4,0,2.1,0c0.6,0,1.1-0.5,1.2-0.9c-0.1,0-0.1,0-0.2,0c-0.5,0-0.6-0.2-0.6-0.6
			c0-0.1,0-0.2,0-0.4c0-0.6,0-1.2,0-1.9c-0.3,0-0.6,0-0.8,0c-0.4,0-0.6-0.2-0.6-0.6c0-0.6,0-1.2,0-1.8c0-0.1-0.1-0.3-0.2-0.4
			c-0.3-0.3-0.6-0.7-1-1c-0.2-0.2-0.3-0.4-0.3-0.6c0-2.3,0-4.7,0-7c0-1,0-2.1,0-3.1c0-0.5,0.2-0.6,0.6-0.6c0.1,0,0.2,0,0.3,0
			c0-0.1,0-0.2,0-0.4c0-1.9,0-3.8,0-5.6c0-0.3,0.1-0.5,0.3-0.6c2.6,0,5.2,0,7.9,0c0.3,0.2,0.3,0.4,0.3,0.7c0,1.9,0,3.7,0,5.6
			c0,0.1,0,0.2,0,0.3c0.1,0,0.2,0,0.3,0c0.4,0,0.6,0.2,0.6,0.6c0,3.4,0,6.8,0,10.1c0,0.2-0.1,0.4-0.2,0.6c-0.3,0.4-0.7,0.7-1,1.1
			c-0.1,0.1-0.1,0.2-0.1,0.4c0,0.6,0,1.2,0,1.7c0,0.5-0.1,0.7-0.7,0.7c-0.2,0-0.5,0-0.7,0c0,0.1,0,0.2,0,0.2c0,0.7,0,1.3,0,2
			c0,0.4-0.2,0.6-0.6,0.6c-0.1,0-0.3,0-0.4,0c0,0.1,0,0.2-0.1,0.3c-0.3,1.6-1.6,3-3.2,3.4c-1.1,0.2-2.2,0.1-3.3,0.1
			c-0.3,0-0.5-0.1-0.8-0.2c-1.8-0.6-3-2.2-3-4.1c0-6.4,0-12.8,0-19.3c0-0.1,0-0.2,0-0.3c-0.1-0.7-0.4-1.2-1-1.5
			c-0.6-0.3-1.2-0.2-1.7,0.3c-0.4,0.4-0.6,0.8-0.6,1.4c0,6.5,0,13,0,19.5c0,3.1-3.1,5.2-5.9,3.9c-1.7-0.7-2.6-2.1-2.6-4
			c0-2.2,0-4.5,0-6.7c0-0.1,0-0.2,0-0.3c-0.1,0-0.1,0-0.2,0c-0.6,0-0.7-0.1-0.7-0.7c0-0.4,0-0.7,0-1.1c-0.1,0-0.1,0-0.2,0
			c-0.6,0-0.7-0.1-0.7-0.8c0-1.9,0-3.8,0-5.7c0-0.8,0-1.6,0-2.4c0-0.2,0-0.5,0.3-0.5c0.2-0.1,0.2-0.2,0.2-0.3c0-1.6,0-3.2,0-4.8
			c0-0.3,0.1-0.5,0.3-0.6c1.7,0,3.3,0,5,0c0.3,0.1,0.4,0.3,0.3,0.6c0,0.2,0,0.5,0,0.7c0,1.4,0,2.7,0,4.1c0,0.1,0.1,0.2,0.1,0.3
			c0.3,0.1,0.4,0.3,0.4,0.6c0,2.7,0,5.5,0,8.2c0,0,0,0.1,0,0.1c0,0.3-0.2,0.5-0.5,0.5c-0.1,0-0.3,0-0.4,0c0,0.5,0,0.9,0,1.3
			c0,0.4-0.2,0.5-0.5,0.6c-0.1,0-0.3,0-0.4,0c0,0.1,0,0.3,0,0.4c0,2.2,0,4.3,0,6.5c0,0.1,0,0.2,0,0.3c0,0.7,0.6,1.2,1.3,1.3
			c0.6,0.1,1.3-0.4,1.5-1c0.1-0.2,0.1-0.4,0.1-0.6c0-6.4,0-12.9,0-19.3c0-2.1,1.3-3.8,3.2-4.4C-217.8,36-217.5,35.9-217.2,35.9z
			 M-203.3,56.7c0-0.6,0-1.2,0-1.7c0-0.2,0.1-0.4,0.2-0.6c0.3-0.4,0.7-0.7,1-1c0.1-0.1,0.2-0.3,0.2-0.5c0-3,0-6.1,0-9.1
			c0-0.1,0-0.2,0-0.3c-2.9,0-5.7,0-8.5,0c0,0.1,0,0.2,0,0.4c0,2.7,0,5.4,0,8.1c0,0.4-0.1,0.9,0,1.3c0.1,0.4,0.5,0.6,0.8,0.9
			c0.4,0.3,0.6,0.8,0.5,1.3c0,0.4,0,0.9,0,1.3C-207,56.7-205.2,56.7-203.3,56.7z M-226,52.9c0,0.1,0,0.2,0,0.4c0,1.8,0,3.6,0,5.4
			c0,0.5,0,1.1,0,1.6c0.1,1.6,1.5,3,3.2,3c1.9,0.1,3.4-1.4,3.4-3.4c0-4.7,0-9.5,0-14.2c0-1.8,0-3.7,0-5.5c0-1.6,1.6-2.8,3.2-2.4
			c1.2,0.3,2,1.3,2,2.7c0,4.5,0,9,0,13.4c0,2,0,4.1,0,6.1c0,1.6,1.2,3,2.8,3.2c0.9,0.1,1.8,0.1,2.7,0c0.6,0,1.1-0.2,1.6-0.6
			c0.8-0.5,1.2-1.3,1.4-2.2c-0.3,0-0.5,0-0.7,0c-0.2,0-0.2,0.1-0.3,0.2c-0.3,0.9-0.9,1.5-1.9,1.6c-0.8,0.1-1.7,0-2.5,0
			c-0.1,0-0.2,0-0.3-0.1c-1.1-0.3-1.8-1.2-1.8-2.4c0-6.4,0-12.8,0-19.2c0-0.1,0-0.3,0-0.4c-0.1-2.2-2.1-3.8-4.3-3.4
			c-1.7,0.4-2.8,1.8-2.8,3.5c0,6.4,0,12.9,0,19.3c0,0.1,0,0.3,0,0.4c-0.1,1.6-1.6,2.6-3.1,2.2c-1-0.3-1.7-1.2-1.7-2.4
			c0-2.2,0-4.4,0-6.6c0-0.1,0-0.2,0-0.4C-225.4,52.9-225.7,52.9-226,52.9z M-223.2,50.1c0-2.5,0-5,0-7.5c-1.6,0-3.1,0-4.7,0
			c0,2.5,0,5,0,7.5C-226.3,50.1-224.7,50.1-223.2,50.1z M-202.8,36.8c-2.2,0-4.4,0-6.6,0c0,1.9,0,3.8,0,5.6c2.2,0,4.4,0,6.6,0
			C-202.8,40.6-202.8,38.7-202.8,36.8z M-223.6,36.8c-0.6,0-1.2,0-1.9,0c0,0.3,0,0.6,0,0.9c0.2,0,0.3,0,0.4,0c0.3,0,0.5,0.2,0.5,0.5
			c0,0.6,0,1.2,0,1.9c0,0.3-0.2,0.5-0.5,0.5c-0.2,0-0.3,0-0.5,0c0,0.3,0,0.6,0,0.9c0.6,0,1.2,0,1.9,0
			C-223.6,40-223.6,38.4-223.6,36.8z M-226.5,41.5c0-0.5,0-0.9,0-1.3c0-0.3,0.2-0.5,0.5-0.5c0.1,0,0.3,0,0.4,0c0-0.2,0-0.3,0-0.5
			c0-0.2,0-0.3,0-0.5c-0.1,0-0.1,0-0.2,0c-0.6,0.1-0.8-0.2-0.8-0.8c0-0.4,0-0.7,0-1.1c-0.3,0-0.6,0-0.9,0c0,1.6,0,3.1,0,4.7
			C-227.1,41.5-226.8,41.5-226.5,41.5z M-207.5,59.5c0.9,0,1.9,0,2.8,0c0-0.6,0-1.2,0-1.9c-0.9,0-1.9,0-2.8,0
			C-207.5,58.3-207.5,58.9-207.5,59.5z M-226.9,51.9c1,0,1.9,0,2.8,0c0-0.3,0-0.6,0-0.9c-0.9,0-1.7,0-2.5,0c-0.1,0-0.2,0-0.3,0
			C-226.9,51.3-226.9,51.6-226.9,51.9z"/>
		<path class="st1" d="M-209.4,46.3c0.3,0,0.6,0,0.9,0c0,0.6,0.1,1.2,0,1.7c-0.1,0.6,0.1,0.9,0.7,1.1c0.4,0.1,0.7,0.4,1.1,0.5
			c0,0,0,0,0.1,0c0-1.6,0-3.2,0-4.8c0.3,0,0.6,0,0.9,0c0,1.2,0,2.3,0,3.5c0.5-0.2,0.9-0.4,1.3-0.5c0.1,0,0.1-0.1,0.1-0.2
			c0-0.4,0-0.9,0-1.3c0.3,0,0.6,0,0.9,0c0,0.6,0,1.3,0,1.9c0,0.2-0.2,0.3-0.4,0.4c-0.6,0.2-1.2,0.5-1.7,0.7
			c-0.2,0.1-0.2,0.1-0.2,0.3c0,0.6,0,1.1,0,1.7c0,0.1,0.1,0.2,0.2,0.3c0.6,0.4,0.9,1,0.7,1.7c-0.2,0.6-0.8,1.1-1.5,1
			c-0.7-0.1-1.2-0.6-1.3-1.3c-0.1-0.5,0.2-1.1,0.7-1.4c0.3-0.2,0.1-0.4,0.2-0.6c0-0.2-0.1-0.3-0.2-0.3c-0.7-0.4-1.5-0.7-2.2-1.1
			c-0.3-0.1-0.4-0.3-0.4-0.6C-209.4,48.1-209.4,47.2-209.4,46.3z M-206.1,52.4c-0.3,0-0.5,0.2-0.5,0.5c0,0.2,0.2,0.5,0.5,0.5
			c0.3,0,0.5-0.2,0.5-0.5C-205.7,52.6-205.9,52.4-206.1,52.4z"/>
		<path class="st2" d="M-203.8,39.2c0,0.3,0,0.6,0,0.9c-0.6,0-1.2,0-1.9,0c0-0.3,0-0.6,0-0.9C-205,39.2-204.4,39.2-203.8,39.2z"/>
		<path class="st2" d="M-208.5,40.1c0-0.3,0-0.6,0-0.9c0.6,0,1.2,0,1.9,0c0,0.3,0,0.6,0,0.9C-207.2,40.1-207.8,40.1-208.5,40.1z"/>
	</g>
</g>
<g>
	<g>
		<circle class="st0" cx="-147.4" cy="50.2" r="27.4"/>
	</g>
	<g>
		<path class="st1" d="M-145.8,57.6c0.3-0.1,0.5-0.2,0.6-0.3c1.4-0.8,2.9-1.7,4.3-2.5c0.6-0.4,1.3-0.7,2-0.8c0.9-0.1,1.7,0.4,2,1.2
			c0.3,0.9,0,1.8-0.8,2.3c-2.6,1.6-5.3,3.2-7.9,4.9c-1,0.6-2,0.8-3.1,0.5c-1.7-0.5-3.4-0.9-5-1.4c-0.5-0.1-0.9,0-1.2,0.3
			c0.1,0.2,0.2,0.4,0.3,0.6c0.3,0.6,0.1,1.2-0.4,1.5c-0.4,0.3-0.9,0.5-1.3,0.7c-0.6,0.3-1.2,0.1-1.5-0.4c-1.2-2.2-2.5-4.4-3.7-6.6
			c-0.3-0.6-0.1-1.2,0.4-1.5c0.4-0.2,0.8-0.5,1.2-0.7c0.6-0.3,1.2-0.2,1.6,0.5c0.1,0.1,0.2,0.3,0.3,0.4c0.4-0.2,0.7-0.4,1.1-0.6
			c0.8-0.5,1.7-1,2.5-1.4c0.8-0.5,1.7-0.8,2.7-0.5c0.9,0.2,1.7,0.6,2.5,0.9c0.7,0.2,1.4,0.4,2.1,0.6c1.1,0.3,1.7,1.2,1.4,2.3
			C-145.8,57.4-145.8,57.5-145.8,57.6z M-155.3,60.8c0.2-0.1,0.5-0.2,0.7-0.4c0.2-0.2,0.5-0.2,0.7-0.1c1.8,0.5,3.6,1,5.4,1.5
			c1,0.3,1.8,0.1,2.7-0.4c2.6-1.6,5.1-3.2,7.7-4.8c0.4-0.3,0.6-0.7,0.4-1.2c-0.1-0.4-0.5-0.6-1-0.5c-0.6,0.1-1.1,0.3-1.6,0.6
			c-1.5,0.9-2.9,1.7-4.4,2.6c-0.7,0.4-1.4,0.6-2.2,0.5c-0.6-0.1-1.1-0.2-1.7-0.3c-0.7-0.2-1.4-0.4-2.1-0.5c-0.3-0.1-0.4-0.3-0.4-0.6
			c0.1-0.2,0.3-0.4,0.6-0.3c0.1,0,0.2,0.1,0.3,0.1c0.9,0.2,1.8,0.5,2.7,0.7c0.5,0.1,0.9-0.2,1-0.6c0.1-0.4-0.2-0.8-0.6-1
			c-0.2-0.1-0.4-0.1-0.6-0.1c-1.3-0.4-2.6-0.8-3.8-1.2c-0.5-0.2-1-0.2-1.5,0c-0.3,0.1-0.6,0.3-0.9,0.4c-1.1,0.6-2.1,1.2-3.2,1.9
			c-0.1,0-0.1,0.1-0.2,0.1C-156.8,58.3-156.1,59.6-155.3,60.8z M-155.3,62.8c0-0.1-0.1-0.1-0.1-0.2c-1.2-2.1-2.4-4.3-3.6-6.4
			c-0.1-0.2-0.2-0.2-0.4-0.1c-0.3,0.2-0.7,0.4-1,0.6c-0.3,0.2-0.3,0.2-0.1,0.5c0.5,0.8,0.9,1.7,1.4,2.5c0.7,1.3,1.4,2.5,2.1,3.8
			c0.1,0.1,0.2,0.3,0.4,0.2c0.4-0.2,0.8-0.4,1.2-0.7C-155.4,63-155.3,62.9-155.3,62.8z"/>
		<path class="st1" d="M-137.5,49.4c0.1-0.8,0.1-1.6-0.1-2.4c-0.9-4.2-3.3-6.8-7.4-8c-0.4-0.1-0.9-0.2-1.3-0.2
			c-0.5-0.1-0.6-0.2-0.6-0.7c0-0.6,0-1.2,0-1.9c0-0.5,0.2-0.6,0.7-0.6c5.8,0.4,10.7,4.8,11.7,10.5c0.2,0.9,0.2,1.9,0.2,2.8
			c0,0.1,0,0.2,0,0.4c0.2,0,0.3,0,0.4,0c0.3,0,0.5,0.1,0.7,0.4c0.1,0.3,0.1,0.5-0.1,0.8c-0.6,0.8-1.3,1.6-1.9,2.4
			c-0.3,0.4-0.8,0.4-1.2,0c-0.6-0.8-1.3-1.6-1.9-2.4c-0.2-0.2-0.2-0.5-0.1-0.8c0.1-0.3,0.4-0.4,0.6-0.4
			C-137.7,49.4-137.6,49.4-137.5,49.4z M-134.4,50.4c-0.2,0-0.2,0-0.3,0c-0.6,0-0.7-0.1-0.7-0.7c0.1-1.1,0.1-2.2-0.2-3.3
			c-1-4.6-3.8-7.7-8.3-9.2c-0.7-0.2-1.5-0.3-2.3-0.5c0,0.4,0,0.7,0,1.1c0,0.2,0.1,0.3,0.3,0.3c0.4,0.1,0.7,0.1,1.1,0.2
			c5.1,1.3,8.5,6.1,8.1,11.4c-0.1,0.7-0.1,0.7-0.7,0.9c0.5,0.6,1,1.2,1.5,1.9C-135.4,51.6-134.9,51-134.4,50.4z"/>
		<path class="st1" d="M-148.7,47c-1.9-1.5-1.7-3.8-0.4-5.1c1.3-1.3,3.5-1.4,4.8,0c1.3,1.3,1.5,3.6-0.4,5.1c0.1,0,0.2,0.1,0.3,0.1
			c2.2,1,3.5,2.7,3.9,5.1c0,0.3-0.1,0.5-0.5,0.6c-0.1,0-0.2,0-0.2,0c-3.7,0-7.3,0-11,0c-0.2,0-0.3,0-0.5-0.1
			c-0.2-0.1-0.2-0.3-0.2-0.5c0.2-1.5,0.9-2.8,2-3.9C-150.2,47.7-149.5,47.3-148.7,47z M-141.6,51.8c-0.3-1.9-2.2-4.2-5.2-4.2
			c-3,0-4.8,2.3-5.1,4.2C-148.5,51.8-145,51.8-141.6,51.8z M-146.7,46.7c1.4,0,2.5-1.1,2.5-2.4c0-1.4-1.1-2.4-2.4-2.4
			c-1.3,0-2.4,1.1-2.4,2.4C-149.2,45.6-148.1,46.7-146.7,46.7z"/>
		<path class="st1" d="M-158.7,48.3c-0.3,0-0.7,0-1,0c-0.4,0-0.6-0.2-0.6-0.6c0.1-1.6,0.5-3.2,1.3-4.7c0.2-0.4,0.4-0.5,0.8-0.3
			c0.6,0.3,1.2,0.7,1.7,1c0.3,0.2,0.4,0.4,0.2,0.7c-0.5,1.1-0.8,2.2-0.9,3.3c0,0.3-0.2,0.5-0.5,0.5C-158,48.3-158.4,48.3-158.7,48.3
			z M-157.3,44.3c-0.3-0.2-0.6-0.4-1-0.6c-0.5,1.2-0.8,2.3-1,3.6c0.4,0,0.7,0,1.1,0c0.1,0,0.2-0.1,0.2-0.2
			C-157.8,46.3-157.5,45.3-157.3,44.3z"/>
		<path class="st1" d="M-158.7,49c0.3,0,0.7,0,1,0c0.3,0,0.5,0.2,0.5,0.5c0.1,1.2,0.4,2.3,0.9,3.4c0.1,0.3,0,0.5-0.2,0.6
			c-0.6,0.4-1.2,0.7-1.9,1.1c-0.3,0.2-0.5,0.1-0.7-0.2c-0.7-1.4-1.1-2.8-1.2-4.3c0-0.2,0-0.3,0-0.5c0-0.4,0.2-0.6,0.5-0.6
			C-159.4,49-159,49-158.7,49z M-158.3,53.5c0.4-0.2,0.7-0.4,1-0.6c-0.3-1-0.5-2-0.8-3c-0.4,0-0.8,0-1.2,0
			C-159.1,51.2-158.8,52.3-158.3,53.5z"/>
		<path class="st1" d="M-147.7,37.3c0,0.3,0,0.7,0,1c0,0.3-0.1,0.5-0.5,0.5c-1.2,0.1-2.3,0.4-3.4,0.9c-0.3,0.1-0.5,0.1-0.6-0.2
			c-0.4-0.6-0.7-1.2-1.1-1.8c-0.2-0.3-0.1-0.5,0.2-0.7c1.4-0.7,2.8-1.1,4.3-1.2c0.2,0,0.3,0,0.5,0c0.4,0,0.6,0.2,0.6,0.5
			C-147.6,36.6-147.7,36.9-147.7,37.3z M-152.2,37.6c0.2,0.4,0.4,0.7,0.6,1c1-0.2,2-0.5,2.9-0.7c0.1,0,0.1-0.1,0.1-0.1
			c0-0.4,0-0.7,0-1.1C-149.9,36.8-151,37.1-152.2,37.6z"/>
		<path class="st1" d="M-155.8,43.3c-0.2-0.1-0.3-0.1-0.4-0.2c-0.6-0.3-1.2-0.7-1.7-1c-0.3-0.2-0.4-0.5-0.2-0.8
			c0.9-1.4,2.1-2.5,3.5-3.5c0.3-0.2,0.6-0.2,0.8,0.2c0.3,0.6,0.7,1.2,1,1.7c0.2,0.3,0.1,0.5-0.2,0.8c-0.9,0.7-1.7,1.5-2.4,2.4
			C-155.5,43.1-155.6,43.2-155.8,43.3z M-157,41.5c0.4,0.2,0.7,0.4,1,0.6c0.7-0.7,1.5-1.5,2.2-2.2c-0.2-0.3-0.4-0.7-0.6-1
			C-155.4,39.7-156.3,40.5-157,41.5z"/>
		<path class="st1" d="M-159,57.4c0,0.2-0.2,0.4-0.5,0.4c-0.3,0-0.5-0.2-0.4-0.5c0-0.2,0.2-0.4,0.5-0.4
			C-159.2,56.9-159,57.1-159,57.4z"/>
	</g>
</g>
<g>
	<g>
		<circle class="st0" cx="49.7" cy="50.1" r="48.5"/>
	</g>
	<g>
		<path class="st1" d="M35.4,67.1c0.4,0,0.8,0,1.2,0c0.9,0,1.7,0.2,2.5,0.7c2.7,1.6,5.4,3.1,8.1,4.7c1,0.6,2,0.7,3.1,0.3
			c5.7-2.1,11.4-4.2,17.1-6.3c0.2-0.1,0.3-0.1,0.5-0.2c0.4-0.1,0.6,0,0.7,0.3c0.1,0.4-0.1,0.6-0.4,0.7c-0.6,0.2-1.1,0.4-1.7,0.6
			C61.3,70,56,71.9,50.7,73.9c-1.4,0.5-2.7,0.4-3.9-0.4c-2.6-1.6-5.3-3.1-8-4.6c-1.1-0.6-2.2-0.7-3.4-0.6c0,0.3,0,0.7,0,1
			c0,1.6-1.2,2.8-2.8,2.8c-1.4,0-2.8,0-4.2,0c-1.6,0-2.8-1.2-2.8-2.8c0-0.4,0-0.7,0-1.1c0-0.4,0.2-0.6,0.6-0.6
			c0.3,0,0.5,0.2,0.5,0.6c0,0.3,0,0.7,0,1c0,1.1,0.7,1.7,1.7,1.7c1.4,0,2.8,0,4.2,0c1,0,1.7-0.7,1.7-1.7c0-5.3,0-10.6,0-15.9
			c0-1-0.7-1.7-1.7-1.7c-1.3,0-2.7,0-4,0c-1.2,0-1.9,0.6-1.9,1.9c0,3.9,0,7.8,0,11.7c0,0.2,0.1,0.4,0,0.5c-0.1,0.2-0.4,0.5-0.5,0.5
			c-0.2,0-0.4-0.3-0.5-0.5c-0.1-0.1,0-0.3,0-0.4c0-4,0-7.9,0-11.9c0-1.9,1.1-3,3-3c1.3,0,2.6,0,3.8,0c1.9,0,2.9,1,3,2.9
			c0,0.1,0,0.2,0,0.3c0.8,0,1.5,0,2.3,0c1.2,0,2.3,0.3,3.3,1.1c2.2,1.6,4.5,3.2,6.8,4.9c0.7,0.5,1.6,0.8,2.5,0.8c2.1,0,4.3,0,6.4,0
			c2,0,3,1.1,3,3.1c0,0,0,0.1,0,0.2c1-0.3,1.9-0.6,2.8-0.9c2.5-0.8,4.9-1.7,7.4-2.4c1.5-0.5,3,0.2,3.7,1.6c0.7,1.4,0.3,3.1-1,3.9
			c-0.7,0.4-1.5,0.7-2.2,1c-0.3,0.1-0.6-0.1-0.6-0.4c0-0.2,0.1-0.6,0.3-0.7c0.4-0.2,0.9-0.4,1.4-0.5c1.1-0.4,1.6-1.5,1.2-2.5
			c-0.4-1-1.4-1.6-2.6-1.2c-3.7,1.2-7.5,2.4-11.1,3.8c-1.2,0.4-2.3,0.5-3.4,0.5c-2.4,0-4.8,0-7.2,0c-0.1,0-0.3,0.1-0.4,0
			c-0.2-0.2-0.4-0.4-0.5-0.6c0-0.2,0.3-0.4,0.5-0.5c0.2-0.1,0.4,0,0.7,0c2.7,0,5.4,0,8.1,0c0.4,0,0.9-0.2,1.3-0.3
			c0.4-0.2,0.6-1.2,0.4-1.7c-0.3-0.7-0.8-1-1.6-1c-2.2,0-4.4,0-6.5,0c-1.2,0-2.2-0.3-3.2-1c-2.2-1.6-4.5-3.2-6.7-4.9
			c-0.8-0.6-1.6-0.9-2.6-0.8c-0.8,0-1.5,0-2.3,0C35.4,58.9,35.4,63,35.4,67.1z"/>
		<path class="st1" d="M58.2,51.8c0.1-2.2,0.8-4,2.2-5.6c0.1-0.1,0.2-0.3,0.3-0.3c0.2,0,0.5-0.1,0.7,0c0.1,0.1,0.2,0.4,0.1,0.7
			c0,0.1-0.2,0.3-0.3,0.4c-1.2,1.4-1.9,3.1-1.9,4.9c1.2,0.7,1.7,1.4,1.5,2.5c-0.2,1-0.8,1.5-2.3,1.7c0,0.5,0.1,0.9,0,1.4
			c-0.2,1-1,1.6-2.1,1.7c-1,0-1.9,0-2.9,0c-1.6,0-2.5-1.3-2.1-2.8c0-0.1,0-0.1,0-0.2c-0.2,0-0.4,0-0.6-0.1c-1-0.1-1.7-0.8-1.8-1.8
			c-0.1-0.8,0.3-1.7,1.2-2.1c0.3-0.1,0.3-0.3,0.3-0.6c-0.2-2-1-3.7-2.4-5.1c-5.1-5.1-3.2-13.6,3.6-16.1c5.7-2.1,12,1.8,12.8,7.8
			c0.3,2.4-0.2,4.5-1.4,6.6c-0.3,0.5-0.9,0.5-1,0.1c-0.1-0.2,0-0.5,0.1-0.8c0.8-1.3,1.2-2.7,1.3-4.2c0.2-4.2-2.9-8.1-7-8.8
			c-5.4-0.9-10.3,3.3-10.1,8.7c0.1,2.2,0.9,4.1,2.5,5.7c1.5,1.5,2.5,3.3,2.8,5.4c0,0.3,0.1,0.6,0.1,0.9c0.9,0,1.7,0,2.7,0
			c0-1.2,0-2.4,0-3.6c0-1.2,0-2.4,0-3.6c-0.3-0.1-0.7-0.1-1-0.2c-2.4-0.5-4.2-1.9-5.6-3.8c-0.1-0.2-0.1-0.6,0-0.8
			c1.9-2.5,4.3-4.1,7.5-4c2.6,0.1,4.7,1.3,6.3,3.2c1.1,1.2,1.1,1.2,0,2.4c-1.6,1.8-3.6,2.9-6,3.1c0,2.4,0,4.8,0,7.2
			C56.5,51.8,57.3,51.8,58.2,51.8z M61.1,40.2c-3.2-4.3-9.1-4.3-12.2,0C52.2,44.5,57.8,44.6,61.1,40.2z M55.1,53c-1.3,0-2.5,0-3.8,0
			c-0.6,0-1,0.4-1,0.9c0,0.5,0.4,0.9,1,0.9c2.5,0,5,0,7.5,0c0.4,0,0.7-0.2,0.9-0.5c0.3-0.6-0.1-1.3-0.9-1.4C57.5,53,56.3,53,55.1,53
			z M55,57.9c0.5,0,1,0,1.5,0c0.6,0,1-0.4,1-0.9c0-0.5-0.4-0.9-1-0.9c-1,0-2,0-3,0c-0.6,0-1,0.4-1,0.9c0,0.5,0.4,0.9,1,0.9
			C54,58,54.5,57.9,55,57.9z"/>
		<path class="st1" d="M55.6,27.3c0,0.3,0.1,0.5,0,0.8c-0.1,0.2-0.3,0.4-0.5,0.5c-0.3,0.1-0.5-0.1-0.6-0.5c0-0.6-0.1-1.1,0-1.7
			c0-0.2,0.3-0.5,0.5-0.5c0.3-0.1,0.5,0.2,0.6,0.5C55.6,26.8,55.6,27.1,55.6,27.3z"/>
		<path class="st1" d="M64,29.5c-0.1,0.2-0.1,0.3-0.2,0.5c-0.3,0.4-0.6,0.8-0.9,1.1c-0.2,0.3-0.5,0.3-0.8,0.1
			c-0.3-0.2-0.3-0.5,0-0.8c0.3-0.4,0.6-0.8,1-1.2c0.1-0.1,0.4-0.2,0.6-0.2C63.7,29.1,63.8,29.3,64,29.5z"/>
		<path class="st1" d="M45.7,33.7c0,0.5-0.4,0.8-0.8,0.6c-0.5-0.2-1-0.5-1.4-0.8c-0.3-0.2-0.3-0.5-0.1-0.7c0.1-0.2,0.5-0.3,0.7-0.2
			c0.5,0.2,1,0.5,1.5,0.8C45.6,33.4,45.6,33.6,45.7,33.7z"/>
		<path class="st1" d="M66.1,40.9c0.7,0.1,1.3,0.2,1.8,0.4c0.2,0.1,0.4,0.4,0.3,0.6c0,0.2-0.3,0.5-0.5,0.4c-0.6,0-1.1-0.1-1.7-0.3
			c-0.2-0.1-0.4-0.4-0.4-0.6C65.7,41.2,66,41,66.1,40.9z"/>
		<path class="st1" d="M48.2,30.8c-0.1,0.1-0.2,0.3-0.3,0.4c-0.2,0.1-0.5,0-0.6-0.1c-0.4-0.4-0.8-0.8-1.1-1.3
			c-0.1-0.2,0-0.5,0.1-0.7c0.1-0.1,0.5-0.2,0.6-0.1c0.5,0.4,0.8,0.9,1.2,1.4C48.2,30.6,48.2,30.7,48.2,30.8z"/>
		<path class="st1" d="M45.7,45.3c-0.1,0.1-0.2,0.3-0.3,0.4c-0.4,0.3-0.8,0.5-1.2,0.7c-0.3,0.2-0.6,0.1-0.8-0.2
			c-0.2-0.3,0-0.6,0.3-0.8c0.4-0.2,0.8-0.5,1.3-0.7C45.2,44.5,45.7,44.8,45.7,45.3z"/>
		<path class="st1" d="M51.7,28.8c-0.2,0.2-0.3,0.4-0.5,0.5c-0.2,0-0.6-0.1-0.6-0.3c-0.2-0.5-0.4-1.1-0.6-1.6c0-0.2,0.2-0.5,0.3-0.6
			c0.1-0.1,0.5,0,0.6,0.2C51.3,27.5,51.5,28.1,51.7,28.8z"/>
		<path class="st1" d="M43.8,38.1c-0.7-0.1-1.2-0.2-1.7-0.3c-0.4-0.1-0.5-0.3-0.4-0.7c0.1-0.3,0.3-0.5,0.7-0.4
			c0.5,0.1,1,0.2,1.4,0.3c0.4,0.1,0.6,0.3,0.5,0.7C44.2,37.8,43.9,38,43.8,38.1z"/>
		<path class="st1" d="M66.2,38.1c-0.1-0.1-0.4-0.3-0.4-0.5c0-0.2,0.2-0.5,0.4-0.6c0.5-0.2,1-0.2,1.5-0.3c0.3,0,0.6,0.1,0.6,0.5
			c0,0.2-0.2,0.6-0.4,0.6C67.4,37.9,66.9,38,66.2,38.1z"/>
		<path class="st1" d="M44.3,41.6c-0.1,0.1-0.3,0.3-0.5,0.4c-0.5,0.1-1,0.2-1.5,0.3c-0.3,0-0.6-0.1-0.7-0.4
			c-0.1-0.4,0.1-0.6,0.5-0.7c0.5-0.1,1-0.2,1.5-0.3C44,40.9,44.3,41.1,44.3,41.6z"/>
		<path class="st1" d="M66.8,45.8c0,0.5-0.3,0.8-0.7,0.6c-0.5-0.2-1.1-0.6-1.6-0.9c-0.1-0.1-0.2-0.5-0.1-0.6
			c0.1-0.2,0.5-0.3,0.6-0.3c0.5,0.2,1,0.5,1.5,0.8C66.7,45.6,66.7,45.8,66.8,45.8z"/>
		<path class="st1" d="M59.1,29.3c-0.5,0-0.8-0.3-0.7-0.7c0.2-0.5,0.3-1,0.5-1.5c0.1-0.2,0.4-0.3,0.6-0.3c0.3,0,0.5,0.3,0.4,0.7
			c-0.2,0.5-0.4,1-0.6,1.5C59.3,29.2,59.1,29.2,59.1,29.3z"/>
		<path class="st1" d="M64.9,34.5c-0.2-0.2-0.5-0.3-0.5-0.5c-0.1-0.2,0-0.5,0.2-0.6c0.5-0.3,1-0.6,1.5-0.9c0.2-0.1,0.5,0,0.6,0.2
			c0.1,0.1,0.2,0.5,0.1,0.6C66.1,33.7,65.5,34,64.9,34.5z"/>
		<path class="st1" d="M55.6,38.1c-0.3,0.5-0.3,1,0.1,1.4c0.4,0.5,0.9,0.4,1.5,0.2c0.3,1-0.1,2-1,2.5c-0.9,0.5-2,0.4-2.8-0.3
			c-0.7-0.7-0.9-1.8-0.4-2.7C53.5,38.3,54.4,37.8,55.6,38.1z"/>
	</g>
</g>
</svg>
