<?xml version="1.0" encoding="utf-8"?>
<!-- Generator: Adobe Illustrator 23.1.0, SVG Export Plug-In . SVG Version: 6.00 Build 0)  -->
<svg version="1.1" id="Layer_1" xmlns="http://www.w3.org/2000/svg" xmlns:xlink="http://www.w3.org/1999/xlink" x="0px" y="0px"
	 width="56" height="56" viewBox="0 0 100 100" style="enable-background:new 0 0 100 100;" xml:space="preserve">
<style type="text/css">
	.st0{fill:#51658D;}
	.st1{fill:#FFFFFF;}
</style>
<circle class="st0" cx="50" cy="50" r="49"/>
<g>
	<path class="st1" d="M64.1,25c0.4,0.2,0.5,0.6,0.5,1.1c0.1,1.4,0.4,2.7,1,3.9c1.1,2.1,2.8,3.2,5.2,3.3c0.2,0,0.4,0,0.6,0
		c0.4,0.1,0.7,0.4,0.7,0.9c0,0.5-0.3,0.7-0.8,0.8c-0.6,0.1-1.2,0.1-1.8,0.2c-2.3,0.5-3.6,2.1-4.3,4.2c-0.3,0.9-0.4,2-0.6,3
		c-0.1,0.6-0.3,1-0.8,1c-0.5,0-0.8-0.4-0.9-1c-0.1-1.4-0.4-2.7-1-3.9c-1-2.1-2.7-3.2-5-3.4c-0.2,0-0.5,0-0.7-0.1
		c-0.5-0.1-0.8-0.4-0.8-0.8c0-0.4,0.3-0.8,0.8-0.9c0.4-0.1,0.8,0,1.2-0.1c2.5-0.4,4.1-1.8,4.9-4.2c0.3-1,0.5-2,0.6-3
		c0.1-0.5,0.2-0.9,0.6-1.1C63.7,25,63.9,25,64.1,25z M67.4,34.1c-1.7-0.9-2.9-2.3-3.6-4c-0.5,0.8-1,1.6-1.6,2.2
		c-0.6,0.7-1.4,1.2-2.1,1.8c1.6,0.9,2.8,2.3,3.6,4.1C64.9,36.2,64.9,36.2,67.4,34.1z"/>
	<path class="st1" d="M48,33.4c0,5.8,0,11.6,0,17.4c4.4,0,8.8,0,13.3,0c0-0.9,0-1.7,0-2.5c0-0.7,0-1.5,0-2.2c0-0.7,0.3-1,0.8-1
		c0.5,0,0.8,0.4,0.8,1c0,8.2,0,16.4,0,24.5c0,0.8-0.3,1.1-1.1,1.1c-9.1,0-18.2,0-27.3,0c-0.7,0-1.4,0-2,0c-0.9,0-1.1-0.3-1.1-1.1
		c0-11.6,0-23.1,0-34.7c0-1,0-2.1,0-3.1c0-0.7,0.3-1,1-1c7.1,0,14.2,0,21.3,0c0.6,0,1,0.3,1,0.8c0,0.5-0.4,0.8-1,0.8
		c-1.7,0-3.5,0-5.2,0C48.2,33.3,48.1,33.3,48,33.4z M46.2,70c0-5.8,0-11.6,0-17.4c-4.4,0-8.9,0-13.3,0c0,5.8,0,11.6,0,17.4
		C37.4,70,41.8,70,46.2,70z M33,50.8c4.4,0,8.9,0,13.3,0c0-5.8,0-11.6,0-17.4c-4.4,0-8.8,0-13.3,0C33,39.2,33,45,33,50.8z M48,52.5
		c0,5.8,0,11.6,0,17.4c4.4,0,8.8,0,13.3,0c0-5.8,0-11.6,0-17.4C56.8,52.5,52.4,52.5,48,52.5z"/>
	<path class="st1" d="M27.9,51.6c0-6.8,0-13.6,0-20.4c0-1.8,1.2-2.9,2.9-2.9c9.5,0,18.9,0,28.4,0c0.2,0,0.4,0,0.6,0
		c0.4,0.1,0.7,0.4,0.6,0.9c0,0.4-0.3,0.7-0.7,0.8c-0.2,0-0.4,0-0.5,0c-9.4,0-18.8,0-28.2,0c-1.1,0-1.3,0.2-1.3,1.3
		c0,13.6,0,27.2,0,40.8c0,1.1,0.2,1.3,1.3,1.3c10.8,0,21.6,0,32.5,0c1,0,1.2-0.2,1.2-1.2c0-8.6,0-17.2,0-25.8c0-0.2,0-0.5,0.1-0.7
		c0.1-0.4,0.4-0.6,0.8-0.6c0.4,0,0.7,0.3,0.7,0.7c0,0.2,0,0.4,0,0.5c0,8.6,0,17.2,0,25.9c0,1.9-1.3,2.9-2.9,2.9
		c-10.9,0-21.8,0-32.7,0c-1.4,0-2.4-0.7-2.7-2c-0.1-0.3-0.1-0.6-0.1-0.9C27.9,65.3,27.9,58.5,27.9,51.6z"/>
	<path class="st1" d="M60.4,43.3c0,0.4-0.3,0.8-0.8,0.8c-0.4,0-0.7,0.1-1.1,0.1c-1.3,0.3-2.2,1.1-2.6,2.4c-0.3,0.8-0.4,1.7-0.6,2.6
		c-0.1,0.4-0.3,0.7-0.7,0.7c-0.4,0.1-0.7-0.1-0.9-0.5c-0.1-0.2-0.1-0.4-0.1-0.7c-0.2-0.7-0.3-1.5-0.5-2.2c-0.6-1.6-1.8-2.4-3.4-2.5
		c-0.1,0-0.1,0-0.2,0c-0.5,0-0.8-0.4-0.8-0.8c0-0.4,0.3-0.8,0.8-0.8c0.3,0,0.5,0,0.8-0.1c1.4-0.2,2.4-1.1,2.9-2.4
		c0.3-0.7,0.4-1.4,0.5-2.1c0-0.2,0-0.3,0-0.5c0.1-0.5,0.4-0.8,0.9-0.8c0.4,0,0.7,0.3,0.8,0.8c0.1,0.7,0.2,1.4,0.4,2.1
		c0.6,1.9,1.7,2.8,3.7,3C60.1,42.5,60.4,42.8,60.4,43.3z M54.6,45.4c0.6-0.7,1.2-1.4,1.8-2c-0.6-0.7-1.2-1.4-1.8-2
		c-0.6,0.7-1.2,1.4-1.8,2C53.4,44,54,44.7,54.6,45.4z"/>
	<path class="st1" d="M43,35.8c-0.2,0.3-0.3,0.5-0.4,0.7c-2.2,2.2-4.3,4.3-6.5,6.5c-0.4,0.4-0.9,0.4-1.2,0c-0.3-0.4-0.3-0.8,0.1-1.2
		c2.2-2.2,4.4-4.4,6.5-6.5c0.3-0.3,0.6-0.4,1-0.2C42.7,35.2,42.8,35.5,43,35.8z"/>
	<path class="st1" d="M35.3,39.2c-0.2-0.2-0.5-0.3-0.6-0.6c-0.1-0.2-0.1-0.7,0.1-0.8c0.8-0.9,1.7-1.8,2.6-2.6
		c0.3-0.3,0.8-0.2,1.1,0.1c0.3,0.3,0.4,0.8,0.1,1.1c-0.9,0.9-1.8,1.8-2.7,2.7C35.8,39.1,35.6,39.1,35.3,39.2z"/>
	<path class="st1" d="M50.6,62.5c-0.7,0-1.2-0.7-0.9-1.2c0.1-0.2,0.2-0.3,0.3-0.4c2.1-2.1,4.2-4.2,6.3-6.3c0.1-0.1,0.2-0.2,0.3-0.3
		c0.4-0.2,0.7-0.2,1,0.1c0.3,0.3,0.3,0.7,0.1,1.1c0,0.1-0.1,0.1-0.2,0.2c-2.2,2.2-4.3,4.3-6.5,6.5C50.9,62.3,50.7,62.4,50.6,62.5z"
		/>
	<path class="st1" d="M49.5,57.5c0.2-0.3,0.2-0.5,0.4-0.7c0.8-0.8,1.6-1.6,2.4-2.4c0.4-0.4,0.9-0.4,1.2-0.1c0.3,0.3,0.3,0.8,0,1.2
		c-0.8,0.8-1.6,1.6-2.4,2.4c-0.3,0.3-0.6,0.4-1,0.2C49.8,58.1,49.7,57.8,49.5,57.5z"/>
</g>
</svg>
